<svg width="111" height="110" viewBox="0 0 111 110" fill="none" xmlns="http://www.w3.org/2000/svg">
<path d="M1.73322 105.574C1.87662 105.933 2.12622 106.239 2.44853 106.451C2.77084 106.664 3.15043 106.773 3.53638 106.763C4.00081 106.733 4.43648 106.528 4.75501 106.188L21.3203 98.8217L21.1321 99L1.00997 99L1.00997 103.989L1.73322 105.574Z" fill="url(#paint0_linear_421_23)"/>
<path d="M106.674 3.52683C108.982 1.24811 107.882 0.118657 106.674 -0.000232815L99.938 -0.000233403L100.186 23.3418C103.554 20.32 106.674 3.52683 106.674 3.52683Z" fill="url(#paint1_linear_421_23)"/>
<path d="M5.57682 109.26L49.7246 109.26C53.14 109.258 56.4151 107.901 58.8295 105.485L106.475 57.8597C108.89 55.4452 110.248 52.1702 110.249 48.7547C110.249 48.7547 110.249 11.2747 110.249 2.05084C110.256 1.78649 110.21 1.52349 110.113 1.27733C110.016 1.03118 109.871 0.806857 109.687 0.617579C109.502 0.428301 109.281 0.2779 109.038 0.175237C108.794 0.0725743 108.532 0.0197227 108.268 0.0198054L106.653 0.0198052C108.743 0.445827 107.802 2.37779 106.96 3.25956L90.1174 20.1617L21.3198 88.9494L4.77431 106.228C4.45579 106.567 4.02012 106.773 3.55569 106.803C3.16174 106.813 2.77432 106.7 2.44751 106.48C2.12071 106.26 1.87082 105.943 1.73272 105.574L0.989654 103.969L0.989654 104.682C0.988342 105.285 1.10617 105.881 1.33635 106.438C1.56654 106.995 1.90453 107.5 2.33088 107.925C2.75723 108.351 3.26351 108.688 3.82059 108.917C4.37766 109.146 4.97452 109.262 5.57682 109.26Z" fill="url(#paint2_linear_421_23)"/>
<g filter="url(#filter0_d_421_23)">
<path d="M41.8027 96.5692C42.0705 96.3015 42.2628 96.0488 42.3797 95.8112C42.4966 95.5736 42.557 95.3511 42.5607 95.1437C42.5607 94.9325 42.5136 94.7383 42.4193 94.561C42.3288 94.38 42.2081 94.2141 42.0573 94.0632C41.8876 93.8935 41.7103 93.7615 41.5255 93.6673C41.3445 93.5692 41.1522 93.5239 40.9485 93.5315C40.7449 93.5315 40.528 93.5937 40.298 93.7182C40.068 93.8426 39.8172 94.0406 39.5456 94.3121L38.3124 95.5453L40.5695 97.8024L41.8027 96.5692ZM38.2389 93.0054C38.7857 92.4586 39.3137 92.0513 39.8228 91.7835C40.3319 91.5158 40.8109 91.3649 41.2597 91.331C41.7122 91.2933 42.1327 91.3555 42.5211 91.5176C42.9058 91.676 43.2528 91.9099 43.562 92.2191C43.9542 92.6113 44.2408 93.0375 44.4218 93.4975C44.6029 93.9501 44.6764 94.4196 44.6425 94.9061C44.6085 95.3926 44.4633 95.8885 44.2069 96.3939C43.9542 96.8954 43.5865 97.3876 43.1038 97.8703L40.1736 100.801L31.9655 92.5924L37.6449 86.913L38.9347 88.2027L34.9523 92.1852L37.0057 94.2386L38.2389 93.0054ZM52.5235 88.4506L50.9622 90.0119L46.301 85.3506L45.0395 86.6121C45.6995 87.3701 46.2369 88.0508 46.6517 88.6542C47.0665 89.2576 47.3852 89.8026 47.6077 90.289C47.8264 90.7718 47.9622 91.2017 48.015 91.5788C48.064 91.9522 48.0546 92.2897 47.9867 92.5914C47.9151 92.8893 47.8001 93.1552 47.6417 93.389C47.4833 93.6228 47.3041 93.8397 47.1043 94.0395C46.8704 94.2734 46.6838 94.4223 46.5442 94.4864C46.4047 94.5505 46.2991 94.5468 46.2274 94.4751L45.2771 93.5248L45.6278 93.174C45.7485 93.0534 45.8522 92.9157 45.9389 92.7611C46.0219 92.6027 46.0634 92.4104 46.0634 92.1841C46.0672 91.954 46.0144 91.6825 45.905 91.3695C45.7956 91.0565 45.609 90.6813 45.345 90.2438C45.081 89.8063 44.7246 89.2991 44.2758 88.7221C43.8271 88.1451 43.2633 87.4795 42.5844 86.7252L46.6913 82.6184L52.5235 88.4506ZM53.3213 75.9883L59.1535 81.8206L57.5922 83.3818L54.3848 80.1744C54.2981 80.0877 54.2038 79.9859 54.102 79.8689C54.0001 79.7445 53.904 79.6182 53.8135 79.4899C53.9153 79.7652 53.9869 80.0141 54.0284 80.2366C54.0284 80.2517 54.0435 80.3347 54.0737 80.4855C54.1038 80.6364 54.1416 80.8325 54.1868 81.0739C54.2283 81.3114 54.2754 81.5811 54.3282 81.8828C54.3848 82.1807 54.4414 82.4862 54.4979 82.7992C54.6299 83.527 54.7808 84.3529 54.9505 85.2769C54.9656 85.3523 54.975 85.4334 54.9788 85.5201C54.9825 85.5993 54.9788 85.6823 54.9675 85.769C54.9599 85.852 54.9411 85.9312 54.9109 86.0066C54.8807 86.0821 54.8355 86.1499 54.7751 86.2103L53.8191 87.1663L47.9869 81.3341L49.5482 79.7728L52.7556 82.9802C52.8461 83.0707 52.9423 83.1782 53.0441 83.3027C53.146 83.4271 53.2421 83.5534 53.3326 83.6817C53.2798 83.5384 53.2346 83.4026 53.1969 83.2744C53.1592 83.1461 53.1309 83.0274 53.112 82.918C53.1082 82.9067 53.0913 82.8256 53.0611 82.6747C53.0347 82.5201 53.0008 82.324 52.9593 82.0864C52.914 81.8451 52.8631 81.5754 52.8065 81.2775C52.7537 80.9758 52.6991 80.6684 52.6425 80.3554C52.5105 79.6276 52.3615 78.7998 52.1956 77.8721C52.1617 77.725 52.1522 77.5647 52.1673 77.3912C52.1824 77.2102 52.2503 77.0594 52.371 76.9387L53.3213 75.9883ZM69.1256 71.8485L68.0508 72.9233C67.7755 73.1986 67.5247 73.3664 67.2984 73.4268C67.0722 73.4871 66.8251 73.4664 66.5574 73.3645L64.2607 72.5726C64.0608 72.5009 63.8704 72.4915 63.6894 72.5443C63.5083 72.5895 63.3443 72.6857 63.1972 72.8328L62.7843 73.2457L65.2563 75.7178L63.7459 77.2282L61.2739 74.7561L60.8609 75.1691C60.7139 75.3161 60.6158 75.4821 60.5668 75.6669C60.5177 75.8441 60.5291 76.0327 60.6007 76.2326L61.3927 78.5292C61.4945 78.797 61.5152 79.044 61.4549 79.2703C61.3946 79.4966 61.2267 79.7473 60.9514 80.0227L59.8766 81.0975L58.7679 77.3979C58.6887 77.1301 58.6529 76.8793 58.6604 76.6455C58.668 76.4117 58.7377 76.1684 58.8697 75.9158C58.6774 76.0025 58.485 76.0478 58.2927 76.0515C58.1004 76.0553 57.8798 76.027 57.6309 75.9667L54.1915 75.1182L55.419 73.8906C55.5623 73.7473 55.7302 73.6549 55.9225 73.6134C56.1148 73.5644 56.3053 73.5663 56.4938 73.6191L58.9942 74.3432C59.179 74.3997 59.343 74.4129 59.4863 74.3828C59.6296 74.3451 59.7805 74.247 59.9389 74.0886L60.2726 73.7549L57.9137 71.3959L59.4241 69.8856L61.783 72.2445L62.0885 71.939C62.2469 71.7806 62.3487 71.626 62.3939 71.4751C62.4354 71.3205 62.4279 71.1508 62.3713 70.966L61.6472 68.4657C61.5907 68.2809 61.5869 68.0923 61.6359 67.9C61.6812 67.7039 61.7755 67.5342 61.9188 67.3909L63.1463 66.1634L63.9892 69.6084C64.0533 69.8535 64.0834 70.0722 64.0797 70.2646C64.0759 70.4569 64.0307 70.6492 63.9439 70.8416C64.1966 70.7096 64.4398 70.6398 64.6736 70.6323C64.9075 70.6247 65.1564 70.6624 65.4204 70.7454L69.1256 71.8485ZM70.4448 65.6531C70.0827 66.0528 69.7999 66.4036 69.5963 66.7053C69.3888 67.0032 69.2474 67.2653 69.172 67.4916C69.1003 67.7141 69.0815 67.9064 69.1154 68.0686C69.1494 68.2232 69.2229 68.3571 69.336 68.4702C69.5623 68.6965 69.7848 68.7945 70.0036 68.7644C70.2261 68.7304 70.4504 68.6003 70.6767 68.374C70.9369 68.1138 71.1161 67.8442 71.2141 67.5651C71.3122 67.2785 71.3574 66.9429 71.3499 66.5582L70.4448 65.6531ZM64.6805 66.2471C64.7144 65.5946 64.8634 64.9856 65.1273 64.4199C65.3876 63.8504 65.759 63.3244 66.2417 62.8416C66.5887 62.4947 66.9545 62.242 67.3392 62.0836C67.7276 61.9215 68.1179 61.8479 68.5101 61.863C68.9024 61.8705 69.2889 61.9629 69.6698 62.1402C70.0507 62.3174 70.4071 62.572 70.7389 62.9039L74.4046 66.5695L73.6918 67.2823C73.5447 67.4293 73.4109 67.5217 73.2902 67.5594C73.1733 67.5934 73.0243 67.5689 72.8433 67.4859L72.3455 67.237C72.3266 67.5123 72.2965 67.7688 72.255 68.0063C72.2173 68.2402 72.1588 68.4645 72.0796 68.6795C71.9967 68.8907 71.8873 69.0981 71.7515 69.3018C71.6195 69.5016 71.4498 69.7053 71.2424 69.9127C70.986 70.1691 70.7182 70.369 70.4391 70.5123C70.1601 70.6556 69.8772 70.7386 69.5906 70.7612C69.304 70.7763 69.0193 70.7254 68.7364 70.6085C68.4536 70.4916 68.182 70.303 67.9218 70.0428C67.7069 69.8278 67.5466 69.5582 67.441 69.2339C67.3354 68.9096 67.3279 68.5287 67.4184 68.0912C67.5089 67.6462 67.7182 67.1465 68.0463 66.5921C68.3744 66.0302 68.8646 65.408 69.5171 64.7254L69.2172 64.4256C68.8514 64.0597 68.5064 63.8693 68.182 63.8542C67.8539 63.8354 67.5447 63.9711 67.2543 64.2615C67.0394 64.4765 66.8866 64.682 66.7961 64.8781C66.7018 65.0704 66.6302 65.2515 66.5812 65.4212C66.5321 65.5833 66.4869 65.7379 66.4454 65.885C66.4001 66.0283 66.3153 66.1622 66.1908 66.2867C66.0815 66.396 65.9627 66.462 65.8345 66.4846C65.7062 66.4997 65.5799 66.4941 65.4554 66.4677L64.6805 66.2471ZM75.1311 54.1785L80.9634 60.0107L79.4021 61.572L76.1946 58.3646C76.1079 58.2778 76.0136 58.176 75.9118 58.0591C75.81 57.9347 75.7138 57.8083 75.6233 57.6801C75.7251 57.9554 75.7968 58.2043 75.8382 58.4268C75.8382 58.4419 75.8533 58.5249 75.8835 58.6757C75.9137 58.8266 75.9514 59.0227 75.9966 59.264C76.0381 59.5016 76.0853 59.7713 76.1381 60.073C76.1946 60.3709 76.2512 60.6764 76.3078 60.9894C76.4398 61.7172 76.5906 62.5431 76.7603 63.4671C76.7754 63.5425 76.7848 63.6236 76.7886 63.7103C76.7924 63.7895 76.7886 63.8725 76.7773 63.9592C76.7697 64.0422 76.7509 64.1214 76.7207 64.1968C76.6905 64.2722 76.6453 64.3401 76.5849 64.4004L75.6289 65.3565L69.7967 59.5242L71.358 57.9629L74.5655 61.1704C74.656 61.2609 74.7521 61.3684 74.854 61.4928C74.9558 61.6173 75.0519 61.7436 75.1424 61.8718C75.0897 61.7285 75.0444 61.5928 75.0067 61.4645C74.969 61.3363 74.9407 61.2175 74.9218 61.1082C74.9181 61.0968 74.9011 61.0158 74.8709 60.8649C74.8445 60.7103 74.8106 60.5142 74.7691 60.2766C74.7238 60.0352 74.6729 59.7656 74.6164 59.4677C74.5636 59.166 74.5089 58.8586 74.4523 58.5456C74.3203 57.8178 74.1714 56.99 74.0054 56.0622C73.9715 55.9152 73.9621 55.7549 73.9771 55.5814C73.9922 55.4004 74.0601 55.2495 74.1808 55.1289L75.1311 54.1785ZM71.0469 55.2646C71.1827 55.1289 71.2807 55.0044 71.341 54.8913C71.4014 54.7706 71.4221 54.6518 71.4033 54.5349C71.3882 54.4142 71.3354 54.2898 71.2449 54.1615C71.1544 54.0258 71.0243 53.873 70.8546 53.7033L71.7766 52.7813C71.886 52.6719 72.0104 52.638 72.15 52.6794C72.2933 52.7172 72.4158 52.7869 72.5177 52.8888C72.7138 53.0849 72.8439 53.3092 72.908 53.5619C72.9721 53.807 72.974 54.0691 72.9136 54.3482C72.8533 54.6273 72.7345 54.9158 72.5573 55.2137C72.38 55.5041 72.1481 55.7926 71.8615 56.0792C71.5749 56.3658 71.2845 56.5996 70.9903 56.7807C70.6962 56.9541 70.4095 57.0711 70.1305 57.1314C69.8514 57.1917 69.5874 57.1917 69.3385 57.1314C69.0896 57.0635 68.8671 56.9315 68.671 56.7354C68.5692 56.6336 68.4975 56.5129 68.456 56.3734C68.4183 56.2301 68.4542 56.1037 68.5635 55.9944L69.4856 55.0723C69.6553 55.242 69.8061 55.374 69.9381 55.4683C70.0701 55.555 70.1946 55.6078 70.3115 55.6267C70.4322 55.6418 70.551 55.621 70.6679 55.5644C70.7848 55.5003 70.9111 55.4004 71.0469 55.2646ZM84.5884 44.7212L90.4206 50.5534L82.2635 58.7106L76.4312 52.8784L77.9925 51.3171L82.6877 56.0123L84.43 54.27L79.7348 49.5748L81.2905 48.0192L85.9857 52.7144L87.728 50.972L83.0328 46.2769L84.5884 44.7212ZM91.8172 41.9501C91.655 41.7879 91.4778 41.6559 91.2854 41.5541C91.0969 41.4485 90.8989 41.3863 90.6915 41.3674C90.484 41.3486 90.2766 41.3787 90.0692 41.4579C89.858 41.5334 89.6525 41.671 89.4526 41.8709C89.0793 42.2442 88.8926 42.6421 88.8926 43.0645C88.8926 43.4869 89.0566 43.9262 89.3847 44.3825L91.8172 41.9501ZM90.2898 45.3329C90.8857 45.8307 91.4401 46.0758 91.9529 46.0683C92.4696 46.0569 92.9391 45.8401 93.3615 45.4177C93.5765 45.2028 93.7367 44.9935 93.8423 44.7898C93.9479 44.5786 94.029 44.3844 94.0856 44.2072C94.1421 44.0224 94.1931 43.8583 94.2383 43.715C94.2836 43.5642 94.3533 43.4416 94.4476 43.3473C94.5683 43.2266 94.7078 43.1776 94.8662 43.2002L95.8845 43.3134C95.9109 43.6716 95.8882 44.0148 95.8166 44.3429C95.7411 44.6672 95.6337 44.9746 95.4941 45.265C95.3508 45.5516 95.183 45.8175 94.9907 46.0626C94.8021 46.3115 94.606 46.5378 94.4024 46.7414C93.9951 47.1487 93.5482 47.4636 93.0617 47.6861C92.5752 47.9011 92.0698 48.0104 91.5456 48.0142C91.0214 48.0104 90.4897 47.8898 89.9504 47.6522C89.4111 47.4146 88.885 47.0394 88.3721 46.5265C87.9762 46.1305 87.6669 45.693 87.4444 45.2141C87.2257 44.7314 87.1088 44.2373 87.0937 43.732C87.0786 43.2266 87.171 42.7232 87.3709 42.2216C87.567 41.7163 87.8857 41.243 88.3269 40.8017C88.7002 40.4284 89.1038 40.1455 89.5375 39.9532C89.9712 39.7533 90.4143 39.6534 90.8668 39.6534C91.3231 39.6496 91.7795 39.7514 92.2358 39.9589C92.6921 40.1587 93.1314 40.4699 93.5538 40.8922C93.6707 41.0091 93.7612 41.111 93.8254 41.1977C93.8895 41.2844 93.931 41.3636 93.9498 41.4353C93.9687 41.507 93.9649 41.5748 93.9385 41.6389C93.9083 41.6993 93.8574 41.7653 93.7858 41.8369L90.2898 45.3329ZM97.8828 35.8844C97.7207 35.7223 97.5434 35.5903 97.3511 35.4884C97.1625 35.3828 96.9645 35.3206 96.7571 35.3018C96.5497 35.2829 96.3423 35.3131 96.1349 35.3923C95.9237 35.4677 95.7181 35.6053 95.5183 35.8052C95.1449 36.1786 94.9582 36.5764 94.9582 36.9988C94.9582 37.4212 95.1223 37.8605 95.4504 38.3169L97.8828 35.8844ZM96.3555 39.2672C96.9513 39.765 97.5057 40.0102 98.0186 40.0026C98.5352 39.9913 99.0048 39.7745 99.4271 39.3521C99.6421 39.1371 99.8024 38.9278 99.908 38.7242C100.014 38.513 100.095 38.3188 100.151 38.1415C100.208 37.9567 100.259 37.7927 100.304 37.6494C100.349 37.4985 100.419 37.3759 100.513 37.2817C100.634 37.161 100.773 37.112 100.932 37.1346L101.95 37.2477C101.976 37.606 101.954 37.9492 101.882 38.2773C101.807 38.6016 101.699 38.909 101.56 39.1993C101.416 39.486 101.249 39.7518 101.056 39.997C100.868 40.2459 100.672 40.4721 100.468 40.6758C100.061 41.0831 99.6138 41.398 99.1273 41.6205C98.6408 41.8354 98.1355 41.9448 97.6113 41.9486C97.0871 41.9448 96.5553 41.8241 96.0161 41.5865C95.4768 41.3489 94.9507 40.9737 94.4378 40.4608C94.0418 40.0648 93.7326 39.6274 93.5101 39.1484C93.2913 38.6657 93.1744 38.1717 93.1593 37.6663C93.1443 37.161 93.2367 36.6575 93.4365 36.156C93.6326 35.6506 93.9513 35.1773 94.3925 34.7361C94.7659 34.3627 95.1694 34.0799 95.6031 33.8876C96.0368 33.6877 96.4799 33.5877 96.9325 33.5877C97.3888 33.584 97.8451 33.6858 98.3014 33.8932C98.7577 34.0931 99.1971 34.4042 99.6195 34.8266C99.7364 34.9435 99.8269 35.0453 99.891 35.1321C99.9551 35.2188 99.9966 35.298 100.015 35.3696C100.034 35.4413 100.031 35.5092 100.004 35.5733C99.974 35.6336 99.9231 35.6996 99.8514 35.7713L96.3555 39.2672Z" fill="white"/>
</g>
<defs>
<filter id="filter0_d_421_23" x="31.9658" y="29.8823" width="77.0078" height="77.0088" filterUnits="userSpaceOnUse" color-interpolation-filters="sRGB">
<feFlood flood-opacity="0" result="BackgroundImageFix"/>
<feColorMatrix in="SourceAlpha" type="matrix" values="0 0 0 0 0 0 0 0 0 0 0 0 0 0 0 0 0 0 127 0" result="hardAlpha"/>
<feOffset dx="3" dy="3"/>
<feGaussianBlur stdDeviation="1.5"/>
<feComposite in2="hardAlpha" operator="out"/>
<feColorMatrix type="matrix" values="0 0 0 0 0 0 0 0 0 0 0 0 0 0 0 0 0 0 0.25 0"/>
<feBlend mode="normal" in2="BackgroundImageFix" result="effect1_dropShadow_421_23"/>
<feBlend mode="normal" in="SourceGraphic" in2="effect1_dropShadow_421_23" result="shape"/>
</filter>
<linearGradient id="paint0_linear_421_23" x1="11.1651" y1="109.943" x2="11.1651" y2="49.052" gradientUnits="userSpaceOnUse">
<stop stop-color="#7B0612"/>
<stop offset="0.99" stop-color="#D9122A"/>
</linearGradient>
<linearGradient id="paint1_linear_421_23" x1="108.021" y1="11.6807" x2="86.9776" y2="11.6807" gradientUnits="userSpaceOnUse">
<stop stop-color="#7B0612"/>
<stop offset="0.99" stop-color="#D9122A"/>
</linearGradient>
<linearGradient id="paint2_linear_421_23" x1="55.6988" y1="53.8868" x2="85.4212" y2="94.1805" gradientUnits="userSpaceOnUse">
<stop stop-color="#FF1C3D"/>
<stop offset="1" stop-color="#D41128"/>
</linearGradient>
</defs>
</svg>
