<svg width="622" height="608" viewBox="0 0 622 608" fill="none" xmlns="http://www.w3.org/2000/svg">
<path opacity="0.02" fill-rule="evenodd" clip-rule="evenodd" d="M307.859 0C316.236 0 324.613 0 332.99 0C332.99 0.705441 332.99 1.413 332.99 2.11844C335.782 2.82388 338.575 3.53144 341.367 4.23688C341.367 4.94233 341.367 5.64988 341.367 6.35533C345.556 9.88465 349.744 13.4182 353.933 16.9475C353.933 18.3605 353.933 19.7714 353.933 21.1844C357.022 24.1693 360.758 40.5851 358.121 48.7242C357.424 48.7242 356.724 48.7242 356.027 48.7242C355.33 52.2556 354.63 55.7871 353.933 59.3164C349.744 62.8478 345.556 66.3793 341.367 69.9086C341.367 70.614 341.367 71.3216 341.367 72.027C334.033 76.8634 320.077 76.3148 307.859 76.2639C304.118 72.0948 303.741 74.4887 299.481 72.027C299.481 71.3216 299.481 70.614 299.481 69.9086C298.085 69.9086 296.69 69.9086 295.293 69.9086C293.896 67.7902 292.501 65.6717 291.104 63.5533C290.407 63.5533 289.707 63.5533 289.01 63.5533C289.01 62.1403 289.01 60.7294 289.01 59.3164C287.613 58.6109 286.218 57.9034 284.822 57.1979C284.822 55.0795 284.822 52.9611 284.822 50.8426C284.124 50.8426 283.425 50.8426 282.727 50.8426C282.03 45.1948 281.33 39.5428 280.633 33.8951C281.33 33.8951 282.03 33.8951 282.727 33.8951C282.727 30.3658 282.727 26.8322 282.727 23.3029C283.425 23.3029 284.124 23.3029 284.822 23.3029C286.049 18.2228 291.779 8.87627 295.293 6.35533C296.69 6.35533 298.085 6.35533 299.481 6.35533C300.179 4.94232 300.878 3.53144 301.576 2.11844C303.67 2.11844 305.764 2.11844 307.859 2.11844C307.859 1.413 307.859 0.705441 307.859 0ZM173.825 14.8291C180.298 13.092 184.705 8.18778 190.579 6.35533C199.836 3.46789 207.059 9.25124 213.616 10.5922C215.71 13.4161 217.805 16.2421 219.899 19.066C220.596 19.066 221.296 19.066 221.993 19.066C224.418 22.6207 221.951 23.9214 226.182 27.5397C226.762 36.1131 229.384 43.1357 224.088 48.7242C221.88 59.5791 215.072 60.9899 209.428 67.7901C200.165 68.5019 190.59 71.8194 184.296 65.6717C177.538 64.0829 171.285 57.6216 169.636 50.8426C165.46 46.8345 169.578 49.7516 167.542 44.4873C162.256 30.8191 170.857 25.5145 173.825 14.8291ZM94.2424 14.8291C100.525 15.5345 106.808 16.2421 113.091 16.9475C115.185 19.7714 117.279 22.5974 119.374 25.4213C123.472 29.4294 123.661 36.111 123.562 44.4873C119.11 48.4721 118.536 53.8911 113.091 57.1979C109.135 61.4348 112.017 57.2573 106.808 59.3164C96.8393 63.2567 94.7932 59.3588 85.8653 57.1979C80.971 48.167 77.616 46.7858 77.4882 31.7766C78.1856 31.7766 78.8851 31.7766 79.5825 31.7766C79.5825 29.6582 79.5825 27.5398 79.5825 25.4213C80.9794 24.7159 82.3742 24.0083 83.771 23.3029C83.771 22.5974 83.771 21.8899 83.771 21.1844C84.4684 21.1844 85.1679 21.1844 85.8653 21.1844C86.5627 19.7714 87.2622 18.3605 87.9596 16.9475C90.0539 16.9475 92.1481 16.9475 94.2424 16.9475C94.2424 16.2421 94.2424 15.5345 94.2424 14.8291ZM8.3771 23.3029C13.2631 23.3029 18.1511 23.3029 23.037 23.3029C27.6047 31.0394 31.3534 30.6983 31.4141 44.4873C23.7658 49.1076 24.103 52.8996 10.4714 52.9611C10.4714 52.2556 10.4714 51.5481 10.4714 50.8426C9.0745 50.8426 7.67971 50.8426 6.28283 50.8426C5.58543 49.4296 4.88595 48.0187 4.18855 46.6057C3.49116 46.6057 2.79167 46.6057 2.09428 46.6057C-2.83565 36.2444 6.06502 27.2877 8.3771 23.3029ZM400.007 86.8561C404.893 86.8561 409.781 86.8561 414.667 86.8561C419.314 88.3962 423.507 91.8599 429.327 93.2115C432.118 96.7429 434.912 100.274 437.704 103.804C438.401 103.804 439.101 103.804 439.798 103.804C442.196 107.45 448.69 127.39 446.081 135.58C444.583 140.279 441.105 144.514 439.798 150.409C437.006 152.528 434.213 154.646 431.421 156.765C431.421 157.47 431.421 158.178 431.421 158.883C422.6 165.09 411.188 165.3 395.818 165.238C392.103 161.042 391.697 163.461 387.441 161.002C387.441 160.296 387.441 159.589 387.441 158.883C386.044 158.883 384.649 158.883 383.253 158.883C381.856 156.765 380.461 154.646 379.064 152.528C378.367 152.528 377.667 152.528 376.97 152.528C376.97 151.115 376.97 149.704 376.97 148.291C375.573 147.586 374.178 146.878 372.781 146.173C368.582 139.241 368.492 127.816 368.593 116.514C369.29 116.514 369.989 116.514 370.687 116.514C370.687 114.396 370.687 112.277 370.687 110.159C374.178 105.217 377.669 100.272 381.158 95.3299C382.555 95.3299 383.95 95.3299 385.347 95.3299C386.044 93.9169 386.744 92.506 387.441 91.093C391.63 90.3876 395.818 89.68 400.007 88.9746C400.007 88.2691 400.007 87.5616 400.007 86.8561ZM274.35 95.3299C286.746 95.1371 292.706 97.6898 301.576 99.5668C303.67 102.391 305.764 105.217 307.859 108.041C308.556 108.041 309.255 108.041 309.953 108.041C312.194 111.494 317.099 129.803 314.141 137.699C313.444 137.699 312.745 137.699 312.047 137.699C311.35 140.523 310.65 143.349 309.953 146.173C309.255 146.173 308.556 146.173 307.859 146.173C306.462 148.291 305.067 150.409 303.67 152.528C296.746 157.212 278.738 160.997 272.256 154.646C266.141 153.151 267.368 151.74 263.879 148.291C253.805 138.336 252.865 137.127 253.407 116.514C257.183 113.239 258.281 107.348 261.785 103.804C265.288 100.26 271.104 99.1431 274.35 95.3299ZM178.013 103.804C187.069 103.679 194.573 104.676 201.051 105.922C206.282 115.065 211.168 116.023 211.522 131.343C210.824 131.343 210.125 131.343 209.428 131.343C208.73 134.873 208.031 138.406 207.333 141.936C203.576 147.399 191.84 150.314 182.202 150.409C176.589 144.103 170.252 145.988 167.542 135.58C164.432 132.206 165.255 123.098 165.448 116.514C170.566 113.241 166.742 113.991 169.636 110.159C171.322 107.928 175.932 106.433 178.013 103.804ZM100.525 110.159C104.014 110.864 107.508 111.572 110.997 112.277C114.965 119.175 118.81 119.974 119.374 131.343C110.672 138.9 116.266 141.999 98.431 141.936C91.8633 134.083 88.146 136.404 87.9596 120.751C88.657 120.751 89.3565 120.751 90.0539 120.751C90.0539 119.338 90.0539 117.927 90.0539 116.514C91.4508 115.809 92.8455 115.101 94.2424 114.396C94.2424 113.69 94.2424 112.983 94.2424 112.277C96.3367 112.277 98.431 112.277 100.525 112.277C100.525 111.572 100.525 110.864 100.525 110.159ZM485.872 175.831C491.455 175.831 497.043 175.831 502.626 175.831C507.273 177.371 511.464 180.837 517.286 182.186C522.421 190.615 539.693 204.201 534.04 222.436C533.343 222.436 532.644 222.436 531.946 222.436C531.946 225.26 531.946 228.086 531.946 230.91C531.249 230.91 530.549 230.91 529.852 230.91C527.198 242.763 505.529 260.778 485.872 254.213C481.229 252.662 477.017 249.245 471.212 247.858C469.118 245.034 467.024 242.208 464.929 239.384C464.232 239.384 463.532 239.384 462.835 239.384C456.749 230.162 456.504 218.964 456.552 203.37C460.343 200.044 458.345 199.148 460.741 194.897C461.438 194.897 462.138 194.897 462.835 194.897C462.835 193.484 462.835 192.073 462.835 190.66C465.627 188.541 468.42 186.423 471.212 184.304C471.212 183.599 471.212 182.891 471.212 182.186C472.609 182.186 474.004 182.186 475.401 182.186C475.401 181.481 475.401 180.773 475.401 180.068C478.892 179.362 482.383 178.655 485.872 177.949C485.872 177.244 485.872 176.536 485.872 175.831ZM393.724 239.384C391.63 240.089 389.535 240.797 387.441 241.502C387.441 242.208 387.441 242.915 387.441 243.621C386.044 243.621 384.649 243.621 383.253 243.621C383.253 244.326 383.253 245.034 383.253 245.739C377.548 247.841 362.745 245.934 360.215 243.621C348.349 240.708 348.697 232.974 341.367 226.673C341.122 219.396 339.966 207.215 343.461 203.37C347.04 187.505 361.013 183.752 381.158 184.304C384.396 188.124 390.22 189.234 393.724 192.778C397.228 196.322 398.331 202.205 402.101 205.489C401.404 213.963 400.704 222.436 400.007 230.91C399.309 230.91 398.61 230.91 397.912 230.91C395.559 234.293 395.062 234.541 393.724 239.384ZM265.973 192.778C272.474 192.545 281.494 191.783 284.822 194.897C291.287 196.39 293.731 199.026 295.293 205.489C301.241 211.293 298.049 217.422 297.387 226.673C287.785 232.425 288.346 238.623 272.256 239.384C272.256 238.679 272.256 237.971 272.256 237.266C268.767 236.56 265.276 235.853 261.785 235.147C260.149 232.113 255.983 226.65 253.407 224.555C253.284 215.395 254.27 207.804 255.502 201.252C258.501 199.598 263.902 195.384 265.973 192.778ZM186.391 199.134C190.579 199.839 194.768 200.547 198.956 201.252C206.251 213.314 209.844 210.423 203.145 226.673C190.944 232.844 184.07 233.043 178.013 220.318C177.316 220.318 176.617 220.318 175.919 220.318C175.919 216.787 175.919 213.257 175.919 209.726C177.651 205.131 183.4 202.623 186.391 199.134ZM573.832 264.805C579.415 264.805 585.003 264.805 590.586 264.805C595.233 266.345 599.424 269.811 605.246 271.161C608.09 276.321 613.256 278.16 615.717 281.753C618.14 285.288 615.682 286.608 619.906 290.227C620.603 295.874 621.303 301.526 622 307.174C619.906 313.529 617.811 319.885 615.717 326.24C612.226 329.064 608.737 331.89 605.246 334.714C605.246 335.419 605.246 336.127 605.246 336.832C601.642 339.258 581.928 345.827 573.832 343.188C569.187 341.673 565 338.154 559.172 336.832C557.077 334.008 554.983 331.182 552.889 328.359C552.191 328.359 551.492 328.359 550.795 328.359C550.795 326.946 550.795 325.535 550.795 324.122C549.398 323.416 548.003 322.709 546.606 322.003C541.827 312.731 545.668 295.508 546.606 285.99C551.737 282.704 547.892 283.558 550.795 279.634C553.586 277.516 556.38 275.397 559.172 273.279C559.172 272.574 559.172 271.866 559.172 271.161C560.569 271.161 561.963 271.161 563.36 271.161C563.36 270.455 563.36 269.748 563.36 269.042C566.849 268.337 570.343 267.629 573.832 266.924C573.832 266.218 573.832 265.511 573.832 264.805ZM448.175 273.279C467.409 272.584 482.27 275.493 485.872 290.227C490.27 294.54 490.224 302.395 490.061 311.411C489.363 311.411 488.664 311.411 487.966 311.411C487.966 313.529 487.966 315.648 487.966 317.766C486.569 318.472 485.175 319.179 483.778 319.885C479.836 325.825 481.288 328.365 473.306 330.477C468.938 335.618 459.981 334.974 450.269 334.714C450.269 334.008 450.269 333.301 450.269 332.595C448.175 332.595 446.081 332.595 443.987 332.595C443.289 331.182 442.59 329.772 441.892 328.359C440.495 328.359 439.101 328.359 437.704 328.359C435.314 326.463 432.816 318.582 429.327 315.648C428.684 304.948 426.485 297.421 431.421 288.108C432.118 288.108 432.818 288.108 433.515 288.108C433.515 286.695 433.515 285.284 433.515 283.871C438.401 280.342 443.289 276.808 448.175 273.279ZM360.215 279.634C367.623 280.24 370.444 282.49 376.97 283.871C378.605 286.905 382.771 292.368 385.347 294.463C385.47 303.624 384.484 311.214 383.253 317.766C380.254 319.421 374.852 323.634 372.781 326.24C363.726 326.365 356.222 325.367 349.744 324.122C346.615 318.8 336.839 310.67 339.273 300.819C339.97 300.819 340.67 300.819 341.367 300.819C342.064 297.289 342.764 293.756 343.461 290.227C345.556 288.814 347.65 287.403 349.744 285.99C349.744 285.284 349.744 284.577 349.744 283.871C353.235 283.166 356.726 282.458 360.215 281.753C360.215 281.047 360.215 280.34 360.215 279.634ZM274.35 288.108C278.539 288.814 282.727 289.521 286.916 290.227C291.607 298.385 293.28 296.883 293.199 311.411C291.104 312.824 289.01 314.235 286.916 315.648C286.916 316.353 286.916 317.061 286.916 317.766C285.519 317.766 284.124 317.766 282.727 317.766C282.727 318.472 282.727 319.179 282.727 319.885C272.687 323.151 259.824 309.477 263.879 298.7C265.609 294.103 271.364 291.601 274.35 288.108ZM483.778 353.78C504.228 353.401 511.255 354.14 521.475 364.372C522.872 365.078 524.266 365.785 525.663 366.491C525.663 367.904 525.663 369.314 525.663 370.727C526.361 370.727 527.06 370.727 527.758 370.727C529.753 373.331 529.324 374.816 531.946 377.083C532.644 384.849 533.343 392.619 534.04 400.386C533.343 400.386 532.644 400.386 531.946 400.386C531.946 402.504 531.946 404.623 531.946 406.741C531.249 406.741 530.549 406.741 529.852 406.741C529.852 408.154 529.852 409.565 529.852 410.978C525.663 415.92 521.475 420.865 517.286 425.807C514.495 426.512 511.701 427.22 508.909 427.925C508.909 428.631 508.909 429.338 508.909 430.044C491.504 437.573 466.14 426.44 462.835 413.096C456.001 407.146 456.309 394.467 456.552 381.32C460.043 375.672 463.532 370.02 467.024 364.372C472.607 360.843 478.194 357.309 483.778 353.78ZM393.724 368.609C395.06 373.452 395.556 373.704 397.912 377.083C398.61 377.083 399.309 377.083 400.007 377.083C400.007 379.201 400.007 381.32 400.007 383.438C400.704 383.438 401.404 383.438 402.101 383.438C405.523 394.151 399.36 403.801 397.912 410.978C389.91 415.876 380.222 429.751 362.31 423.688C362.31 422.983 362.31 422.275 362.31 421.57C360.216 421.57 358.121 421.57 356.027 421.57C356.027 420.865 356.027 420.157 356.027 419.452C352.682 417.07 352.439 416.564 347.65 415.215C346.952 413.096 346.253 410.978 345.556 408.859C344.858 408.859 344.159 408.859 343.461 408.859C343.461 407.446 343.461 406.035 343.461 404.622C342.764 404.622 342.064 404.622 341.367 404.622C339.289 398.852 341.174 383.879 343.461 381.32C346.341 369.317 353.987 369.668 360.215 362.254C367.893 362.254 375.575 362.254 383.253 362.254C383.253 362.959 383.253 363.667 383.253 364.372C384.649 364.372 386.044 364.372 387.441 364.372C387.441 365.078 387.441 365.785 387.441 366.491C389.535 367.196 391.63 367.904 393.724 368.609ZM293.199 374.964C293.199 376.377 293.199 377.788 293.199 379.201C294.596 379.907 295.99 380.614 297.387 381.32C297.387 384.144 297.387 386.97 297.387 389.793C298.085 389.793 298.784 389.793 299.481 389.793C300.916 396.142 296.392 401.256 295.293 406.741C292.294 408.395 286.893 412.609 284.822 415.215C275.766 415.34 268.262 414.342 261.785 413.096C260.149 410.063 255.983 404.599 253.407 402.504C253.284 393.344 254.27 385.754 255.502 379.201C264.193 374.149 266.419 369.302 280.633 368.609C280.633 369.314 280.633 370.022 280.633 370.727C282.727 370.727 284.822 370.727 286.916 370.727C286.916 371.433 286.916 372.14 286.916 372.846C289.01 373.551 291.104 374.259 293.199 374.964ZM186.391 377.083C195.603 376.939 199.662 377.934 203.145 383.438C213.191 392.492 199.386 413.692 186.391 408.859C186.391 408.154 186.391 407.446 186.391 406.741C184.994 406.741 183.599 406.741 182.202 406.741C179.802 405.112 173.423 394.189 175.919 387.675C176.617 387.675 177.316 387.675 178.013 387.675C178.013 386.262 178.013 384.851 178.013 383.438C178.711 383.438 179.41 383.438 180.108 383.438C180.805 382.025 181.505 380.614 182.202 379.201C183.599 379.201 184.994 379.201 186.391 379.201C186.391 378.496 186.391 377.788 186.391 377.083ZM379.064 510.545C377.749 505.785 377.301 505.312 374.875 502.071C374.178 502.071 373.479 502.071 372.781 502.071C372.084 498.542 371.384 495.008 370.687 491.479C369.989 491.479 369.29 491.479 368.593 491.479C364.193 477.467 372.919 466.506 374.875 457.584C377.667 455.465 380.461 453.347 383.253 451.228C383.253 450.523 383.253 449.815 383.253 449.11C384.649 449.11 386.044 449.11 387.441 449.11C387.441 448.404 387.441 447.697 387.441 446.991C391.628 444.564 392.557 446.625 395.818 442.754C417.226 442.024 435.821 445.667 439.798 461.82C446.338 467.364 448.468 485.479 443.987 495.716C437.218 511.174 422.962 521.69 400.007 521.137C400.007 520.431 400.007 519.724 400.007 519.018C397.912 519.018 395.818 519.018 393.724 519.018C388.656 516.527 385.539 512.193 379.064 510.545ZM280.633 449.11C290.195 449.836 295.647 453.616 303.67 455.465C305.067 457.584 306.462 459.702 307.859 461.82C308.556 461.82 309.255 461.82 309.953 461.82C314.592 469 314.208 479.499 314.141 491.479C307.591 497.429 307.649 505.704 297.387 508.426C292.838 513.163 283.825 512.864 274.35 512.663C271.112 508.844 265.288 507.733 261.785 504.189C258.281 500.645 257.177 494.762 253.407 491.479C253.146 477.681 254.647 463.282 261.785 457.584C263.181 457.584 264.576 457.584 265.973 457.584C265.973 456.878 265.973 456.171 265.973 455.465C268.52 453.436 270.013 453.878 272.256 451.228C275.048 451.228 277.841 451.228 280.633 451.228C280.633 450.523 280.633 449.815 280.633 449.11ZM182.202 457.584C195.057 457.173 204.879 460.295 207.333 470.294C211.109 473.982 211.511 479.603 211.522 487.242C205.287 492.919 207.151 499.33 196.862 502.071C190.202 508.49 177.544 501.387 171.731 499.952C171.033 497.834 170.334 495.716 169.636 493.597C168.939 493.597 168.239 493.597 167.542 493.597C167.542 492.184 167.542 490.773 167.542 489.36C166.845 489.36 166.145 489.36 165.448 489.36C161.676 478.531 169.479 464.871 173.825 461.82C177.293 459.386 178.558 461.727 182.202 457.584ZM98.431 466.057C102.62 466.057 106.808 466.057 110.997 466.057C112.394 468.176 113.788 470.294 115.185 472.413C115.883 472.413 116.582 472.413 117.279 472.413C117.279 473.826 117.279 475.237 117.279 476.65C117.977 476.65 118.676 476.65 119.374 476.65C123.114 488.331 109.281 497.133 100.525 497.834C95.8194 492.536 92.4916 495.8 90.0539 487.242C81.66 478.221 94.9545 470.114 98.431 466.057ZM307.859 531.729C315.536 531.729 323.218 531.729 330.896 531.729C330.896 532.435 330.896 533.142 330.896 533.848C334.387 534.553 337.876 535.26 341.367 535.966C344.159 539.495 346.952 543.027 349.744 546.558C350.441 546.558 351.141 546.558 351.838 546.558C353.235 550.795 354.63 555.032 356.027 559.269C356.724 559.269 357.424 559.269 358.121 559.269C361.834 569.806 355.005 588.603 351.838 593.164C349.047 595.282 346.253 597.401 343.461 599.519C342.764 600.932 342.064 602.343 341.367 603.756C337.844 606.203 336.634 603.82 332.99 607.993C321.208 608.107 310.801 606.802 301.576 605.875C298.286 600.634 290.108 597.81 286.916 593.164C284.497 589.643 286.93 588.319 282.727 584.69C281.992 574.93 279.931 571.751 282.727 563.506C282.727 560.682 282.727 557.856 282.727 555.032C283.425 555.032 284.124 555.032 284.822 555.032C286.03 550.064 291.833 540.468 295.293 538.084C296.69 538.084 298.085 538.084 299.481 538.084C299.481 537.379 299.481 536.671 299.481 535.966C303.745 533.513 304.164 535.941 307.859 531.729ZM192.673 538.084C202.236 538.811 207.687 542.59 215.71 544.44C217.107 546.558 218.502 548.677 219.899 550.795C220.596 550.795 221.296 550.795 221.993 550.795C226.632 557.974 226.249 568.473 226.182 580.453C219.631 586.404 219.69 594.679 209.428 597.401C200.077 607.387 185.314 597.577 175.919 595.282C174.545 592.755 172.531 592.274 171.731 591.045C171.731 589.632 171.731 588.222 171.731 586.809C170.334 586.103 168.939 585.396 167.542 584.69C166.845 576.924 166.145 569.153 165.448 561.387C169.634 557.739 167.215 556.462 169.636 552.913C174.522 548.677 179.41 544.44 184.296 540.203C187.088 540.203 189.882 540.203 192.673 540.203C192.673 539.497 192.673 538.79 192.673 538.084ZM94.2424 546.558C104.831 546.497 107.631 549.066 115.185 550.795C120.08 559.826 123.435 561.207 123.562 576.216C122.865 576.216 122.165 576.216 121.468 576.216C121.468 577.629 121.468 579.04 121.468 580.453C120.771 580.453 120.071 580.453 119.374 580.453C119.374 581.866 119.374 583.277 119.374 584.69C115.33 590.38 104.724 593.174 94.2424 593.164C94.2424 592.458 94.2424 591.751 94.2424 591.045C92.1481 591.045 90.0539 591.045 87.9596 591.045C85.8653 588.222 83.771 585.396 81.6768 582.572C77.5029 578.564 81.616 581.483 79.5825 576.216C75.5008 565.65 79.1259 558.949 85.8653 552.913C85.8653 552.208 85.8653 551.501 85.8653 550.795C87.2622 550.795 88.657 550.795 90.0539 550.795C90.0539 550.09 90.0539 549.382 90.0539 548.677C91.4508 548.677 92.8455 548.677 94.2424 548.677C94.2424 547.971 94.2424 547.264 94.2424 546.558ZM10.4714 555.032C14.6599 555.032 18.8485 555.032 23.037 555.032C27.7596 563.22 31.1335 562.182 31.4141 576.216C22.0988 581.841 25.1271 584.769 8.3771 584.69C6.98022 582.572 5.58543 580.453 4.18855 578.335C3.49116 578.335 2.79167 578.335 2.09428 578.335C2.09428 576.216 2.09428 574.098 2.09428 571.979C1.39688 571.979 0.697394 571.979 0 571.979C1.39688 567.743 2.79167 563.506 4.18855 559.269C6.87132 558.019 8.6724 557.18 10.4714 555.032Z" fill="black"/>
</svg>
