<svg width="622" height="608" viewBox="0 0 622 608" fill="none" xmlns="http://www.w3.org/2000/svg">
<path opacity="0.02" fill-rule="evenodd" clip-rule="evenodd" d="M314.141 0C305.764 0 297.387 0 289.01 0C289.01 0.705441 289.01 1.413 289.01 2.11844C286.218 2.82388 283.425 3.53144 280.633 4.23688C280.633 4.94233 280.633 5.64988 280.633 6.35533C276.444 9.88465 272.256 13.4182 268.067 16.9475C268.067 18.3605 268.067 19.7714 268.067 21.1844C264.978 24.1693 261.242 40.5851 263.879 48.7242C264.576 48.7242 265.276 48.7242 265.973 48.7242C266.67 52.2556 267.37 55.7871 268.067 59.3164C272.256 62.8478 276.444 66.3793 280.633 69.9086C280.633 70.614 280.633 71.3216 280.633 72.027C287.967 76.8634 301.923 76.3148 314.141 76.2639C317.882 72.0948 318.259 74.4887 322.519 72.027C322.519 71.3216 322.519 70.614 322.519 69.9086C323.915 69.9086 325.31 69.9086 326.707 69.9086C328.104 67.7902 329.499 65.6717 330.896 63.5533C331.593 63.5533 332.293 63.5533 332.99 63.5533C332.99 62.1403 332.99 60.7294 332.99 59.3164C334.387 58.6109 335.782 57.9034 337.178 57.1979C337.178 55.0795 337.178 52.9611 337.178 50.8426C337.876 50.8426 338.575 50.8426 339.273 50.8426C339.97 45.1948 340.67 39.5428 341.367 33.8951C340.67 33.8951 339.97 33.8951 339.273 33.8951C339.273 30.3658 339.273 26.8322 339.273 23.3029C338.575 23.3029 337.876 23.3029 337.178 23.3029C335.951 18.2228 330.221 8.87627 326.707 6.35533C325.31 6.35533 323.915 6.35533 322.519 6.35533C321.821 4.94233 321.122 3.53144 320.424 2.11844C318.33 2.11844 316.236 2.11844 314.141 2.11844C314.141 1.413 314.141 0.705441 314.141 0ZM448.175 14.8291C441.702 13.092 437.295 8.18778 431.421 6.35533C422.164 3.46789 414.941 9.25124 408.384 10.5922C406.29 13.4161 404.195 16.2421 402.101 19.066C401.404 19.066 400.704 19.066 400.007 19.066C397.582 22.6207 400.049 23.9214 395.818 27.5397C395.238 36.1131 392.616 43.1357 397.912 48.7242C400.12 59.5791 406.928 60.9899 412.572 67.7901C421.835 68.5019 431.41 71.8194 437.704 65.6717C444.462 64.0829 450.715 57.6216 452.364 50.8426C456.54 46.8345 452.422 49.7516 454.458 44.4873C459.744 30.8191 451.143 25.5145 448.175 14.8291ZM527.758 14.8291C521.475 15.5345 515.192 16.2421 508.909 16.9475C506.815 19.7714 504.721 22.5974 502.626 25.4213C498.528 29.4294 498.339 36.111 498.438 44.4873C502.89 48.4721 503.464 53.8911 508.909 57.1979C512.865 61.4348 509.983 57.2573 515.192 59.3164C525.161 63.2567 527.207 59.3588 536.135 57.1979C541.029 48.167 544.384 46.7858 544.512 31.7766C543.814 31.7766 543.115 31.7766 542.418 31.7766C542.418 29.6582 542.418 27.5398 542.418 25.4213C541.021 24.7159 539.626 24.0083 538.229 23.3029C538.229 22.5974 538.229 21.8899 538.229 21.1844C537.532 21.1844 536.832 21.1844 536.135 21.1844C535.437 19.7714 534.738 18.3605 534.04 16.9475C531.946 16.9475 529.852 16.9475 527.758 16.9475C527.758 16.2421 527.758 15.5345 527.758 14.8291ZM613.623 23.3029C608.737 23.3029 603.849 23.3029 598.963 23.3029C594.395 31.0394 590.647 30.6983 590.586 44.4873C598.234 49.1076 597.897 52.8996 611.529 52.9611C611.529 52.2556 611.529 51.5481 611.529 50.8426C612.926 50.8426 614.32 50.8426 615.717 50.8426C616.415 49.4296 617.114 48.0187 617.811 46.6057C618.509 46.6057 619.208 46.6057 619.906 46.6057C624.836 36.2444 615.935 27.2877 613.623 23.3029ZM221.993 86.8561C217.107 86.8561 212.219 86.8561 207.333 86.8561C202.686 88.3962 198.493 91.8599 192.673 93.2115C189.882 96.7429 187.088 100.274 184.296 103.804C183.599 103.804 182.899 103.804 182.202 103.804C179.804 107.45 173.31 127.39 175.919 135.58C177.417 140.279 180.895 144.514 182.202 150.409C184.994 152.528 187.787 154.646 190.579 156.765C190.579 157.47 190.579 158.178 190.579 158.883C199.4 165.09 210.812 165.3 226.182 165.238C229.897 161.042 230.303 163.461 234.559 161.002C234.559 160.296 234.559 159.589 234.559 158.883C235.956 158.883 237.351 158.883 238.747 158.883C240.144 156.765 241.539 154.646 242.936 152.528C243.633 152.528 244.333 152.528 245.03 152.528C245.03 151.115 245.03 149.704 245.03 148.291C246.427 147.586 247.822 146.878 249.219 146.173C253.418 139.241 253.508 127.816 253.407 116.514C252.71 116.514 252.01 116.514 251.313 116.514C251.313 114.396 251.313 112.277 251.313 110.159C247.822 105.217 244.331 100.272 240.842 95.3299C239.445 95.3299 238.05 95.3299 236.653 95.3299C235.956 93.9169 235.256 92.506 234.559 91.093C230.37 90.3876 226.182 89.68 221.993 88.9746C221.993 88.2691 221.993 87.5616 221.993 86.8561ZM347.65 95.3299C335.254 95.1371 329.294 97.6898 320.424 99.5668C318.33 102.391 316.236 105.217 314.141 108.041C313.444 108.041 312.745 108.041 312.047 108.041C309.806 111.494 304.901 129.803 307.859 137.699C308.556 137.699 309.255 137.699 309.953 137.699C310.65 140.523 311.35 143.349 312.047 146.173C312.745 146.173 313.444 146.173 314.141 146.173C315.538 148.291 316.933 150.409 318.33 152.528C325.254 157.212 343.262 160.997 349.744 154.646C355.859 153.151 354.632 151.74 358.121 148.291C368.195 138.336 369.135 137.127 368.593 116.514C364.817 113.239 363.719 107.348 360.215 103.804C356.712 100.26 350.896 99.1431 347.65 95.3299ZM443.987 103.804C434.931 103.679 427.427 104.676 420.949 105.922C415.718 115.065 410.832 116.023 410.478 131.343C411.176 131.343 411.875 131.343 412.572 131.343C413.27 134.873 413.969 138.406 414.667 141.936C418.424 147.399 430.16 150.314 439.798 150.409C445.411 144.103 451.748 145.988 454.458 135.58C457.568 132.206 456.745 123.098 456.552 116.514C451.434 113.241 455.258 113.991 452.364 110.159C450.678 107.928 446.068 106.433 443.987 103.804ZM521.475 110.159C517.986 110.864 514.492 111.572 511.003 112.277C507.035 119.175 503.19 119.974 502.626 131.343C511.328 138.9 505.734 141.999 523.569 141.936C530.137 134.083 533.854 136.404 534.04 120.751C533.343 120.751 532.644 120.751 531.946 120.751C531.946 119.338 531.946 117.927 531.946 116.514C530.549 115.809 529.154 115.101 527.758 114.396C527.758 113.69 527.758 112.983 527.758 112.277C525.663 112.277 523.569 112.277 521.475 112.277C521.475 111.572 521.475 110.864 521.475 110.159ZM136.128 175.831C130.545 175.831 124.957 175.831 119.374 175.831C114.727 177.371 110.536 180.837 104.714 182.186C99.5786 190.615 82.3071 204.201 87.9596 222.436C88.657 222.436 89.3565 222.436 90.0539 222.436C90.0539 225.26 90.0539 228.086 90.0539 230.91C90.7513 230.91 91.4507 230.91 92.1481 230.91C94.8016 242.763 116.471 260.778 136.128 254.213C140.771 252.662 144.983 249.245 150.788 247.858C152.882 245.034 154.976 242.208 157.071 239.384C157.768 239.384 158.468 239.384 159.165 239.384C165.251 230.162 165.496 218.964 165.448 203.37C161.657 200.044 163.655 199.148 161.259 194.897C160.562 194.897 159.862 194.897 159.165 194.897C159.165 193.484 159.165 192.073 159.165 190.66C156.373 188.541 153.58 186.423 150.788 184.304C150.788 183.599 150.788 182.891 150.788 182.186C149.391 182.186 147.996 182.186 146.599 182.186C146.599 181.481 146.599 180.773 146.599 180.068C143.108 179.362 139.617 178.655 136.128 177.949C136.128 177.244 136.128 176.536 136.128 175.831ZM228.276 239.384C230.37 240.089 232.465 240.797 234.559 241.502C234.559 242.208 234.559 242.915 234.559 243.621C235.956 243.621 237.351 243.621 238.747 243.621C238.747 244.326 238.747 245.034 238.747 245.739C244.452 247.841 259.255 245.934 261.785 243.621C273.651 240.708 273.303 232.974 280.633 226.673C280.878 219.396 282.034 207.215 278.539 203.37C274.96 187.505 260.987 183.752 240.842 184.304C237.604 188.124 231.78 189.234 228.276 192.778C224.772 196.322 223.669 202.205 219.899 205.489C220.596 213.963 221.296 222.436 221.993 230.91C222.691 230.91 223.39 230.91 224.088 230.91C226.441 234.293 226.938 234.541 228.276 239.384ZM356.027 192.778C349.526 192.545 340.506 191.783 337.178 194.897C330.713 196.39 328.269 199.026 326.707 205.489C320.759 211.293 323.951 217.422 324.613 226.673C334.215 232.425 333.654 238.623 349.744 239.384C349.744 238.679 349.744 237.971 349.744 237.266C353.233 236.56 356.724 235.853 360.215 235.147C361.851 232.113 366.017 226.65 368.593 224.555C368.716 215.395 367.73 207.804 366.498 201.252C363.499 199.598 358.098 195.384 356.027 192.778ZM435.609 199.134C431.421 199.839 427.232 200.547 423.044 201.252C415.749 213.314 412.156 210.423 418.855 226.673C431.056 232.844 437.93 233.043 443.987 220.318C444.684 220.318 445.383 220.318 446.081 220.318C446.081 216.787 446.081 213.257 446.081 209.726C444.349 205.131 438.6 202.623 435.609 199.134ZM48.1683 264.805C42.585 264.805 36.9974 264.805 31.4141 264.805C26.7669 266.345 22.5763 269.811 16.7542 271.161C13.9102 276.321 8.74359 278.16 6.28284 281.753C3.85974 285.288 6.31842 286.608 2.0943 290.227C1.39691 295.874 0.697388 301.526 0 307.174C2.0943 313.529 4.18854 319.885 6.28284 326.24C9.77399 329.064 13.2631 331.89 16.7542 334.714C16.7542 335.419 16.7542 336.127 16.7542 336.832C20.3585 339.258 40.0718 345.827 48.1683 343.188C52.8134 341.673 56.9999 338.154 62.8283 336.832C64.9225 334.008 67.0168 331.182 69.1111 328.359C69.8085 328.359 70.508 328.359 71.2054 328.359C71.2054 326.946 71.2054 325.535 71.2054 324.122C72.6023 323.416 73.9971 322.709 75.3939 322.003C80.173 312.731 76.3322 295.508 75.3939 285.99C70.2629 282.704 74.108 283.558 71.2054 279.634C68.4137 277.516 65.6199 275.397 62.8283 273.279C62.8283 272.574 62.8283 271.866 62.8283 271.161C61.4314 271.161 60.0366 271.161 58.6397 271.161C58.6397 270.455 58.6397 269.748 58.6397 269.042C55.1506 268.337 51.6574 267.629 48.1683 266.924C48.1683 266.218 48.1683 265.511 48.1683 264.805ZM173.825 273.279C154.591 272.584 139.73 275.493 136.128 290.227C131.73 294.54 131.776 302.395 131.939 311.411C132.637 311.411 133.336 311.411 134.034 311.411C134.034 313.529 134.034 315.648 134.034 317.766C135.431 318.472 136.825 319.179 138.222 319.885C142.164 325.825 140.712 328.365 148.694 330.477C153.062 335.618 162.019 334.974 171.731 334.714C171.731 334.008 171.731 333.301 171.731 332.595C173.825 332.595 175.919 332.595 178.013 332.595C178.711 331.182 179.41 329.772 180.108 328.359C181.505 328.359 182.899 328.359 184.296 328.359C186.686 326.463 189.184 318.582 192.673 315.648C193.316 304.948 195.515 297.421 190.579 288.108C189.882 288.108 189.182 288.108 188.485 288.108C188.485 286.695 188.485 285.284 188.485 283.871C183.599 280.342 178.711 276.808 173.825 273.279ZM261.785 279.634C254.377 280.24 251.556 282.49 245.03 283.871C243.395 286.905 239.229 292.368 236.653 294.463C236.53 303.624 237.516 311.214 238.747 317.766C241.746 319.421 247.148 323.634 249.219 326.24C258.274 326.365 265.778 325.367 272.256 324.122C275.385 318.8 285.161 310.67 282.727 300.819C282.03 300.819 281.33 300.819 280.633 300.819C279.936 297.289 279.236 293.756 278.539 290.227C276.444 288.814 274.35 287.403 272.256 285.99C272.256 285.284 272.256 284.577 272.256 283.871C268.765 283.166 265.274 282.458 261.785 281.753C261.785 281.047 261.785 280.34 261.785 279.634ZM347.65 288.108C343.461 288.814 339.273 289.521 335.084 290.227C330.393 298.385 328.72 296.883 328.801 311.411C330.896 312.824 332.99 314.235 335.084 315.648C335.084 316.353 335.084 317.061 335.084 317.766C336.481 317.766 337.876 317.766 339.273 317.766C339.273 318.472 339.273 319.179 339.273 319.885C349.313 323.151 362.176 309.477 358.121 298.7C356.391 294.103 350.636 291.601 347.65 288.108ZM138.222 353.78C117.772 353.401 110.745 354.14 100.525 364.372C99.1284 365.078 97.7336 365.785 96.3367 366.491C96.3367 367.904 96.3367 369.314 96.3367 370.727C95.6393 370.727 94.9398 370.727 94.2424 370.727C92.2466 373.331 92.6759 374.816 90.0539 377.083C89.3565 384.849 88.657 392.619 87.9596 400.386C88.657 400.386 89.3565 400.386 90.0539 400.386C90.0539 402.504 90.0539 404.622 90.0539 406.741C90.7513 406.741 91.4507 406.741 92.1481 406.741C92.1481 408.154 92.1481 409.565 92.1481 410.978C96.3367 415.92 100.525 420.865 104.714 425.807C107.505 426.512 110.299 427.22 113.091 427.925C113.091 428.631 113.091 429.338 113.091 430.044C130.496 437.573 155.86 426.44 159.165 413.096C165.999 407.146 165.691 394.467 165.448 381.32C161.957 375.672 158.468 370.02 154.976 364.372C149.393 360.843 143.806 357.309 138.222 353.78ZM228.276 368.609C226.94 373.452 226.444 373.704 224.088 377.083C223.39 377.083 222.691 377.083 221.993 377.083C221.993 379.201 221.993 381.32 221.993 383.438C221.296 383.438 220.596 383.438 219.899 383.438C216.477 394.151 222.64 403.801 224.088 410.978C232.09 415.876 241.778 429.751 259.69 423.688C259.69 422.983 259.69 422.275 259.69 421.57C261.784 421.57 263.879 421.57 265.973 421.57C265.973 420.865 265.973 420.157 265.973 419.452C269.318 417.07 269.561 416.564 274.35 415.215C275.048 413.096 275.747 410.978 276.444 408.859C277.142 408.859 277.841 408.859 278.539 408.859C278.539 407.446 278.539 406.035 278.539 404.622C279.236 404.622 279.936 404.622 280.633 404.622C282.711 398.852 280.826 383.879 278.539 381.32C275.659 369.317 268.013 369.668 261.785 362.254C254.107 362.254 246.425 362.254 238.747 362.254C238.747 362.959 238.747 363.667 238.747 364.372C237.351 364.372 235.956 364.372 234.559 364.372C234.559 365.078 234.559 365.785 234.559 366.491C232.465 367.196 230.37 367.904 228.276 368.609ZM328.801 374.964C328.801 376.377 328.801 377.788 328.801 379.201C327.404 379.907 326.01 380.614 324.613 381.32C324.613 384.143 324.613 386.97 324.613 389.793C323.915 389.793 323.216 389.793 322.519 389.793C321.084 396.142 325.608 401.256 326.707 406.741C329.706 408.395 335.107 412.609 337.178 415.215C346.234 415.34 353.738 414.342 360.215 413.096C361.851 410.063 366.017 404.599 368.593 402.504C368.716 393.344 367.73 385.754 366.498 379.201C357.807 374.149 355.581 369.302 341.367 368.609C341.367 369.314 341.367 370.022 341.367 370.727C339.273 370.727 337.178 370.727 335.084 370.727C335.084 371.433 335.084 372.14 335.084 372.846C332.99 373.551 330.896 374.259 328.801 374.964ZM435.609 377.083C426.397 376.939 422.338 377.934 418.855 383.438C408.809 392.492 422.614 413.692 435.609 408.859C435.609 408.154 435.609 407.446 435.609 406.741C437.006 406.741 438.401 406.741 439.798 406.741C442.198 405.112 448.577 394.189 446.081 387.675C445.383 387.675 444.684 387.675 443.987 387.675C443.987 386.262 443.987 384.851 443.987 383.438C443.289 383.438 442.59 383.438 441.892 383.438C441.195 382.025 440.495 380.614 439.798 379.201C438.401 379.201 437.006 379.201 435.609 379.201C435.609 378.496 435.609 377.788 435.609 377.083ZM242.936 510.545C244.251 505.785 244.699 505.312 247.125 502.071C247.822 502.071 248.521 502.071 249.219 502.071C249.916 498.542 250.616 495.008 251.313 491.479C252.01 491.479 252.71 491.479 253.407 491.479C257.807 477.467 249.081 466.506 247.125 457.584C244.333 455.465 241.539 453.347 238.747 451.228C238.747 450.523 238.747 449.815 238.747 449.11C237.351 449.11 235.956 449.11 234.559 449.11C234.559 448.404 234.559 447.697 234.559 446.991C230.372 444.564 229.443 446.625 226.182 442.754C204.774 442.024 186.179 445.667 182.202 461.82C175.662 467.364 173.532 485.479 178.013 495.716C184.782 511.174 199.038 521.69 221.993 521.137C221.993 520.431 221.993 519.724 221.993 519.018C224.088 519.018 226.182 519.018 228.276 519.018C233.344 516.527 236.461 512.193 242.936 510.545ZM341.367 449.11C331.805 449.836 326.353 453.616 318.33 455.465C316.933 457.584 315.538 459.702 314.141 461.82C313.444 461.82 312.745 461.82 312.047 461.82C307.408 469 307.792 479.499 307.859 491.479C314.409 497.429 314.351 505.704 324.613 508.426C329.162 513.163 338.175 512.864 347.65 512.663C350.888 508.844 356.712 507.733 360.215 504.189C363.719 500.645 364.823 494.762 368.593 491.479C368.854 477.681 367.353 463.282 360.215 457.584C358.819 457.584 357.424 457.584 356.027 457.584C356.027 456.878 356.027 456.171 356.027 455.465C353.48 453.436 351.987 453.878 349.744 451.228C346.952 451.228 344.159 451.228 341.367 451.228C341.367 450.523 341.367 449.815 341.367 449.11ZM439.798 457.584C426.943 457.173 417.121 460.295 414.667 470.294C410.891 473.982 410.489 479.603 410.478 487.242C416.713 492.919 414.849 499.33 425.138 502.071C431.798 508.49 444.456 501.387 450.269 499.952C450.967 497.834 451.666 495.716 452.364 493.597C453.061 493.597 453.761 493.597 454.458 493.597C454.458 492.184 454.458 490.773 454.458 489.36C455.155 489.36 455.855 489.36 456.552 489.36C460.324 478.531 452.521 464.871 448.175 461.82C444.707 459.386 443.442 461.727 439.798 457.584ZM523.569 466.057C519.38 466.057 515.192 466.057 511.003 466.057C509.606 468.176 508.212 470.294 506.815 472.413C506.117 472.413 505.418 472.413 504.721 472.413C504.721 473.826 504.721 475.237 504.721 476.65C504.023 476.65 503.324 476.65 502.626 476.65C498.886 488.331 512.719 497.133 521.475 497.834C526.181 492.536 529.508 495.8 531.946 487.242C540.34 478.221 527.046 470.114 523.569 466.057ZM314.141 531.729C306.464 531.729 298.782 531.729 291.104 531.729C291.104 532.435 291.104 533.142 291.104 533.848C287.613 534.553 284.124 535.26 280.633 535.966C277.841 539.495 275.048 543.027 272.256 546.558C271.559 546.558 270.859 546.558 270.162 546.558C268.765 550.795 267.37 555.032 265.973 559.269C265.276 559.269 264.576 559.269 263.879 559.269C260.166 569.806 266.995 588.603 270.162 593.164C272.953 595.282 275.747 597.401 278.539 599.519C279.236 600.932 279.936 602.343 280.633 603.756C284.156 606.203 285.366 603.82 289.01 607.993C300.793 608.107 311.199 606.802 320.424 605.875C323.714 600.634 331.892 597.81 335.084 593.164C337.503 589.643 335.07 588.319 339.273 584.69C340.008 574.93 342.069 571.751 339.273 563.506C339.273 560.682 339.273 557.856 339.273 555.032C338.575 555.032 337.876 555.032 337.178 555.032C335.97 550.064 330.167 540.468 326.707 538.084C325.31 538.084 323.915 538.084 322.519 538.084C322.519 537.379 322.519 536.671 322.519 535.966C318.255 533.513 317.836 535.941 314.141 531.729ZM429.327 538.084C419.764 538.811 414.313 542.59 406.29 544.44C404.893 546.558 403.498 548.677 402.101 550.795C401.404 550.795 400.704 550.795 400.007 550.795C395.368 557.974 395.751 568.473 395.818 580.453C402.369 586.404 402.31 594.679 412.572 597.401C421.923 607.387 436.686 597.577 446.081 595.282C447.455 592.755 449.469 592.274 450.269 591.045C450.269 589.632 450.269 588.222 450.269 586.809C451.666 586.103 453.061 585.396 454.458 584.69C455.155 576.924 455.855 569.153 456.552 561.387C452.366 557.739 454.785 556.462 452.364 552.913C447.478 548.677 442.59 544.44 437.704 540.203C434.912 540.203 432.118 540.203 429.327 540.203C429.327 539.497 429.327 538.79 429.327 538.084ZM527.758 546.558C517.169 546.497 514.369 549.066 506.815 550.795C501.92 559.826 498.565 561.207 498.438 576.216C499.135 576.216 499.835 576.216 500.532 576.216C500.532 577.629 500.532 579.04 500.532 580.453C501.229 580.453 501.929 580.453 502.626 580.453C502.626 581.866 502.626 583.277 502.626 584.69C506.67 590.38 517.276 593.174 527.758 593.164C527.758 592.458 527.758 591.751 527.758 591.045C529.852 591.045 531.946 591.045 534.04 591.045C536.135 588.222 538.229 585.396 540.323 582.572C544.497 578.564 540.384 581.483 542.418 576.216C546.499 565.65 542.874 558.949 536.135 552.913C536.135 552.208 536.135 551.5 536.135 550.795C534.738 550.795 533.343 550.795 531.946 550.795C531.946 550.09 531.946 549.382 531.946 548.677C530.549 548.677 529.154 548.677 527.758 548.677C527.758 547.971 527.758 547.264 527.758 546.558ZM611.529 555.032C607.34 555.032 603.152 555.032 598.963 555.032C594.24 563.22 590.866 562.182 590.586 576.216C599.901 581.841 596.873 584.768 613.623 584.69C615.02 582.572 616.415 580.453 617.811 578.335C618.509 578.335 619.208 578.335 619.906 578.335C619.906 576.216 619.906 574.098 619.906 571.979C620.603 571.979 621.303 571.979 622 571.979C620.603 567.743 619.208 563.506 617.811 559.269C615.129 558.019 613.328 557.18 611.529 555.032Z" fill="black"/>
</svg>
