<svg width="96" height="14" viewBox="0 0 96 14" fill="none" xmlns="http://www.w3.org/2000/svg">
<g clip-path="url(#clip0_121_651)">
<path d="M9.87786 11.0833L6.48274 5.96457L9.8486 0.81665H7.37543L5.12177 4.31665L2.89737 0.81665H0.336397L3.70225 5.92082L0.307129 11.0833H2.80957L5.06322 7.56873L7.33152 11.0833H9.87786Z" fill="white"/>
<path d="M14.6 3C12.6244 3 11.4976 4.07917 11.2927 5.37708H13.2829C13.4 4.98333 13.7805 4.64792 14.5122 4.64792C15.2293 4.64792 15.7561 5.0125 15.7561 5.7125V6.0625H14.1024C12.1707 6.0625 11 6.95208 11 8.49792C11 10.0146 12.1707 10.8896 13.6341 10.8896C14.6146 10.8896 15.4049 10.5104 15.8732 9.89792V10.7146H17.8488V5.78542C17.8488 3.94792 16.5463 3 14.6 3ZM14.2195 9.24167C13.561 9.24167 13.1366 8.92083 13.1366 8.39583C13.1366 7.85625 13.6049 7.53542 14.2634 7.53542H15.7561V7.87083C15.7561 8.74583 15.039 9.24167 14.2195 9.24167Z" fill="white"/>
<path d="M23.3707 3.675C22.317 3.675 21.4536 4.05417 20.8975 4.82708C21.0438 3.4125 21.6146 2.7125 23.0487 2.49375L25.9316 2.07083V0.21875L22.8438 0.729167C19.8585 1.225 18.9365 3.20833 18.9365 6.51875C18.9365 9.49375 20.3853 11.2583 22.9463 11.2583C25.2438 11.2583 26.6634 9.50833 26.6634 7.40833C26.6634 5.14792 25.3463 3.675 23.3707 3.675ZM22.8438 9.47917C21.7316 9.47917 21.117 8.58958 21.117 7.39375C21.117 6.24167 21.7609 5.41042 22.8585 5.41042C23.9268 5.41042 24.5268 6.27083 24.5268 7.40833C24.5268 8.54583 23.9414 9.47917 22.8438 9.47917Z" fill="white"/>
<path d="M32.3621 3.36877C31.2499 3.36877 30.5328 3.85002 30.1523 4.41877V3.54377H28.1035V13.8688H30.2401V10.3542C30.6206 10.8792 31.3377 11.2584 32.3035 11.2584C34.1621 11.2584 35.6401 9.80002 35.6401 7.32086C35.6401 4.79794 34.1621 3.36877 32.3621 3.36877ZM31.8499 9.42086C30.8547 9.42086 30.1962 8.61877 30.1962 7.35002V7.29169C30.1962 6.02294 30.8547 5.20627 31.8499 5.20627C32.845 5.20627 33.4889 6.03752 33.4889 7.32086C33.4889 8.60419 32.845 9.42086 31.8499 9.42086Z" fill="white"/>
<path d="M48.3138 11.0833L43.3382 5.73123L48.226 0.81665H46.5431L41.9626 5.39582V0.81665H40.6602V11.0833H41.9626V6.18332L46.587 11.0833H48.3138Z" fill="white"/>
<path d="M52.2532 3.57288C50.5703 3.57288 49.5459 4.52079 49.3117 5.65829H50.5264C50.7313 5.11871 51.2581 4.68121 52.2239 4.68121C53.1752 4.68121 53.8922 5.19163 53.8922 6.21246V6.70829H51.9313C50.1313 6.70829 49.0337 7.56871 49.0337 8.98329C49.0337 10.3833 50.1459 11.2437 51.58 11.2437C52.5166 11.2437 53.3947 10.8937 53.9508 10.2083V11.0833H55.1361V6.21246C55.1361 4.56454 53.98 3.57288 52.2532 3.57288ZM51.741 10.15C50.9215 10.15 50.3069 9.74163 50.3069 8.96871C50.3069 8.18121 50.9947 7.77288 52.0044 7.77288H53.8922V8.31246C53.8922 9.43538 52.9117 10.15 51.741 10.15Z" fill="white"/>
<path d="M60.8908 3.57288C59.6176 3.57288 58.842 4.15621 58.4764 4.78329V3.73329H57.2617V13.8687H58.5203V10.1791C58.8713 10.7187 59.6615 11.2437 60.8469 11.2437C62.5445 11.2437 64.2128 10.0041 64.2128 7.40829C64.2128 4.82704 62.5591 3.57288 60.8908 3.57288ZM60.7298 10.1062C59.3689 10.1062 58.4764 9.07079 58.4764 7.43746V7.37913C58.4764 5.74579 59.3689 4.71038 60.7298 4.71038C62.0469 4.71038 62.925 5.80413 62.925 7.40829C62.925 9.01246 62.0469 10.1062 60.7298 10.1062Z" fill="white"/>
<path d="M68.877 6.11036H67.2234V3.73328H65.9648V11.0833H68.8624C70.4429 11.0833 71.4673 10.0041 71.4673 8.57494C71.4673 7.14578 70.4429 6.11036 68.877 6.11036ZM68.7161 9.97494H67.2234V7.21869H68.7161C69.6819 7.21869 70.2087 7.78744 70.2087 8.57494C70.2087 9.36244 69.6819 9.97494 68.7161 9.97494Z" fill="white"/>
<path d="M79.4026 7.78746V7.14579C79.4026 4.95829 78.1441 3.57288 76.1831 3.57288C74.1636 3.57288 72.7148 5.03121 72.7148 7.40829C72.7148 9.77079 74.149 11.2437 76.2856 11.2437C78.2026 11.2437 79.1246 10.0479 79.3148 9.18746H78.0417C77.91 9.56663 77.3246 10.1208 76.3002 10.1208C74.9392 10.1208 74.0319 9.12913 74.0319 7.81663V7.78746H79.4026ZM76.1539 4.69579C77.3392 4.69579 78.0709 5.45413 78.1295 6.72288H74.0466C74.149 5.51246 74.9246 4.69579 76.1539 4.69579Z" fill="white"/>
<path d="M84.786 3.57288C83.5128 3.57288 82.7372 4.15621 82.3714 4.78329V3.73329H81.1567V13.8687H82.4153V10.1791C82.7665 10.7187 83.5567 11.2437 84.7421 11.2437C86.4397 11.2437 88.108 10.0041 88.108 7.40829C88.108 4.82704 86.4543 3.57288 84.786 3.57288ZM84.625 10.1062C83.264 10.1062 82.3714 9.07079 82.3714 7.43746V7.37913C82.3714 5.74579 83.264 4.71038 84.625 4.71038C85.9421 4.71038 86.8201 5.80413 86.8201 7.40829C86.8201 9.01246 85.9421 10.1062 84.625 10.1062Z" fill="white"/>
<path d="M92.6258 3.57288C90.9428 3.57288 89.9184 4.52079 89.6843 5.65829H90.8989C91.1038 5.11871 91.6306 4.68121 92.5965 4.68121C93.5477 4.68121 94.2648 5.19163 94.2648 6.21246V6.70829H92.3038C90.5038 6.70829 89.4062 7.56871 89.4062 8.98329C89.4062 10.3833 90.5184 11.2437 91.9526 11.2437C92.8892 11.2437 93.7672 10.8937 94.3233 10.2083V11.0833H95.5087V6.21246C95.5087 4.56454 94.3526 3.57288 92.6258 3.57288ZM92.1136 10.15C91.2941 10.15 90.6794 9.74163 90.6794 8.96871C90.6794 8.18121 91.3672 7.77288 92.377 7.77288H94.2648V8.31246C94.2648 9.43538 93.2843 10.15 92.1136 10.15Z" fill="white"/>
</g>
<defs>
<clipPath id="clip0_121_651">
<rect width="96" height="14" fill="white"/>
</clipPath>
</defs>
</svg>
