<svg width="17" height="12" viewBox="0 0 17 12" fill="none" xmlns="http://www.w3.org/2000/svg">
<path fill-rule="evenodd" clip-rule="evenodd" d="M6.0962 7.0672L8.5017 8.6152L10.8205 7.1096L16.0182 11.936C15.8814 11.9776 15.7352 12 15.5831 12H1.41695C1.22995 12 1.05145 11.9656 0.887401 11.904L6.0962 7.0672ZM17 3.1008V10.6664C17 10.864 16.9541 11.0512 16.8725 11.22L11.7776 6.4888L17 3.1008ZM8.02062e-07 3.1432L5.1357 6.4488L0.0901008 11.1352C0.0303422 10.9853 -0.000180398 10.8265 8.02062e-07 10.6664V3.1432ZM15.5831 0C16.3651 0 17 0.5968 17 1.3336V1.8024L8.4983 7.3184L8.02062e-07 1.848V1.3336C8.02062e-07 0.5976 0.634101 0 1.41695 0H15.5831Z" fill="#4091DB"/>
</svg>
