<svg width="29" height="30" viewBox="0 0 29 30" fill="none" xmlns="http://www.w3.org/2000/svg">
<path fill-rule="evenodd" clip-rule="evenodd" d="M-6.49048e-07 15.1515C-6.66709e-07 14.7475 -6.8437e-07 14.3434 -7.02031e-07 13.9394C0.033647 13.9394 0.0673957 13.9394 0.101043 13.9394C0.134691 13.8047 0.16844 13.67 0.202088 13.5354C0.235735 13.5354 0.269484 13.5354 0.303132 13.5354C0.471471 13.3333 0.640013 13.1313 0.808352 12.9293C0.875749 12.9293 0.943044 12.9293 1.01044 12.9293C1.15281 12.7803 1.9358 12.6001 2.32401 12.7273C2.32401 12.7609 2.32401 12.7946 2.32401 12.8283C2.49245 12.8619 2.6609 12.8957 2.82923 12.9293C2.99768 13.1313 3.16612 13.3333 3.33446 13.5354C3.3681 13.5354 3.40185 13.5354 3.4355 13.5354C3.66618 13.8891 3.64001 14.5622 3.63759 15.1515C3.43873 15.3319 3.55291 15.3501 3.4355 15.5556C3.40185 15.5556 3.3681 15.5556 3.33446 15.5556C3.33446 15.6229 3.33446 15.6902 3.33446 15.7576C3.23341 15.8249 3.13237 15.8922 3.03132 15.9596C3.03132 15.9932 3.03132 16.027 3.03132 16.0606C2.96393 16.0606 2.89663 16.0606 2.82923 16.0606C2.79559 16.128 2.76184 16.1953 2.72819 16.2626C2.62715 16.2626 2.5261 16.2626 2.42506 16.2626C2.42506 16.2963 2.42506 16.33 2.42506 16.3636C2.15567 16.3973 1.88609 16.431 1.61671 16.4646C1.61671 16.431 1.61671 16.3973 1.61671 16.3636C1.44837 16.3636 1.27982 16.3636 1.11148 16.3636C1.11148 16.33 1.11148 16.2963 1.11148 16.2626C0.869181 16.2034 0.423374 15.9271 0.303132 15.7576C0.303132 15.6902 0.303132 15.6229 0.303132 15.5556C0.235735 15.5219 0.16844 15.4882 0.101043 15.4545C0.101043 15.3535 0.101043 15.2525 0.101043 15.1515C0.0673958 15.1515 0.033647 15.1515 -6.49048e-07 15.1515ZM0.707308 21.6162C0.624452 21.3039 0.390535 21.0914 0.303132 20.8081C0.165409 20.3616 0.441259 20.0132 0.50522 19.697C0.639912 19.596 0.774705 19.4949 0.909397 19.3939C0.909397 19.3603 0.909397 19.3266 0.909397 19.2929C1.07895 19.176 1.14099 19.2949 1.31357 19.0909C1.7225 19.0629 2.05746 18.9365 2.32401 19.1919C2.84176 19.2984 2.90906 19.6268 3.23341 19.899C3.26736 20.3458 3.4256 20.8076 3.13237 21.1111C3.05658 21.4371 2.7484 21.7387 2.42506 21.8182C2.23388 22.0196 2.37302 21.821 2.12193 21.9192C1.46999 22.1741 1.21697 21.7593 0.707308 21.6162ZM0.707309 25.4545C0.740956 25.1515 0.774705 24.8485 0.808353 24.5455C0.943044 24.4444 1.07784 24.3434 1.21253 24.2424C1.4037 24.0447 1.7224 24.0357 2.12193 24.0404C2.31199 24.2552 2.57046 24.2828 2.72819 24.5455C2.93028 24.7363 2.73102 24.5973 2.82924 24.8485C3.01718 25.3293 2.83126 25.428 2.72819 25.8586C2.29744 26.0946 2.23156 26.2565 1.51566 26.2626C1.51566 26.229 1.51566 26.1953 1.51566 26.1616C1.41462 26.1616 1.31357 26.1616 1.21253 26.1616C1.17888 26.0942 1.14513 26.027 1.11149 25.9596C1.07784 25.9596 1.04409 25.9596 1.01044 25.9596C1.01044 25.926 1.01044 25.8922 1.01044 25.8586C0.943044 25.8249 0.875749 25.7912 0.808353 25.7576C0.808353 25.6566 0.808353 25.5556 0.808353 25.4545C0.774705 25.4545 0.740956 25.4545 0.707309 25.4545ZM1.11149 29.596C1.11149 29.3603 1.11149 29.1245 1.11149 28.8889C1.4805 28.6686 1.46423 28.4878 2.12193 28.4848C2.3423 28.8537 2.52317 28.8375 2.5261 29.4949C2.49246 29.4949 2.45871 29.4949 2.42506 29.4949C2.42506 29.5623 2.42506 29.6296 2.42506 29.697C2.35766 29.7306 2.29037 29.7643 2.22297 29.798C2.22297 29.8316 2.22297 29.8654 2.22297 29.899C1.72876 30.1368 1.30155 29.7075 1.11149 29.596ZM4.14281 10.7071C4.14281 10.4714 4.14281 10.2357 4.14281 10C4.21627 9.77586 4.38148 9.57364 4.44594 9.29293C4.61438 9.15828 4.78282 9.02354 4.95116 8.88889C4.95116 8.85525 4.95116 8.82152 4.95116 8.78788C5.12506 8.67222 6.07619 8.35899 6.46682 8.48485C6.69094 8.55707 6.89293 8.72485 7.17413 8.78788C7.27518 8.92253 7.37622 9.05727 7.47726 9.19192C7.51091 9.19192 7.54466 9.19192 7.57831 9.19192C7.87437 9.61737 7.88437 10.1678 7.88144 10.9091C7.68127 11.0883 7.79666 11.1079 7.67935 11.3131C7.6457 11.3131 7.61196 11.3131 7.57831 11.3131C7.57831 11.3805 7.57831 11.4478 7.57831 11.5152C7.47726 11.5825 7.37622 11.6498 7.27518 11.7172C7.27518 11.7508 7.27518 11.7845 7.27518 11.8182C7.20778 11.8182 7.14048 11.8182 7.07309 11.8182C7.03944 11.8856 7.00569 11.9528 6.97204 12.0202C6.64143 12.2227 6.0965 12.2271 5.55743 12.2222C5.55743 12.1886 5.55743 12.1548 5.55743 12.1212C5.45638 12.1212 5.35534 12.1212 5.25429 12.1212C5.01856 11.9528 4.78272 11.7844 4.54698 11.6162C4.54698 11.5488 4.54698 11.4815 4.54698 11.4141C4.47959 11.3805 4.41229 11.3468 4.3449 11.3131C4.31125 11.1111 4.2775 10.9091 4.24385 10.7071C4.2102 10.7071 4.17646 10.7071 4.14281 10.7071ZM4.54698 16.7677C4.53779 16.1698 4.65955 15.8823 4.74907 15.4545C4.88377 15.3535 5.01856 15.2525 5.15325 15.1515C5.15325 15.1179 5.15325 15.0841 5.15325 15.0505C5.31795 14.9424 6.19128 14.7059 6.56787 14.8485C6.56787 14.8821 6.56787 14.9159 6.56787 14.9495C6.70256 14.9831 6.83735 15.0169 6.97204 15.0505C6.97204 15.0841 6.97204 15.1179 6.97204 15.1515C7.07309 15.2189 7.17413 15.2862 7.27518 15.3535C7.49859 15.6875 7.67915 16.5561 7.37622 16.8687C7.30488 17.1636 7.23759 17.1044 7.07309 17.2727C6.59828 17.7586 6.54059 17.8039 5.55743 17.7778C5.40121 17.5957 5.12021 17.5427 4.95116 17.3737C4.78211 17.2047 4.72886 16.9242 4.54698 16.7677ZM4.95116 21.4141C4.9452 20.9774 4.99279 20.6155 5.05221 20.303C5.48831 20.0507 5.53398 19.8151 6.26473 19.798C6.26473 19.8316 6.26473 19.8654 6.26473 19.899C6.43307 19.9326 6.60162 19.9664 6.76996 20C7.03055 20.1812 7.16959 20.7473 7.17413 21.2121C6.87332 21.4828 6.96325 21.7885 6.46682 21.9192C6.30586 22.0692 5.87147 22.0295 5.55743 22.0202C5.40131 21.7733 5.43708 21.9578 5.25429 21.8182C5.14789 21.7369 5.07656 21.5145 4.95116 21.4141ZM5.25429 25.1515C5.28794 24.9832 5.32169 24.8147 5.35534 24.6465C5.68434 24.4551 5.72243 24.2696 6.26473 24.2424C6.62516 24.6621 6.77299 24.3923 6.76996 25.2525C6.39539 25.5693 6.50613 25.7486 5.75951 25.7576C5.75951 25.7239 5.75951 25.6902 5.75951 25.6566C5.69212 25.6566 5.62482 25.6566 5.55743 25.6566C5.52378 25.5892 5.49003 25.5219 5.45638 25.4545C5.42273 25.4545 5.38899 25.4545 5.35534 25.4545C5.35534 25.3535 5.35534 25.2525 5.35534 25.1515C5.32169 25.1515 5.28794 25.1515 5.25429 25.1515ZM8.38666 6.56566C8.38666 6.29636 8.38666 6.02687 8.38666 5.75758C8.46012 5.53343 8.62543 5.33131 8.68979 5.05051C9.09185 4.80283 9.73984 3.9698 10.6096 4.24243C10.6096 4.27606 10.6096 4.3098 10.6096 4.34343C10.7443 4.34343 10.8791 4.34343 11.0138 4.34343C11.0138 4.37707 11.0138 4.41081 11.0138 4.44444C11.5792 4.57242 12.4384 5.61758 12.1253 6.56566C12.0513 6.7896 11.8883 6.99273 11.8222 7.27273C11.6875 7.37374 11.5527 7.47475 11.418 7.57576C11.418 7.60939 11.418 7.64313 11.418 7.67677C10.9781 7.9703 10.444 7.98212 9.70023 7.9798C9.5416 7.79697 9.49885 7.89333 9.29606 7.77778C9.29606 7.74414 9.29606 7.7104 9.29606 7.67677C9.22866 7.67677 9.16137 7.67677 9.09397 7.67677C8.99293 7.54212 8.89188 7.40737 8.79084 7.27273C8.75719 7.27273 8.72344 7.27273 8.68979 7.27273C8.68979 7.20535 8.68979 7.13808 8.68979 7.07071C8.65615 7.07071 8.6224 7.07071 8.58875 7.07071C8.5551 6.90232 8.52135 6.73394 8.48771 6.56566C8.45406 6.56566 8.42031 6.56566 8.38666 6.56566ZM11.418 11.0101C11.4516 11.1111 11.4854 11.2121 11.519 11.3131C11.5527 11.3131 11.5864 11.3131 11.6201 11.3131C11.6201 11.3805 11.6201 11.4478 11.6201 11.5152C11.6537 11.5152 11.6875 11.5152 11.7211 11.5152C11.8214 11.7903 11.7304 12.5042 11.6201 12.6263C11.4811 13.1986 11.1122 13.1818 10.8117 13.5354C10.4646 13.5472 9.88363 13.6029 9.70023 13.4343C8.94352 13.2617 8.76447 12.5878 8.79084 11.6162C8.97302 11.46 9.02597 11.1791 9.19501 11.0101C9.36406 10.8411 9.64466 10.7879 9.80128 10.6061C10.2055 10.6397 10.6096 10.6734 11.0138 10.7071C11.0138 10.7407 11.0138 10.7744 11.0138 10.8081C11.1752 10.9216 11.187 10.9456 11.418 11.0101ZM9.19501 17.1717C9.1839 16.8582 9.14752 16.4231 9.29606 16.2626C9.36729 15.9508 9.49299 15.8329 9.80128 15.7576C10.0781 15.4707 10.3705 15.6246 10.8117 15.6566C11.0861 16.1197 11.3817 16.0926 11.418 16.8687C11.3843 16.8687 11.3506 16.8687 11.3169 16.8687C11.2833 17.037 11.2495 17.2054 11.2159 17.3737C11.0712 17.4526 10.8106 17.6535 10.7107 17.7778C10.2738 17.7837 9.91172 17.7362 9.59919 17.6768C9.52028 17.5321 9.3193 17.2716 9.19501 17.1717ZM9.49815 21.0101C9.5318 20.8081 9.56554 20.6061 9.59919 20.404C10.1745 20.0522 10.0366 19.8789 10.8117 20.202C11.1061 20.7905 11.1156 21.122 10.5086 21.4141C10.5086 21.4478 10.5086 21.4815 10.5086 21.5152C10.3401 21.5152 10.1718 21.5152 10.0034 21.5152C9.7842 21.4316 9.66457 21.1543 9.49815 21.0101ZM12.6305 2.32323C12.6305 2.05394 12.6305 1.78444 12.6305 1.51515C12.704 1.29101 12.8693 1.08889 12.9336 0.808082C13.1798 0.670909 13.2675 0.421718 13.4389 0.303031C13.6075 0.186162 13.6705 0.304748 13.843 0.101011C14.1124 0.0673746 14.382 0.0336374 14.6514 1.26692e-06C14.9545 0.101011 15.2577 0.20202 15.5608 0.303031C15.6955 0.471414 15.8303 0.639697 15.965 0.808082C15.9986 0.808082 16.0324 0.808082 16.066 0.808082C16.1817 0.98192 16.495 1.93273 16.3691 2.32323C16.2969 2.54727 16.1291 2.74919 16.066 3.0303C15.9313 3.13131 15.7965 3.23232 15.6618 3.33333C15.6618 3.36697 15.6618 3.40071 15.6618 3.43434C15.5944 3.43434 15.5271 3.43434 15.4597 3.43434C15.4261 3.50172 15.3924 3.56899 15.3587 3.63636C14.9164 3.86687 14.0949 3.68162 13.641 3.63636C13.4842 3.38889 13.525 3.57434 13.3378 3.43434C13.2368 3.2997 13.1357 3.16495 13.0347 3.0303C13.001 3.0303 12.9673 3.0303 12.9336 3.0303C12.9336 2.96293 12.9336 2.89566 12.9336 2.82828C12.9 2.82828 12.8663 2.82828 12.8326 2.82828C12.799 2.66 12.7652 2.49152 12.7316 2.32323C12.6979 2.32323 12.6642 2.32323 12.6305 2.32323ZM13.0347 8.38384C13.0015 7.45616 13.1403 6.73939 13.843 6.56566C14.0488 6.35353 14.4234 6.35576 14.8535 6.36364C14.8535 6.39727 14.8535 6.43101 14.8535 6.46465C14.9545 6.46465 15.0556 6.46465 15.1566 6.46465C15.1903 6.53202 15.224 6.59929 15.2577 6.66667C15.541 6.85677 15.6621 6.78677 15.7629 7.17172C16.0081 7.38242 15.9774 7.81444 15.965 8.28283C15.9313 8.28283 15.8976 8.28283 15.8639 8.28283C15.8639 8.38384 15.8639 8.48485 15.8639 8.58586C15.7965 8.6195 15.7292 8.65323 15.6618 8.68687C15.6618 8.75424 15.6618 8.82152 15.6618 8.88889C15.5714 9.00414 15.1955 9.12465 15.0556 9.29293C14.5452 9.32394 14.1862 9.43 13.742 9.19192C13.742 9.15828 13.742 9.12455 13.742 9.09091C13.6746 9.09091 13.6073 9.09091 13.5399 9.09091C13.3716 8.85525 13.203 8.61949 13.0347 8.38384ZM13.3378 12.6263C13.3667 12.269 13.474 12.1329 13.5399 11.8182C13.6846 11.7393 13.9452 11.5384 14.0451 11.4141C14.482 11.4082 14.8441 11.4558 15.1566 11.5152C15.2355 11.6598 15.4365 11.9203 15.5608 12.0202C15.5668 12.457 15.5192 12.8189 15.4597 13.1313C15.2059 13.2822 14.8181 13.7537 14.3483 13.6364C14.3483 13.6027 14.3483 13.569 14.3483 13.5354C14.1799 13.5017 14.0114 13.468 13.843 13.4343C13.7756 13.3333 13.7084 13.2323 13.641 13.1313C13.6073 13.1313 13.5736 13.1313 13.5399 13.1313C13.5063 12.9629 13.4725 12.7945 13.4389 12.6263C13.4052 12.6263 13.3715 12.6263 13.3378 12.6263ZM13.742 16.7677C13.7756 16.5657 13.8094 16.3636 13.843 16.1616C14.2322 15.9354 14.1605 15.8546 14.8535 15.8586C14.9209 15.9596 14.9882 16.0606 15.0556 16.1616C15.0892 16.1616 15.123 16.1616 15.1566 16.1616C15.1566 16.229 15.1566 16.2963 15.1566 16.3636C15.1903 16.3636 15.224 16.3636 15.2577 16.3636C15.4135 16.8479 14.7612 17.4683 14.2472 17.2727C14.028 17.1893 13.9086 16.9117 13.742 16.7677ZM16.8744 6.66667C16.8563 5.6803 16.8915 5.34141 17.3796 4.84848C17.4132 4.78111 17.447 4.71384 17.4806 4.64646C17.548 4.64646 17.6153 4.64646 17.6827 4.64646C17.6827 4.61283 17.6827 4.57909 17.6827 4.54546C17.8069 4.44919 17.8777 4.4699 17.9859 4.34343C18.3563 4.3098 18.7269 4.27606 19.0973 4.24243C19.0973 4.27606 19.0973 4.3098 19.0973 4.34343C19.1984 4.34343 19.2994 4.34343 19.4005 4.34343C19.4005 4.37707 19.4005 4.41081 19.4005 4.44444C19.4679 4.44444 19.5352 4.44444 19.6026 4.44444C19.8383 4.64646 20.0741 4.84849 20.3099 5.05051C20.3435 5.18515 20.3773 5.3199 20.4109 5.45455C20.4446 5.45455 20.4783 5.45455 20.512 5.45455C20.8711 6.29404 20.3401 7.51738 19.7036 7.67677C19.4198 8.00636 18.815 7.99152 18.1879 7.9798C17.9186 7.81141 17.649 7.64313 17.3796 7.47475C17.2112 7.20546 17.0427 6.93596 16.8744 6.66667ZM17.5817 11.0101C17.8127 10.9457 17.8247 10.9217 17.9859 10.8081C17.9859 10.7744 17.9859 10.7407 17.9859 10.7071C18.0869 10.7071 18.1879 10.7071 18.289 10.7071C18.289 10.6734 18.289 10.6397 18.289 10.6061C18.8 10.441 19.2602 10.7383 19.6026 10.8081C19.8362 11.194 20.498 11.6613 20.2088 12.5253C20.1752 12.5253 20.1414 12.5253 20.1078 12.5253C20.1078 12.6263 20.1078 12.7273 20.1078 12.8283C20.0741 12.8283 20.0404 12.8283 20.0067 12.8283C19.8932 12.9896 19.869 13.0013 19.8046 13.2323C19.7036 13.266 19.6026 13.2997 19.5015 13.3333C19.5015 13.367 19.5015 13.4007 19.5015 13.4343C19.4341 13.4343 19.3668 13.4343 19.2994 13.4343C19.2994 13.468 19.2994 13.5017 19.2994 13.5354C19.0242 13.6356 18.31 13.5446 18.1879 13.4343C17.6154 13.2955 17.6322 12.9267 17.2785 12.6263C17.2785 12.256 17.2785 11.8855 17.2785 11.5152C17.3122 11.5152 17.3459 11.5152 17.3796 11.5152C17.3796 11.4478 17.3796 11.3805 17.3796 11.3131C17.4132 11.3131 17.447 11.3131 17.4806 11.3131C17.5143 11.2121 17.548 11.1111 17.5817 11.0101ZM17.8848 15.8586C17.9522 15.8586 18.0195 15.8586 18.0869 15.8586C18.1205 15.7912 18.1543 15.7239 18.1879 15.6566C18.3226 15.6566 18.4574 15.6566 18.5921 15.6566C18.5921 15.6229 18.5921 15.5892 18.5921 15.5556C18.8949 15.4864 19.1389 15.7045 19.4005 15.7576C19.4794 15.9022 19.6804 16.1627 19.8046 16.2626C19.8106 16.6994 19.763 17.0613 19.7036 17.3737C19.5589 17.4526 19.2983 17.6535 19.1984 17.7778C18.7615 17.7837 18.3994 17.7362 18.0869 17.6768C17.8459 17.2576 17.6147 17.1502 17.5817 16.4646C17.6153 16.4646 17.6491 16.4646 17.6827 16.4646C17.6827 16.3636 17.6827 16.2626 17.6827 16.1616C17.7164 16.1616 17.7501 16.1616 17.7838 16.1616C17.8174 16.0606 17.8512 15.9596 17.8848 15.8586ZM17.9859 21.0101C17.979 20.5658 18.0265 20.37 18.289 20.202C18.7208 19.7175 19.732 20.3833 19.5015 21.0101C19.4679 21.0101 19.4341 21.0101 19.4005 21.0101C19.4005 21.0775 19.4005 21.1447 19.4005 21.2121C19.3228 21.3279 18.8018 21.6356 18.4911 21.5152C18.4911 21.4815 18.4911 21.4478 18.4911 21.4141C18.4237 21.4141 18.3564 21.4141 18.289 21.4141C18.289 21.3805 18.289 21.3468 18.289 21.3131C18.2216 21.2795 18.1543 21.2458 18.0869 21.2121C18.0869 21.1447 18.0869 21.0775 18.0869 21.0101C18.0533 21.0101 18.0195 21.0101 17.9859 21.0101ZM24.3516 11.7172C24.1246 11.7806 24.1021 11.8022 23.9475 11.9192C23.9475 11.9528 23.9475 11.9866 23.9475 12.0202C23.7791 12.0538 23.6106 12.0876 23.4422 12.1212C23.4422 12.1548 23.4422 12.1886 23.4422 12.2222C22.7739 12.4344 22.2511 12.0135 21.8255 11.9192C21.7245 11.7845 21.6234 11.6498 21.5224 11.5152C21.4887 11.5152 21.455 11.5152 21.4214 11.5152C21.4214 11.4478 21.4214 11.3805 21.4214 11.3131C21.3877 11.3131 21.354 11.3131 21.3203 11.3131C21.2045 11.1112 21.3028 11.0664 21.1182 10.9091C21.0834 9.87657 21.2572 8.9797 22.0276 8.78788C22.2921 8.47242 23.1561 8.3697 23.6443 8.58586C24.3816 8.91232 24.8832 9.5999 24.8569 10.7071C24.8232 10.7071 24.7895 10.7071 24.7558 10.7071C24.7558 10.8081 24.7558 10.9091 24.7558 11.0101C24.637 11.2545 24.4302 11.4048 24.3516 11.7172ZM21.4214 16.4646C21.456 16.0034 21.6363 15.7405 21.7245 15.3535C21.8255 15.2862 21.9266 15.2189 22.0276 15.1515C22.0276 15.1179 22.0276 15.0841 22.0276 15.0505C22.3701 14.8268 22.8708 14.8453 23.4422 14.8485C23.7261 15.1644 24.1207 15.1616 24.2506 15.6566C24.4765 15.876 24.4623 16.3107 24.4527 16.7677C24.2705 16.9238 24.2175 17.2047 24.0485 17.3737C23.8795 17.5427 23.5989 17.596 23.4422 17.7778C22.7841 17.7904 22.0973 17.718 21.8255 17.3737C21.8255 17.3064 21.8255 17.2391 21.8255 17.1717C21.7919 17.1717 21.7581 17.1717 21.7245 17.1717C21.6277 17.0489 21.6488 16.9769 21.5224 16.8687C21.5224 16.734 21.5224 16.5993 21.5224 16.4646C21.4887 16.4646 21.455 16.4646 21.4214 16.4646ZM21.8255 21.2121C21.8059 20.5921 21.9549 20.1184 22.4318 20C22.6077 19.8179 22.8758 19.7985 23.2402 19.798C23.5109 20.0987 23.8167 20.0088 23.9475 20.505C24.2536 20.8263 23.9148 21.4368 23.8464 21.7172C23.7454 21.7508 23.6443 21.7845 23.5433 21.8182C23.5433 21.8518 23.5433 21.8856 23.5433 21.9192C23.4759 21.9192 23.4086 21.9192 23.3412 21.9192C23.3412 21.9528 23.3412 21.9866 23.3412 22.0202C22.8247 22.2021 22.1731 21.8258 22.0276 21.6162C21.9115 21.4489 22.0232 21.3879 21.8255 21.2121ZM22.2297 25.2525C22.2297 25.0505 22.2297 24.8485 22.2297 24.6465C22.3308 24.5791 22.4318 24.5118 22.5328 24.4444C22.5328 24.4108 22.5328 24.3771 22.5328 24.3434C22.6002 24.3434 22.6675 24.3434 22.7349 24.3434C22.7349 24.3098 22.7349 24.2761 22.7349 24.2424C23.2921 24.062 23.7119 24.7292 23.7454 25.1515C23.4927 25.3785 23.6484 25.539 23.2402 25.6566C22.8099 26.0614 22.4232 25.4202 22.2297 25.2525ZM25.3621 15.1515C25.3621 14.7812 25.3621 14.4107 25.3621 14.0404C25.3957 14.0404 25.4295 14.0404 25.4631 14.0404C25.4968 13.872 25.5305 13.7037 25.5642 13.5354C25.7325 13.4007 25.9009 13.266 26.0694 13.1313C26.0694 13.0977 26.0694 13.0639 26.0694 13.0303C26.2715 12.9629 26.4736 12.8957 26.6757 12.8283C26.6757 12.7946 26.6757 12.7609 26.6757 12.7273C27.1782 12.5482 28.0748 12.8776 28.2924 13.0303C28.3934 13.1649 28.4944 13.2997 28.5955 13.4343C28.6629 13.468 28.7302 13.5017 28.7976 13.5354C28.9143 13.7053 28.8006 13.7636 28.9997 13.9394C29.0051 14.5077 28.9429 15.0096 28.8986 15.4545C28.6486 15.6132 28.5139 16.0077 28.2924 16.1616C28.1244 16.2783 28.0613 16.1609 27.8882 16.3636C27.4227 16.3991 27.271 16.4985 26.8777 16.3636C26.743 16.3636 26.6083 16.3636 26.4736 16.3636C26.4736 16.33 26.4736 16.2963 26.4736 16.2626C26.2366 16.2043 25.7789 15.9244 25.6652 15.7576C25.6652 15.6902 25.6652 15.6229 25.6652 15.5556C25.6316 15.5556 25.5978 15.5556 25.5642 15.5556C25.4472 15.3499 25.563 15.3297 25.3621 15.1515ZM25.6652 20.7071C25.6999 20.2459 25.8801 19.9829 25.9683 19.596C26.0694 19.5286 26.1704 19.4613 26.2715 19.3939C26.2715 19.3603 26.2715 19.3266 26.2715 19.2929C26.6139 19.0692 27.1147 19.0877 27.6861 19.0909C27.9699 19.4069 28.3646 19.404 28.4944 19.899C28.9708 20.35 28.5028 21.062 28.3934 21.5152C28.2729 21.5814 28.2499 21.6786 28.1913 21.7172C28.1239 21.7172 28.0566 21.7172 27.9892 21.7172C27.9556 21.7845 27.9218 21.8518 27.8882 21.9192C27.5178 21.9528 27.1471 21.9866 26.7767 22.0202C26.6027 21.8183 26.5418 21.9349 26.3725 21.8182C26.1704 21.5825 25.9683 21.3468 25.7663 21.1111C25.7663 20.9765 25.7663 20.8417 25.7663 20.7071C25.7326 20.7071 25.6989 20.7071 25.6652 20.7071ZM26.0694 25.4545C26.0665 24.9438 26.189 24.8088 26.2715 24.4444C26.7022 24.2084 26.7681 24.0466 27.484 24.0404C27.484 24.074 27.484 24.1078 27.484 24.1414C27.5514 24.1414 27.6187 24.1414 27.6861 24.1414C27.6861 24.175 27.6861 24.2088 27.6861 24.2424C27.7535 24.2424 27.8208 24.2424 27.8882 24.2424C28.1596 24.4375 28.2929 24.949 28.2924 25.4545C28.2587 25.4545 28.225 25.4545 28.1913 25.4545C28.1913 25.5556 28.1913 25.6566 28.1913 25.7576C28.0566 25.8586 27.9218 25.9596 27.7871 26.0606C27.596 26.2619 27.7352 26.0635 27.484 26.1616C26.98 26.3585 26.6604 26.1836 26.3725 25.8586C26.3389 25.8586 26.3051 25.8586 26.2715 25.8586C26.2715 25.7912 26.2715 25.7239 26.2715 25.6566C26.2378 25.6566 26.2041 25.6566 26.1704 25.6566C26.1704 25.5892 26.1704 25.5219 26.1704 25.4545C26.1368 25.4545 26.103 25.4545 26.0694 25.4545ZM26.4736 29.4949C26.4736 29.2929 26.4736 29.0909 26.4736 28.8889C26.8641 28.6611 26.8146 28.4984 27.484 28.4848C27.7523 28.9341 27.8919 28.7881 27.8882 29.596C27.7871 29.6633 27.6861 29.7306 27.585 29.798C27.585 29.8316 27.585 29.8654 27.585 29.899C27.484 29.899 27.383 29.899 27.2819 29.899C27.2819 29.9326 27.2819 29.9664 27.2819 30C27.0798 29.9326 26.8777 29.8654 26.6757 29.798C26.616 29.6686 26.576 29.5817 26.4736 29.4949Z" fill="white"/>
</svg>
