<?xml version="1.0" encoding="utf-8"?><svg viewBox="0 0 622 608" xmlns="http://www.w3.org/2000/svg" xmlns:xlink="http://www.w3.org/1999/xlink"><style>:root>svg{display:none}:root>svg:target{display:block}</style><svg fill="none" viewBox="0 0 622 608" id="about-decor-left" xmlns="http://www.w3.org/2000/svg"><path opacity=".02" fill-rule="evenodd" clip-rule="evenodd" d="M307.859 0h25.131v2.118l8.377 2.119v2.118l12.566 10.593v4.236c3.089 2.985 6.825 19.401 4.188 27.54h-2.094c-.697 3.532-1.397 7.063-2.094 10.592L341.367 69.91v2.118c-7.334 4.836-21.29 4.288-33.508 4.237-3.741-4.17-4.118-1.775-8.378-4.237v-2.118h-4.188l-4.189-6.356h-2.094v-4.237c-1.397-.705-2.792-1.413-4.188-2.118v-6.355h-2.095l-2.094-16.948h2.094V23.303h2.095c1.227-5.08 6.957-14.427 10.471-16.948h4.188l2.095-4.237h6.283V0zM173.825 14.83c6.473-1.738 10.88-6.642 16.754-8.475 9.257-2.887 16.48 2.896 23.037 4.237l6.283 8.474h2.094c2.425 3.555-.042 4.855 4.189 8.474.58 8.573 3.202 15.596-2.094 21.184-2.208 10.855-9.016 12.266-14.66 19.066-9.263.712-18.838 4.03-25.132-2.118-6.758-1.59-13.011-8.05-14.66-14.83-4.176-4.008-.058-1.09-2.094-6.355-5.286-13.668 3.315-18.973 6.283-29.658zm-79.583 0c6.283.704 12.566 1.412 18.849 2.118 2.094 2.823 4.188 5.65 6.283 8.473 4.098 4.008 4.287 10.69 4.188 19.066-4.452 3.985-5.026 9.404-10.471 12.71-3.956 4.238-1.074.06-6.283 2.12-9.969 3.94-12.015.042-20.943-2.12-4.894-9.03-8.249-10.411-8.377-25.42h2.094V25.42c1.397-.705 2.792-1.413 4.189-2.118v-2.119h2.094l2.095-4.236h6.282v-2.119zM8.377 23.302h14.66c4.568 7.736 8.316 7.395 8.377 21.184-7.648 4.62-7.311 8.413-20.943 8.474v-2.118H6.283c-.698-1.413-1.397-2.824-2.094-4.237H2.094c-4.93-10.362 3.971-19.318 6.283-23.303zm391.63 63.553h14.66c4.647 1.54 8.84 5.004 14.66 6.356l8.377 10.592h2.094c2.398 3.646 8.892 23.586 6.283 31.776-1.498 4.699-4.976 8.934-6.283 14.829l-8.377 6.356v2.118c-8.821 6.207-20.233 6.417-35.603 6.355-3.715-4.196-4.121-1.777-8.377-4.236v-2.119h-4.188l-4.189-6.355h-2.094v-4.237c-1.397-.705-2.792-1.413-4.189-2.118-4.199-6.932-4.289-18.357-4.188-29.659h2.094v-6.355c3.491-4.942 6.982-9.887 10.471-14.83h4.189c.697-1.412 1.397-2.823 2.094-4.236 4.189-.705 8.377-1.413 12.566-2.118v-2.119zM274.35 95.33c12.396-.193 18.356 2.36 27.226 4.237l6.283 8.474h2.094c2.241 3.453 7.146 21.762 4.188 29.658h-2.094l-2.094 8.474h-2.094l-4.189 6.355c-6.924 4.684-24.932 8.469-31.414 2.118-6.115-1.495-4.888-2.906-8.377-6.355-10.074-9.955-11.014-11.164-10.472-31.777 3.776-3.275 4.874-9.166 8.378-12.71 3.503-3.544 9.319-4.66 12.565-8.474zm-96.337 8.474c9.056-.125 16.56.872 23.038 2.118 5.231 9.143 10.117 10.101 10.471 25.421h-2.094l-2.095 10.593c-3.757 5.463-15.493 8.378-25.131 8.473-5.613-6.306-11.95-4.421-14.66-14.829-3.11-3.374-2.287-12.482-2.094-19.066 5.118-3.273 1.294-2.523 4.188-6.355 1.686-2.231 6.296-3.726 8.377-6.355zm-77.488 6.355l10.472 2.118c3.968 6.898 7.813 7.697 8.377 19.066-8.702 7.557-3.108 10.656-20.943 10.593-6.568-7.853-10.285-5.532-10.471-21.185h2.094v-4.237c1.397-.705 2.791-1.413 4.188-2.118v-2.119h6.283v-2.118zm385.347 65.672h16.754c4.647 1.54 8.838 5.006 14.66 6.355 5.135 8.429 22.407 22.015 16.754 40.25h-2.094v8.474h-2.094c-2.654 11.853-24.323 29.868-43.98 23.303-4.643-1.551-8.855-4.968-14.66-6.355l-6.283-8.474h-2.094c-6.086-9.222-6.331-20.42-6.283-36.014 3.791-3.326 1.793-4.222 4.189-8.473h2.094v-4.237l8.377-6.356v-2.118h4.189v-2.118l10.471-2.119v-2.118zm-92.148 63.553l-6.283 2.118v2.119h-4.188v2.118c-5.705 2.102-20.508.195-23.038-2.118-11.866-2.913-11.518-10.647-18.848-16.948-.245-7.277-1.401-19.458 2.094-23.303 3.579-15.865 17.552-19.618 37.697-19.066 3.238 3.82 9.062 4.93 12.566 8.474 3.504 3.544 4.607 9.427 8.377 12.711-.697 8.474-1.397 16.947-2.094 25.421h-2.095c-2.353 3.383-2.85 3.631-4.188 8.474zm-127.751-46.606c6.501-.233 15.521-.995 18.849 2.119 6.465 1.493 8.909 4.129 10.471 10.592 5.948 5.804 2.756 11.933 2.094 21.184-9.602 5.752-9.041 11.95-25.131 12.711v-2.118l-10.471-2.119c-1.636-3.034-5.802-8.497-8.378-10.592-.123-9.16.863-16.751 2.095-23.303 2.999-1.654 8.4-5.868 10.471-8.474zm-79.582 6.356l12.565 2.118c7.295 12.062 10.888 9.171 4.189 25.421-12.201 6.171-19.075 6.37-25.132-6.355h-2.094v-10.592c1.732-4.595 7.481-7.103 10.472-10.592zm387.441 65.671h16.754c4.647 1.54 8.838 5.006 14.66 6.356 2.844 5.16 8.01 6.999 10.471 10.592 2.423 3.535-.035 4.855 4.189 8.474L622 307.174l-6.283 19.066-10.471 8.474v2.118c-3.604 2.426-23.318 8.995-31.414 6.356-4.645-1.515-8.832-5.034-14.66-6.356l-6.283-8.473h-2.094v-4.237l-4.189-2.119c-4.779-9.272-.938-26.495 0-36.013 5.131-3.286 1.286-2.432 4.189-6.356l8.377-6.355v-2.118h4.188v-2.119l10.472-2.118v-2.119zm-125.657 8.474c19.234-.695 34.095 2.214 37.697 16.948 4.398 4.313 4.352 12.168 4.189 21.184h-2.095v6.355l-4.188 2.119c-3.942 5.94-2.49 8.48-10.472 10.592-4.368 5.141-13.325 4.497-23.037 4.237v-2.119h-6.282l-2.095-4.236h-4.188c-2.39-1.896-4.888-9.777-8.377-12.711-.643-10.7-2.842-18.227 2.094-27.54h2.094v-4.237l14.66-10.592zm-87.96 6.355c7.408.606 10.229 2.856 16.755 4.237 1.635 3.034 5.801 8.497 8.377 10.592.123 9.161-.863 16.751-2.094 23.303-2.999 1.655-8.401 5.868-10.472 8.474-9.055.125-16.559-.873-23.037-2.118-3.129-5.322-12.905-13.452-10.471-23.303h2.094l2.094-10.592 6.283-4.237v-2.119c3.491-.705 6.982-1.413 10.471-2.118v-2.119zm-85.865 8.474l12.566 2.119c4.691 8.158 6.364 6.656 6.283 21.184l-6.283 4.237v2.118h-4.189v2.119c-10.04 3.266-22.903-10.408-18.848-21.185 1.73-4.597 7.485-7.099 10.471-10.592zm209.428 65.672c20.45-.379 27.477.36 37.697 10.592l4.188 2.119v4.236h2.095c1.995 2.604 1.566 4.089 4.188 6.356l2.094 23.303h-2.094v6.355h-2.094v4.237l-12.566 14.829-8.377 2.118v2.119c-17.405 7.529-42.769-3.604-46.074-16.948-6.834-5.95-6.526-18.629-6.283-31.776 3.491-5.648 6.98-11.3 10.472-16.948 5.583-3.529 11.17-7.063 16.754-10.592zm-90.054 14.829c1.336 4.843 1.832 5.095 4.188 8.474h2.095v6.355h2.094c3.422 10.713-2.741 20.363-4.189 27.54-8.002 4.898-17.69 18.773-35.602 12.71v-2.118h-6.283v-2.118c-3.345-2.382-3.588-2.888-8.377-4.237-.698-2.119-1.397-4.237-2.094-6.356h-2.095v-4.237h-2.094c-2.078-5.77-.193-20.743 2.094-23.302 2.88-12.003 10.526-11.652 16.754-19.066h23.038v2.118h4.188v2.119l6.283 2.118zm-100.525 6.355v4.237l4.188 2.119v8.473h2.094c1.435 6.349-3.089 11.463-4.188 16.948-2.999 1.654-8.4 5.868-10.471 8.474-9.056.125-16.56-.873-23.037-2.119-1.636-3.033-5.802-8.497-8.378-10.592-.123-9.16.863-16.75 2.095-23.303 8.691-5.052 10.917-9.899 25.131-10.592v2.118h6.283v2.119c2.094.705 4.188 1.413 6.283 2.118zm-106.808 2.119c9.212-.144 13.271.851 16.754 6.355 10.046 9.054-3.759 30.254-16.754 25.421v-2.118h-4.189c-2.4-1.629-8.779-12.552-6.283-19.066h2.094v-4.237h2.095c.697-1.413 1.397-2.824 2.094-4.237h4.189v-2.118zm192.673 133.462c-1.315-4.76-1.763-5.233-4.189-8.474h-2.094l-2.094-10.592h-2.094c-4.4-14.012 4.326-24.973 6.282-33.895l8.378-6.356v-2.118h4.188v-2.119c4.187-2.427 5.116-.366 8.377-4.237 21.408-.73 40.003 2.913 43.98 19.066 6.54 5.544 8.67 23.659 4.189 33.896-6.769 15.458-21.025 25.974-43.98 25.421v-2.119h-6.283c-5.068-2.491-8.185-6.825-14.66-8.473zm-98.431-61.435c9.562.726 15.014 4.506 23.037 6.355l4.189 6.355h2.094c4.639 7.18 4.255 17.679 4.188 29.659-6.55 5.95-6.492 14.225-16.754 16.947-4.549 4.737-13.562 4.438-23.037 4.237-3.238-3.819-9.062-4.93-12.565-8.474-3.504-3.544-4.608-9.427-8.378-12.71-.261-13.798 1.24-28.197 8.378-33.895h4.188v-2.119c2.547-2.029 4.04-1.587 6.283-4.237h8.377v-2.118zm-98.431 8.474c12.855-.411 22.677 2.711 25.131 12.71 3.776 3.688 4.178 9.309 4.189 16.948-6.235 5.677-4.371 12.088-14.66 14.829-6.66 6.419-19.318-.684-25.131-2.119l-2.095-6.355h-2.094v-4.237h-2.094c-3.772-10.829 4.031-24.489 8.377-27.54 3.468-2.434 4.733-.093 8.377-4.236zm-83.771 8.473h12.566l4.188 6.356h2.094v4.237h2.095c3.74 11.681-10.093 20.483-18.849 21.184-4.706-5.298-8.033-2.034-10.471-10.592-8.394-9.021 4.9-17.128 8.377-21.185zm209.428 65.672h23.037v2.119c3.491.705 6.98 1.412 10.471 2.118l8.377 10.592h2.094l4.189 12.711h2.094c3.713 10.537-3.116 29.334-6.283 33.895l-8.377 6.355c-.697 1.413-1.397 2.824-2.094 4.237-3.523 2.447-4.733.064-8.377 4.237-11.782.114-22.189-1.191-31.414-2.118-3.29-5.241-11.468-8.065-14.66-12.711-2.419-3.521.014-4.845-4.189-8.474-.735-9.76-2.796-12.939 0-21.184v-8.474h2.095c1.208-4.968 7.011-14.564 10.471-16.948h4.188v-2.118c4.264-2.453 4.683-.025 8.378-4.237zm-115.186 6.355c9.563.727 15.014 4.506 23.037 6.356l4.189 6.355h2.094c4.639 7.179 4.256 17.678 4.189 29.658-6.551 5.951-6.492 14.226-16.754 16.948-9.351 9.986-24.114.176-33.509-2.119-1.374-2.527-3.388-3.008-4.188-4.237v-4.236l-4.189-2.119-2.094-23.303c4.186-3.648 1.767-4.925 4.188-8.474l14.66-12.71h8.377v-2.119zm-98.43 8.474c10.588-.061 13.388 2.508 20.942 4.237 4.895 9.031 8.25 10.412 8.377 25.421h-2.094v4.237h-2.094v4.237c-4.044 5.69-14.65 8.484-25.132 8.474v-2.119H87.96c-2.095-2.823-4.189-5.649-6.283-8.473-4.174-4.008-.061-1.089-2.095-6.356-4.081-10.566-.456-17.267 6.283-23.303v-2.118h4.189v-2.118h4.188v-2.119zm-83.772 8.474h12.566c4.723 8.188 8.097 7.15 8.377 21.184-9.315 5.625-6.287 8.553-23.037 8.474-1.397-2.118-2.792-4.237-4.188-6.355H2.094v-6.356H0l4.189-12.71c2.682-1.25 4.483-2.089 6.282-4.237z" fill="#000"/></svg><svg fill="none" viewBox="0 0 622 608" id="about-decor-right" xmlns="http://www.w3.org/2000/svg"><path opacity=".02" fill-rule="evenodd" clip-rule="evenodd" d="M314.141 0H289.01v2.118l-8.377 2.119v2.118l-12.566 10.593v4.236c-3.089 2.985-6.825 19.401-4.188 27.54h2.094c.697 3.532 1.397 7.063 2.094 10.592l12.566 10.593v2.118c7.334 4.836 21.29 4.288 33.508 4.237 3.741-4.17 4.118-1.775 8.378-4.237v-2.118h4.188l4.189-6.356h2.094v-4.237c1.397-.705 2.792-1.413 4.188-2.118v-6.355h2.095l2.094-16.948h-2.094V23.303h-2.095c-1.227-5.08-6.957-14.427-10.471-16.948h-4.188l-2.095-4.237h-6.283V0zm134.034 14.83c-6.473-1.738-10.88-6.642-16.754-8.475-9.257-2.887-16.48 2.896-23.037 4.237l-6.283 8.474h-2.094c-2.425 3.555.042 4.855-4.189 8.474-.58 8.573-3.202 15.596 2.094 21.184 2.208 10.855 9.016 12.266 14.66 19.066 9.263.712 18.838 4.03 25.132-2.118 6.758-1.59 13.011-8.05 14.66-14.83 4.176-4.008.058-1.09 2.094-6.355 5.286-13.668-3.315-18.973-6.283-29.658zm79.583 0c-6.283.704-12.566 1.412-18.849 2.118-2.094 2.823-4.188 5.65-6.283 8.473-4.098 4.008-4.287 10.69-4.188 19.066 4.452 3.985 5.026 9.404 10.471 12.71 3.956 4.238 1.074.06 6.283 2.12 9.969 3.94 12.015.042 20.943-2.12 4.894-9.03 8.249-10.411 8.377-25.42h-2.094V25.42c-1.397-.705-2.792-1.413-4.189-2.118v-2.119h-2.094l-2.095-4.236h-6.282v-2.119zm85.865 8.473h-14.66c-4.568 7.736-8.316 7.395-8.377 21.184 7.648 4.62 7.311 8.413 20.943 8.474v-2.118h4.188c.698-1.413 1.397-2.824 2.094-4.237h2.095c4.93-10.362-3.971-19.318-6.283-23.303zm-391.63 63.553h-14.66c-4.647 1.54-8.84 5.004-14.66 6.356l-8.377 10.592h-2.094c-2.398 3.646-8.892 23.586-6.283 31.776 1.498 4.699 4.976 8.934 6.283 14.829l8.377 6.356v2.118c8.821 6.207 20.233 6.417 35.603 6.355 3.715-4.196 4.121-1.777 8.377-4.236v-2.119h4.188l4.189-6.355h2.094v-4.237c1.397-.705 2.792-1.413 4.189-2.118 4.199-6.932 4.289-18.357 4.188-29.659h-2.094v-6.355c-3.491-4.942-6.982-9.887-10.471-14.83h-4.189c-.697-1.412-1.397-2.823-2.094-4.236-4.189-.705-8.377-1.413-12.566-2.118v-2.119zM347.65 95.33c-12.396-.193-18.356 2.36-27.226 4.237l-6.283 8.474h-2.094c-2.241 3.453-7.146 21.762-4.188 29.658h2.094l2.094 8.474h2.094l4.189 6.355c6.924 4.684 24.932 8.469 31.414 2.118 6.115-1.495 4.888-2.906 8.377-6.355 10.074-9.955 11.014-11.164 10.472-31.777-3.776-3.275-4.874-9.166-8.378-12.71-3.503-3.544-9.319-4.66-12.565-8.474zm96.337 8.474c-9.056-.125-16.56.872-23.038 2.118-5.231 9.143-10.117 10.101-10.471 25.421h2.094l2.095 10.593c3.757 5.463 15.493 8.378 25.131 8.473 5.613-6.306 11.95-4.421 14.66-14.829 3.11-3.374 2.287-12.482 2.094-19.066-5.118-3.273-1.294-2.523-4.188-6.355-1.686-2.231-6.296-3.726-8.377-6.355zm77.488 6.355l-10.472 2.118c-3.968 6.898-7.813 7.697-8.377 19.066 8.702 7.557 3.108 10.656 20.943 10.593 6.568-7.853 10.285-5.532 10.471-21.185h-2.094v-4.237c-1.397-.705-2.792-1.413-4.188-2.118v-2.119h-6.283v-2.118zm-385.347 65.672h-16.754c-4.647 1.54-8.838 5.006-14.66 6.355-5.135 8.429-22.407 22.015-16.754 40.25h2.094v8.474h2.094c2.654 11.853 24.323 29.868 43.98 23.303 4.643-1.551 8.855-4.968 14.66-6.355l6.283-8.474h2.094c6.086-9.222 6.331-20.42 6.283-36.014-3.791-3.326-1.793-4.222-4.189-8.473h-2.094v-4.237l-8.377-6.356v-2.118h-4.189v-2.118l-10.471-2.119v-2.118zm92.148 63.553l6.283 2.118v2.119h4.188v2.118c5.705 2.102 20.508.195 23.038-2.118 11.866-2.913 11.518-10.647 18.848-16.948.245-7.277 1.401-19.458-2.094-23.303-3.579-15.865-17.552-19.618-37.697-19.066-3.238 3.82-9.062 4.93-12.566 8.474-3.504 3.544-4.607 9.427-8.377 12.711.697 8.474 1.397 16.947 2.094 25.421h2.095c2.353 3.383 2.85 3.631 4.188 8.474zm127.751-46.606c-6.501-.233-15.521-.995-18.849 2.119-6.465 1.493-8.909 4.129-10.471 10.592-5.948 5.804-2.756 11.933-2.094 21.184 9.602 5.752 9.041 11.95 25.131 12.711v-2.118l10.471-2.119c1.636-3.034 5.802-8.497 8.378-10.592.123-9.16-.863-16.751-2.095-23.303-2.999-1.654-8.4-5.868-10.471-8.474zm79.582 6.356l-12.565 2.118c-7.295 12.062-10.888 9.171-4.189 25.421 12.201 6.171 19.075 6.37 25.132-6.355h2.094v-10.592c-1.732-4.595-7.481-7.103-10.472-10.592zm-387.44 65.671H31.413c-4.647 1.54-8.838 5.006-14.66 6.356-2.844 5.16-8.01 6.999-10.471 10.592-2.423 3.535.035 4.855-4.189 8.474L0 307.174l6.283 19.066 10.471 8.474v2.118c3.604 2.426 23.318 8.995 31.414 6.356 4.645-1.515 8.832-5.034 14.66-6.356l6.283-8.473h2.094v-4.237l4.189-2.119c4.779-9.272.938-26.495 0-36.013-5.131-3.286-1.286-2.432-4.189-6.356l-8.377-6.355v-2.118H58.64v-2.119l-10.472-2.118v-2.119zm125.656 8.474c-19.234-.695-34.095 2.214-37.697 16.948-4.398 4.313-4.352 12.168-4.189 21.184h2.095v6.355l4.188 2.119c3.942 5.94 2.49 8.48 10.472 10.592 4.368 5.141 13.325 4.497 23.037 4.237v-2.119h6.282l2.095-4.236h4.188c2.39-1.896 4.888-9.777 8.377-12.711.643-10.7 2.842-18.227-2.094-27.54h-2.094v-4.237l-14.66-10.592zm87.96 6.355c-7.408.606-10.229 2.856-16.755 4.237-1.635 3.034-5.801 8.497-8.377 10.592-.123 9.161.863 16.751 2.094 23.303 2.999 1.655 8.401 5.868 10.472 8.474 9.055.125 16.559-.873 23.037-2.118 3.129-5.322 12.905-13.452 10.471-23.303h-2.094l-2.094-10.592-6.283-4.237v-2.119c-3.491-.705-6.982-1.413-10.471-2.118v-2.119zm85.865 8.474l-12.566 2.119c-4.691 8.158-6.364 6.656-6.283 21.184l6.283 4.237v2.118h4.189v2.119c10.04 3.266 22.903-10.408 18.848-21.185-1.73-4.597-7.485-7.099-10.471-10.592zM138.222 353.78c-20.45-.379-27.477.36-37.697 10.592l-4.188 2.119v4.236h-2.095c-1.995 2.604-1.566 4.089-4.188 6.356l-2.094 23.303h2.094v6.355h2.094v4.237l12.566 14.829 8.377 2.118v2.119c17.405 7.529 42.769-3.604 46.074-16.948 6.834-5.95 6.526-18.629 6.283-31.776-3.491-5.648-6.98-11.3-10.472-16.948-5.583-3.529-11.17-7.063-16.754-10.592zm90.054 14.829c-1.336 4.843-1.832 5.095-4.188 8.474h-2.095v6.355h-2.094c-3.422 10.713 2.741 20.363 4.189 27.54 8.002 4.898 17.69 18.773 35.602 12.71v-2.118h6.283v-2.118c3.345-2.382 3.588-2.888 8.377-4.237.698-2.119 1.397-4.237 2.094-6.356h2.095v-4.237h2.094c2.078-5.77.193-20.743-2.094-23.302-2.88-12.003-10.526-11.652-16.754-19.066h-23.038v2.118h-4.188v2.119l-6.283 2.118zm100.525 6.355v4.237l-4.188 2.119v8.473h-2.094c-1.435 6.349 3.089 11.463 4.188 16.948 2.999 1.654 8.4 5.868 10.471 8.474 9.056.125 16.56-.873 23.037-2.119 1.636-3.033 5.802-8.497 8.378-10.592.123-9.16-.863-16.75-2.095-23.303-8.691-5.052-10.917-9.899-25.131-10.592v2.118h-6.283v2.119c-2.094.705-4.188 1.413-6.283 2.118zm106.808 2.119c-9.212-.144-13.271.851-16.754 6.355-10.046 9.054 3.759 30.254 16.754 25.421v-2.118h4.189c2.4-1.629 8.779-12.552 6.283-19.066h-2.094v-4.237h-2.095c-.697-1.413-1.397-2.824-2.094-4.237h-4.189v-2.118zM242.936 510.545c1.315-4.76 1.763-5.233 4.189-8.474h2.094l2.094-10.592h2.094c4.4-14.012-4.326-24.973-6.282-33.895l-8.378-6.356v-2.118h-4.188v-2.119c-4.187-2.427-5.116-.366-8.377-4.237-21.408-.73-40.003 2.913-43.98 19.066-6.54 5.544-8.67 23.659-4.189 33.896 6.769 15.458 21.025 25.974 43.98 25.421v-2.119h6.283c5.068-2.491 8.185-6.825 14.66-8.473zm98.431-61.435c-9.562.726-15.014 4.506-23.037 6.355l-4.189 6.355h-2.094c-4.639 7.18-4.255 17.679-4.188 29.659 6.55 5.95 6.492 14.225 16.754 16.947 4.549 4.737 13.562 4.438 23.037 4.237 3.238-3.819 9.062-4.93 12.565-8.474 3.504-3.544 4.608-9.427 8.378-12.71.261-13.798-1.24-28.197-8.378-33.895h-4.188v-2.119c-2.547-2.029-4.04-1.587-6.283-4.237h-8.377v-2.118zm98.431 8.474c-12.855-.411-22.677 2.711-25.131 12.71-3.776 3.688-4.178 9.309-4.189 16.948 6.235 5.677 4.371 12.088 14.66 14.829 6.66 6.419 19.318-.684 25.131-2.119l2.095-6.355h2.094v-4.237h2.094c3.772-10.829-4.031-24.489-8.377-27.54-3.468-2.434-4.733-.093-8.377-4.236zm83.771 8.473h-12.566l-4.188 6.356h-2.094v4.237h-2.095c-3.74 11.681 10.093 20.483 18.849 21.184 4.706-5.298 8.033-2.034 10.471-10.592 8.394-9.021-4.9-17.128-8.377-21.185zm-209.428 65.672h-23.037v2.119c-3.491.705-6.98 1.412-10.471 2.118l-8.377 10.592h-2.094l-4.189 12.711h-2.094c-3.713 10.537 3.116 29.334 6.283 33.895l8.377 6.355c.697 1.413 1.397 2.824 2.094 4.237 3.523 2.447 4.733.064 8.377 4.237 11.783.114 22.189-1.191 31.414-2.118 3.29-5.241 11.468-8.065 14.66-12.711 2.419-3.521-.014-4.845 4.189-8.474.735-9.76 2.796-12.939 0-21.184v-8.474h-2.095c-1.208-4.968-7.011-14.564-10.471-16.948h-4.188v-2.118c-4.264-2.453-4.683-.025-8.378-4.237zm115.186 6.355c-9.563.727-15.014 4.506-23.037 6.356l-4.189 6.355h-2.094c-4.639 7.179-4.256 17.678-4.189 29.658 6.551 5.951 6.492 14.226 16.754 16.948 9.351 9.986 24.114.176 33.509-2.119 1.374-2.527 3.388-3.008 4.188-4.237v-4.236l4.189-2.119 2.094-23.303c-4.186-3.648-1.767-4.925-4.188-8.474l-14.66-12.71h-8.377v-2.119zm98.431 8.474c-10.589-.061-13.389 2.508-20.943 4.237-4.895 9.031-8.25 10.412-8.377 25.421h2.094v4.237h2.094v4.237c4.044 5.69 14.65 8.484 25.132 8.474v-2.119h6.282c2.095-2.823 4.189-5.649 6.283-8.473 4.174-4.008.061-1.089 2.095-6.356 4.081-10.566.456-17.267-6.283-23.303v-2.118h-4.189v-2.118h-4.188v-2.119zm83.771 8.474h-12.566c-4.723 8.188-8.097 7.15-8.377 21.184 9.315 5.625 6.287 8.552 23.037 8.474 1.397-2.118 2.792-4.237 4.188-6.355h2.095v-6.356H622l-4.189-12.71c-2.682-1.25-4.483-2.089-6.282-4.237z" fill="#000"/></svg><svg fill="none" viewBox="0 0 96 98" id="adv-01" xmlns="http://www.w3.org/2000/svg"><path d="M14.4 85.5c2.65 0 4.8-2.127 4.8-4.75S17.05 76 14.4 76c-2.651 0-4.8 2.127-4.8 4.75s2.149 4.75 4.8 4.75z" fill="url(#cpaint0_linear_520_105)"/><path d="M9.6 9.5h9.6v42.75H9.6V9.5z" fill="url(#cpaint1_linear_520_105)"/><path d="M24 0H4.8C3.527 0 2.306.5 1.406 1.391A4.725 4.725 0 000 4.75v88.5c0 1.26.506 2.468 1.406 3.359.9.89 2.121 1.391 3.394 1.391H24c1.273 0 2.494-.5 3.394-1.391A4.725 4.725 0 0028.8 93.25V4.75c0-1.26-.506-2.468-1.406-3.359A4.826 4.826 0 0024 0zm0 93.25H4.8V4.75H24v88.5z" fill="url(#cpaint2_linear_520_105)"/><path d="M48 85.5c2.651 0 4.8-2.127 4.8-4.75S50.651 76 48 76c-2.65 0-4.8 2.127-4.8 4.75s2.15 4.75 4.8 4.75z" fill="url(#cpaint3_linear_520_105)"/><path d="M43.2 9.5h9.6v42.75h-9.6V9.5z" fill="url(#cpaint4_linear_520_105)"/><path d="M57.6 0H38.4c-1.273 0-2.494.5-3.395 1.391A4.725 4.725 0 0033.6 4.75v88.5c0 1.26.505 2.468 1.405 3.359.9.89 2.122 1.391 3.395 1.391h19.2c1.273 0 2.493-.5 3.394-1.391A4.725 4.725 0 0062.4 93.25V4.75c0-1.26-.506-2.468-1.406-3.359A4.826 4.826 0 0057.6 0zm0 93.25H38.4V4.75h19.2v88.5z" fill="url(#cpaint5_linear_520_105)"/><path d="M81.6 85.5c2.65 0 4.8-2.127 4.8-4.75S84.25 76 81.6 76c-2.651 0-4.8 2.127-4.8 4.75s2.149 4.75 4.8 4.75z" fill="url(#cpaint6_linear_520_105)"/><path d="M76.8 9.5h9.6v42.75h-9.6V9.5z" fill="url(#cpaint7_linear_520_105)"/><path d="M91.2 0H72c-1.273 0-2.494.5-3.394 1.391A4.725 4.725 0 0067.2 4.75v88.5c0 1.26.506 2.468 1.406 3.359.9.89 2.121 1.391 3.394 1.391h19.2c1.273 0 2.494-.5 3.394-1.391A4.725 4.725 0 0096 93.25V4.75c0-1.26-.505-2.468-1.406-3.359A4.826 4.826 0 0091.2 0zm0 93.25H72V4.75h19.2v88.5z" fill="url(#cpaint8_linear_520_105)"/><defs><linearGradient id="cpaint0_linear_520_105" x1="9.6" y1="76" x2="18.304" y2="86.26" gradientUnits="userSpaceOnUse"><stop stop-color="#4091DB"/><stop offset="1" stop-color="#35D0FA"/></linearGradient><linearGradient id="cpaint1_linear_520_105" x1="9.6" y1="9.5" x2="29.062" y2="14.598" gradientUnits="userSpaceOnUse"><stop stop-color="#4091DB"/><stop offset="1" stop-color="#35D0FA"/></linearGradient><linearGradient id="cpaint2_linear_520_105" x1="0" y1="0" x2="56.889" y2="17.695" gradientUnits="userSpaceOnUse"><stop stop-color="#4091DB"/><stop offset="1" stop-color="#35D0FA"/></linearGradient><linearGradient id="cpaint3_linear_520_105" x1="43.2" y1="76" x2="51.905" y2="86.26" gradientUnits="userSpaceOnUse"><stop stop-color="#4091DB"/><stop offset="1" stop-color="#35D0FA"/></linearGradient><linearGradient id="cpaint4_linear_520_105" x1="43.2" y1="9.5" x2="62.662" y2="14.598" gradientUnits="userSpaceOnUse"><stop stop-color="#4091DB"/><stop offset="1" stop-color="#35D0FA"/></linearGradient><linearGradient id="cpaint5_linear_520_105" x1="33.6" y1="0" x2="90.488" y2="17.695" gradientUnits="userSpaceOnUse"><stop stop-color="#4091DB"/><stop offset="1" stop-color="#35D0FA"/></linearGradient><linearGradient id="cpaint6_linear_520_105" x1="76.8" y1="76" x2="85.504" y2="86.26" gradientUnits="userSpaceOnUse"><stop stop-color="#4091DB"/><stop offset="1" stop-color="#35D0FA"/></linearGradient><linearGradient id="cpaint7_linear_520_105" x1="76.8" y1="9.5" x2="96.262" y2="14.598" gradientUnits="userSpaceOnUse"><stop stop-color="#4091DB"/><stop offset="1" stop-color="#35D0FA"/></linearGradient><linearGradient id="cpaint8_linear_520_105" x1="67.2" y1="0" x2="124.089" y2="17.695" gradientUnits="userSpaceOnUse"><stop stop-color="#4091DB"/><stop offset="1" stop-color="#35D0FA"/></linearGradient></defs></svg><svg fill="none" viewBox="0 0 108 108" id="adv-02" xmlns="http://www.w3.org/2000/svg"><g clip-path="url(#dclip0_68_311)"><path d="M105.796 35.265c1.469 0 2.204-.808 2.204-2.424 0-1.617-.735-2.425-2.204-2.425h-9.478v-4.628c0-3.968-1.359-7.31-4.077-10.029-2.719-2.718-6.061-4.077-10.029-4.077h-4.628V2.204C77.584.734 76.775 0 75.159 0c-1.616 0-2.424.735-2.424 2.204v9.478h-9.257V2.204C63.478.734 62.669 0 61.053 0c-1.616 0-2.424.735-2.424 2.204v9.478H49.37V2.204C49.371.734 48.563 0 46.947 0c-1.616 0-2.425.735-2.425 2.204v9.478h-9.257V2.204C35.265.734 34.457 0 32.841 0c-1.617 0-2.425.735-2.425 2.204v9.478h-4.628c-3.968 0-7.31 1.359-10.029 4.077-2.718 2.719-4.077 6.061-4.077 10.029v4.628H2.204c-1.47 0-2.204.808-2.204 2.425 0 1.616.735 2.424 2.204 2.424h9.478v9.257H2.204c-1.47 0-2.204.809-2.204 2.425 0 1.616.735 2.424 2.204 2.424h9.478v9.258H2.204c-1.47 0-2.204.808-2.204 2.424 0 1.616.735 2.425 2.204 2.425h9.478v9.257H2.204c-1.47 0-2.204.808-2.204 2.424 0 1.616.735 2.425 2.204 2.425h9.478v4.628c0 3.968 1.359 7.31 4.077 10.029 2.719 2.718 6.061 4.077 10.029 4.077h4.628v9.478c0 1.469.808 2.204 2.425 2.204 1.616 0 2.424-.735 2.424-2.204v-9.478h9.257v9.478c0 1.469.809 2.204 2.425 2.204 1.616 0 2.424-.735 2.424-2.204v-9.478h9.258v9.478c0 1.469.808 2.204 2.424 2.204 1.616 0 2.425-.735 2.425-2.204v-9.478h9.257v9.478c0 1.469.808 2.204 2.424 2.204 1.616 0 2.425-.735 2.425-2.204v-9.478h4.628c3.968 0 7.31-1.359 10.029-4.077 2.718-2.719 4.077-6.061 4.077-10.029v-4.628h9.478c1.469 0 2.204-.809 2.204-2.425 0-1.616-.735-2.424-2.204-2.424h-9.478v-9.257h9.478c1.469 0 2.204-.809 2.204-2.425 0-1.616-.735-2.424-2.204-2.424h-9.478V49.37h9.478c1.469 0 2.204-.808 2.204-2.424 0-1.616-.735-2.425-2.204-2.425h-9.478v-9.257h9.478zM88.841 82.212c0 3.086-3.543 6.629-6.629 6.629H25.788c-3.086 0-6.629-3.543-6.629-6.629V25.788c0-3.086 3.543-6.629 6.629-6.629h56.424c3.086 0 6.629 3.543 6.629 6.629v56.424zM72.735 30.416h-37.47c-3.232 0-4.849 1.617-4.849 4.85v37.469c0 3.232 1.617 4.849 4.85 4.849h37.469c3.232 0 4.849-1.617 4.849-4.85V35.266c0-3.232-1.617-4.849-4.85-4.849zm-2.629 39.69H37.894V37.894h32.212v32.212z" fill="url(#dpaint0_linear_68_311)"/></g><defs><linearGradient id="dpaint0_linear_68_311" x1="0" y1="0" x2="99.12" y2="115.613" gradientUnits="userSpaceOnUse"><stop stop-color="#4091DB"/><stop offset="1" stop-color="#35D0FA"/></linearGradient><clipPath id="dclip0_68_311"><path fill="#fff" d="M0 0h108v108H0z"/></clipPath></defs></svg><svg fill="none" viewBox="0 0 108 108" id="adv-03" xmlns="http://www.w3.org/2000/svg"><g clip-path="url(#eclip0_68_315)"><path d="M92.462 15h7.692c1.02 0 1.998.408 2.719 1.133A3.879 3.879 0 01104 18.87v61.913c0 1.026-.405 2.01-1.127 2.736a3.832 3.832 0 01-2.719 1.133H7.846a3.834 3.834 0 01-2.72-1.133A3.882 3.882 0 014 80.783V18.87c0-1.027.405-2.01 1.127-2.737A3.834 3.834 0 017.847 15h7.692m30.769 69.652L38.615 104m23.077-19.348L69.385 104m-38.462 0h46.154" stroke="url(#epaint0_linear_68_315)" stroke-width="7" stroke-linecap="round" stroke-linejoin="round"/><mask id="ea" fill="#fff"><path d="M51.333 29.483c0-2.367-.846-4.389-2.539-6.064-1.692-1.675-3.735-2.513-6.127-2.513-2.393 0-4.435.838-6.128 2.513C34.846 25.094 34 27.116 34 29.483c0 2.368.846 4.39 2.54 6.064 1.692 1.676 3.734 2.513 6.127 2.513 2.392 0 4.435-.837 6.127-2.513 1.693-1.675 2.54-3.696 2.54-6.064zm26 17.154c0-1.161-.428-2.166-1.286-3.015-.858-.849-1.873-1.273-3.047-1.273-1.174 0-2.19.424-3.047 1.273-.858.849-1.286 1.854-1.286 3.015 0 1.184.423 2.195 1.27 3.032.846.838 1.867 1.257 3.063 1.257 1.196 0 2.217-.42 3.064-1.257.846-.837 1.27-1.848 1.27-3.032zm0-34.308c0-1.161-.428-2.166-1.286-3.015-.858-.849-1.873-1.273-3.047-1.273-1.174 0-2.19.424-3.047 1.273-.858.849-1.286 1.854-1.286 3.015 0 1.184.423 2.195 1.27 3.032.846.838 1.867 1.257 3.063 1.257 1.196 0 2.217-.419 3.064-1.257.846-.837 1.27-1.848 1.27-3.032zm-13 14.105v6.199c0 .223-.079.44-.237.653-.158.212-.338.33-.541.352l-5.248.804c-.248.782-.61 1.63-1.083 2.546.767 1.072 1.783 2.356 3.047 3.853.158.246.237.47.237.67 0 .268-.08.48-.237.637-.52.67-1.45 1.67-2.793 2.998-1.343 1.33-2.229 1.994-2.658 1.994a1.23 1.23 0 01-.71-.235l-3.894-3.015c-.835.424-1.704.77-2.607 1.038-.248 2.413-.507 4.144-.778 5.194-.158.536-.497.804-1.016.804h-6.297c-.248 0-.474-.084-.677-.252-.203-.167-.316-.363-.338-.586l-.779-5.126c-.767-.223-1.614-.57-2.54-1.039l-3.994 2.982c-.158.157-.384.235-.677.235a1.13 1.13 0 01-.71-.268c-3.25-2.971-4.876-4.758-4.876-5.36 0-.202.08-.414.237-.638a53.89 53.89 0 011.388-1.775c.7-.871 1.23-1.552 1.591-2.044-.519-.983-.914-1.898-1.185-2.747l-5.145-.804a.837.837 0 01-.576-.319.992.992 0 01-.237-.653v-6.198c0-.224.079-.441.237-.653.158-.213.339-.33.542-.352l5.247-.804c.248-.782.61-1.63 1.083-2.547-.767-1.072-1.783-2.356-3.047-3.853-.158-.245-.236-.469-.236-.67 0-.268.078-.491.236-.67.497-.67 1.422-1.664 2.776-2.982 1.355-1.317 2.246-1.976 2.675-1.976.248 0 .485.078.711.234l3.893 3.016c.768-.402 1.637-.76 2.607-1.072.248-2.413.508-4.133.779-5.16.158-.536.496-.804 1.015-.804h6.297c.248 0 .474.084.677.251.203.168.316.363.339.586l.778 5.127c.768.223 1.614.57 2.54 1.038l3.994-2.982a.998.998 0 01.677-.234c.249 0 .486.09.711.268 3.25 2.97 4.875 4.757 4.875 5.36 0 .18-.079.391-.237.637-.27.357-.744.96-1.422 1.81a38.451 38.451 0 00-1.523 2.01c.52 1.072.903 1.987 1.151 2.747l5.146.77a.982.982 0 01.575.352c.158.19.237.408.237.653zM86 44.292v4.69c0 .358-1.681.704-5.044 1.039a9.737 9.737 0 01-1.016 1.742c1.151 2.524 1.727 4.065 1.727 4.624 0 .09-.046.167-.136.234C78.778 58.207 77.378 59 77.333 59c-.18 0-.7-.525-1.557-1.575-.858-1.05-1.444-1.809-1.76-2.278-.452.045-.79.067-1.016.067-.226 0-.564-.022-1.016-.067-.316.47-.902 1.229-1.76 2.278-.858 1.05-1.377 1.575-1.557 1.575-.046 0-1.445-.793-4.198-2.379-.09-.067-.136-.145-.136-.234 0-.559.576-2.1 1.727-4.624a9.737 9.737 0 01-1.016-1.742C61.681 49.686 60 49.34 60 48.982v-4.69c0-.358 1.681-.704 5.044-1.039a9.335 9.335 0 011.016-1.742c-1.151-2.524-1.727-4.065-1.727-4.623 0-.09.046-.168.136-.235.09-.045.485-.268 1.185-.67.7-.402 1.365-.782 1.997-1.14.632-.357.97-.535 1.016-.535.18 0 .7.52 1.557 1.558.858 1.038 1.444 1.792 1.76 2.261.452-.044.79-.067 1.016-.067.226 0 .564.023 1.016.067 1.15-1.586 2.189-2.836 3.114-3.752l.203-.067c.09 0 1.49.782 4.198 2.345.09.067.136.145.136.235 0 .558-.576 2.1-1.727 4.623a9.335 9.335 0 011.016 1.742c3.363.335 5.044.681 5.044 1.039zm0-34.308v4.69c0 .358-1.681.704-5.044 1.04a9.737 9.737 0 01-1.016 1.741c1.151 2.524 1.727 4.066 1.727 4.624 0 .09-.046.168-.136.235-2.753 1.585-4.153 2.378-4.198 2.378-.18 0-.7-.525-1.557-1.575-.858-1.05-1.444-1.809-1.76-2.278-.452.045-.79.067-1.016.067-.226 0-.564-.022-1.016-.067-.316.47-.902 1.229-1.76 2.279-.858 1.05-1.377 1.574-1.557 1.574-.046 0-1.445-.793-4.198-2.378-.09-.067-.136-.146-.136-.235 0-.559.576-2.1 1.727-4.624a9.737 9.737 0 01-1.016-1.742C61.681 15.378 60 15.032 60 14.675v-4.69c0-.358 1.681-.704 5.044-1.04a9.337 9.337 0 011.016-1.742c-1.151-2.524-1.727-4.065-1.727-4.623 0-.09.046-.168.136-.235.09-.044.485-.268 1.185-.67.7-.402 1.365-.782 1.997-1.139.632-.357.97-.536 1.016-.536.18 0 .7.52 1.557 1.558.858 1.039 1.444 1.792 1.76 2.261.452-.044.79-.067 1.016-.067.226 0 .564.023 1.016.067C75.166 2.234 76.205.983 77.13.067L77.333 0c.09 0 1.49.782 4.198 2.345.09.067.136.145.136.235 0 .558-.576 2.1-1.727 4.623a9.337 9.337 0 011.016 1.742c3.363.336 5.044.682 5.044 1.04z"/></mask><path d="M51.333 29.483c0-2.367-.846-4.389-2.539-6.064-1.692-1.675-3.735-2.513-6.127-2.513-2.393 0-4.435.838-6.128 2.513C34.846 25.094 34 27.116 34 29.483c0 2.368.846 4.39 2.54 6.064 1.692 1.676 3.734 2.513 6.127 2.513 2.392 0 4.435-.837 6.127-2.513 1.693-1.675 2.54-3.696 2.54-6.064zm26 17.154c0-1.161-.428-2.166-1.286-3.015-.858-.849-1.873-1.273-3.047-1.273-1.174 0-2.19.424-3.047 1.273-.858.849-1.286 1.854-1.286 3.015 0 1.184.423 2.195 1.27 3.032.846.838 1.867 1.257 3.063 1.257 1.196 0 2.217-.42 3.064-1.257.846-.837 1.27-1.848 1.27-3.032zm0-34.308c0-1.161-.428-2.166-1.286-3.015-.858-.849-1.873-1.273-3.047-1.273-1.174 0-2.19.424-3.047 1.273-.858.849-1.286 1.854-1.286 3.015 0 1.184.423 2.195 1.27 3.032.846.838 1.867 1.257 3.063 1.257 1.196 0 2.217-.419 3.064-1.257.846-.837 1.27-1.848 1.27-3.032zm-13 14.105v6.199c0 .223-.079.44-.237.653-.158.212-.338.33-.541.352l-5.248.804c-.248.782-.61 1.63-1.083 2.546.767 1.072 1.783 2.356 3.047 3.853.158.246.237.47.237.67 0 .268-.08.48-.237.637-.52.67-1.45 1.67-2.793 2.998-1.343 1.33-2.229 1.994-2.658 1.994a1.23 1.23 0 01-.71-.235l-3.894-3.015c-.835.424-1.704.77-2.607 1.038-.248 2.413-.507 4.144-.778 5.194-.158.536-.497.804-1.016.804h-6.297c-.248 0-.474-.084-.677-.252-.203-.167-.316-.363-.338-.586l-.779-5.126c-.767-.223-1.614-.57-2.54-1.039l-3.994 2.982c-.158.157-.384.235-.677.235a1.13 1.13 0 01-.71-.268c-3.25-2.971-4.876-4.758-4.876-5.36 0-.202.08-.414.237-.638a53.89 53.89 0 011.388-1.775c.7-.871 1.23-1.552 1.591-2.044-.519-.983-.914-1.898-1.185-2.747l-5.145-.804a.837.837 0 01-.576-.319.992.992 0 01-.237-.653v-6.198c0-.224.079-.441.237-.653.158-.213.339-.33.542-.352l5.247-.804c.248-.782.61-1.63 1.083-2.547-.767-1.072-1.783-2.356-3.047-3.853-.158-.245-.236-.469-.236-.67 0-.268.078-.491.236-.67.497-.67 1.422-1.664 2.776-2.982 1.355-1.317 2.246-1.976 2.675-1.976.248 0 .485.078.711.234l3.893 3.016c.768-.402 1.637-.76 2.607-1.072.248-2.413.508-4.133.779-5.16.158-.536.496-.804 1.015-.804h6.297c.248 0 .474.084.677.251.203.168.316.363.339.586l.778 5.127c.768.223 1.614.57 2.54 1.038l3.994-2.982a.998.998 0 01.677-.234c.249 0 .486.09.711.268 3.25 2.97 4.875 4.757 4.875 5.36 0 .18-.079.391-.237.637-.27.357-.744.96-1.422 1.81a38.451 38.451 0 00-1.523 2.01c.52 1.072.903 1.987 1.151 2.747l5.146.77a.982.982 0 01.575.352c.158.19.237.408.237.653zM86 44.292v4.69c0 .358-1.681.704-5.044 1.039a9.737 9.737 0 01-1.016 1.742c1.151 2.524 1.727 4.065 1.727 4.624 0 .09-.046.167-.136.234C78.778 58.207 77.378 59 77.333 59c-.18 0-.7-.525-1.557-1.575-.858-1.05-1.444-1.809-1.76-2.278-.452.045-.79.067-1.016.067-.226 0-.564-.022-1.016-.067-.316.47-.902 1.229-1.76 2.278-.858 1.05-1.377 1.575-1.557 1.575-.046 0-1.445-.793-4.198-2.379-.09-.067-.136-.145-.136-.234 0-.559.576-2.1 1.727-4.624a9.737 9.737 0 01-1.016-1.742C61.681 49.686 60 49.34 60 48.982v-4.69c0-.358 1.681-.704 5.044-1.039a9.335 9.335 0 011.016-1.742c-1.151-2.524-1.727-4.065-1.727-4.623 0-.09.046-.168.136-.235.09-.045.485-.268 1.185-.67.7-.402 1.365-.782 1.997-1.14.632-.357.97-.535 1.016-.535.18 0 .7.52 1.557 1.558.858 1.038 1.444 1.792 1.76 2.261.452-.044.79-.067 1.016-.067.226 0 .564.023 1.016.067 1.15-1.586 2.189-2.836 3.114-3.752l.203-.067c.09 0 1.49.782 4.198 2.345.09.067.136.145.136.235 0 .558-.576 2.1-1.727 4.623a9.335 9.335 0 011.016 1.742c3.363.335 5.044.681 5.044 1.039zm0-34.308v4.69c0 .358-1.681.704-5.044 1.04a9.737 9.737 0 01-1.016 1.741c1.151 2.524 1.727 4.066 1.727 4.624 0 .09-.046.168-.136.235-2.753 1.585-4.153 2.378-4.198 2.378-.18 0-.7-.525-1.557-1.575-.858-1.05-1.444-1.809-1.76-2.278-.452.045-.79.067-1.016.067-.226 0-.564-.022-1.016-.067-.316.47-.902 1.229-1.76 2.279-.858 1.05-1.377 1.574-1.557 1.574-.046 0-1.445-.793-4.198-2.378-.09-.067-.136-.146-.136-.235 0-.559.576-2.1 1.727-4.624a9.737 9.737 0 01-1.016-1.742C61.681 15.378 60 15.032 60 14.675v-4.69c0-.358 1.681-.704 5.044-1.04a9.337 9.337 0 011.016-1.742c-1.151-2.524-1.727-4.065-1.727-4.623 0-.09.046-.168.136-.235.09-.044.485-.268 1.185-.67.7-.402 1.365-.782 1.997-1.139.632-.357.97-.536 1.016-.536.18 0 .7.52 1.557 1.558.858 1.039 1.444 1.792 1.76 2.261.452-.044.79-.067 1.016-.067.226 0 .564.023 1.016.067C75.166 2.234 76.205.983 77.13.067L77.333 0c.09 0 1.49.782 4.198 2.345.09.067.136.145.136.235 0 .558-.576 2.1-1.727 4.623a9.337 9.337 0 011.016 1.742c3.363.336 5.044.682 5.044 1.04z" stroke="url(#epaint1_linear_68_315)" stroke-width="7" stroke-linecap="round" stroke-linejoin="round" mask="url(#ea)"/></g><defs><linearGradient id="epaint0_linear_68_315" x1="4" y1="15" x2="104" y2="104" gradientUnits="userSpaceOnUse"><stop stop-color="#4091DB"/><stop offset="1" stop-color="#35D0FA"/></linearGradient><linearGradient id="epaint1_linear_68_315" x1="21" y1="0" x2="87.128" y2="57.707" gradientUnits="userSpaceOnUse"><stop stop-color="#4091DB"/><stop offset="1" stop-color="#35D0FA"/></linearGradient><clipPath id="eclip0_68_315"><path fill="#fff" d="M0 0h108v108H0z"/></clipPath></defs></svg><svg fill="none" viewBox="0 0 108 108" id="adv-04" xmlns="http://www.w3.org/2000/svg"><path d="M57.6 106v-1.545c0-7.674-6.171-13.905-13.886-13.905-7.714 0-13.885 6.231-13.885 13.905V106H10.286a10.277 10.277 0 01-7.273-3.017A10.306 10.306 0 010 95.7V76.13h1.543a13.87 13.87 0 0013.886-13.905A13.87 13.87 0 001.543 48.32H0V28.75c0-5.665 4.629-10.3 10.286-10.3H25.92C27.154 9.695 34.663 3 43.714 3c9.052 0 16.56 6.695 17.795 15.45h15.634c2.728 0 5.344 1.085 7.273 3.017a10.307 10.307 0 013.013 7.283v15.656c7.457 1.081 13.422 6.695 14.965 14.008-4.571-2.567-9.725-6.914-14.965-6.914h-7.286V25.75H54.429v-5.725c0-4.274-6.446-9.725-10.715-9.725C39.446 10.3 33 15.75 33 20.025v5.725H7.286v16.918c9.051 3.502 14.428 9.257 14.428 19.557 0 10.3-5.428 16.055-14.428 19.557V98.7h16.903c1.762-4.549 4.856-9.458 8.875-12.215 4.02-2.757 5.778-3.233 10.65-3.235 4.783 0 9.206 1.442 12.857 3.811V88.4c0 7.931 2.983 12.141 7.92 17.6H57.6zm29.829-9.837l-12.858 7.674 3.498-14.472-11.212-9.681 14.76-1.288L87.43 64.8l5.708 13.596L108 79.683l-11.314 9.682 3.343 14.472-12.6-7.674z" fill="url(#fpaint0_linear_68_319)"/><defs><linearGradient id="fpaint0_linear_68_319" x1="0" y1="3" x2="93.747" y2="117.654" gradientUnits="userSpaceOnUse"><stop stop-color="#4091DB"/><stop offset="1" stop-color="#35D0FA"/></linearGradient></defs></svg><svg viewBox="0 0 24 14" id="arrow-modules-dropdowns" xmlns="http://www.w3.org/2000/svg"><path d="M23.525 2.774L12.887 13.645c-.127.13-.264.22-.412.274A1.368 1.368 0 0112 14c-.169 0-.327-.027-.475-.081a1.101 1.101 0 01-.412-.274L.444 2.775C.148 2.472 0 2.096 0 1.644 0 1.194.158.806.475.484.792.16 1.16 0 1.583 0c.422 0 .792.161 1.108.484L12 9.968 21.309.484A1.47 1.47 0 0122.4.032c.434 0 .808.162 1.125.484.317.323.475.699.475 1.13 0 .43-.158.806-.475 1.128z"/></svg><svg fill="none" viewBox="0 0 96 14" id="habr" xmlns="http://www.w3.org/2000/svg"><g clip-path="url(#hclip0_121_651)" fill="#fff"><path d="M9.878 11.083L6.483 5.965 9.849.817H7.375l-2.253 3.5-2.225-3.5H.337L3.701 5.92.307 11.083H2.81L5.063 7.57l2.269 3.514h2.546zM14.6 3c-1.976 0-3.102 1.08-3.307 2.377h1.99c.117-.394.498-.73 1.23-.73.716 0 1.243.365 1.243 1.066v.35h-1.654c-1.931 0-3.102.89-3.102 2.435 0 1.517 1.17 2.392 2.634 2.392.98 0 1.77-.38 2.24-.992v.817h1.975v-4.93C17.849 3.948 16.546 3 14.6 3zm-.38 6.242c-.659 0-1.083-.321-1.083-.846 0-.54.468-.86 1.126-.86h1.493v.335c0 .875-.717 1.37-1.537 1.37zM23.37 3.675c-1.053 0-1.916.38-2.473 1.152.147-1.414.718-2.115 2.152-2.333l2.883-.423V.219l-3.088.51c-2.986.496-3.908 2.48-3.908 5.79 0 2.975 1.45 4.74 4.01 4.74 2.298 0 3.717-1.75 3.717-3.85 0-2.261-1.317-3.734-3.292-3.734zm-.526 5.804c-1.112 0-1.727-.89-1.727-2.085 0-1.152.644-1.984 1.741-1.984 1.069 0 1.669.86 1.669 1.998S23.94 9.48 22.844 9.48zM32.362 3.369c-1.112 0-1.83.481-2.21 1.05v-.875h-2.049v10.325h2.137v-3.515c.38.525 1.098.904 2.064.904 1.858 0 3.336-1.458 3.336-3.937 0-2.523-1.478-3.952-3.278-3.952zM31.85 9.42c-.995 0-1.654-.802-1.654-2.071v-.058c0-1.27.659-2.086 1.654-2.086.995 0 1.639.832 1.639 2.115 0 1.283-.644 2.1-1.64 2.1zM48.314 11.083l-4.976-5.352L48.226.817h-1.683l-4.58 4.579V.816H40.66v10.267h1.303v-4.9l4.624 4.9h1.727zM52.253 3.573c-1.683 0-2.707.948-2.941 2.085h1.214c.205-.54.732-.977 1.698-.977.951 0 1.668.51 1.668 1.531v.496h-1.96c-1.8 0-2.898.86-2.898 2.275 0 1.4 1.112 2.26 2.546 2.26.937 0 1.815-.35 2.37-1.035v.875h1.186v-4.87c0-1.648-1.156-2.64-2.883-2.64zm-.512 6.577c-.82 0-1.434-.408-1.434-1.181 0-.788.688-1.196 1.697-1.196h1.888v.54c0 1.122-.98 1.837-2.151 1.837zM60.89 3.573c-1.272 0-2.048.583-2.414 1.21v-1.05h-1.214V13.87h1.258v-3.69c.351.54 1.141 1.065 2.327 1.065 1.697 0 3.366-1.24 3.366-3.836 0-2.581-1.654-3.835-3.322-3.835zm-.16 6.533c-1.361 0-2.254-1.035-2.254-2.669V7.38c0-1.633.893-2.669 2.254-2.669 1.317 0 2.195 1.094 2.195 2.698 0 1.604-.878 2.698-2.195 2.698zM68.877 6.11h-1.654V3.733h-1.258v7.35h2.897c1.58 0 2.605-1.079 2.605-2.508 0-1.43-1.024-2.465-2.59-2.465zm-.16 3.865h-1.494V7.219h1.493c.966 0 1.493.568 1.493 1.356 0 .787-.527 1.4-1.493 1.4zM79.403 7.787v-.641c0-2.188-1.259-3.573-3.22-3.573-2.02 0-3.468 1.458-3.468 3.835 0 2.363 1.434 3.836 3.57 3.836 1.918 0 2.84-1.196 3.03-2.057h-1.273c-.132.38-.717.934-1.742.934-1.36 0-2.268-.992-2.268-2.304v-.03h5.37zm-3.25-3.091c1.186 0 1.918.758 1.976 2.027h-4.082c.102-1.21.878-2.027 2.107-2.027zM84.786 3.573c-1.273 0-2.049.583-2.415 1.21v-1.05h-1.214V13.87h1.258v-3.69c.351.54 1.142 1.065 2.327 1.065 1.698 0 3.366-1.24 3.366-3.836 0-2.581-1.654-3.835-3.322-3.835zm-.161 6.533c-1.361 0-2.254-1.035-2.254-2.669V7.38c0-1.633.893-2.669 2.254-2.669 1.317 0 2.195 1.094 2.195 2.698 0 1.604-.878 2.698-2.195 2.698zM92.626 3.573c-1.683 0-2.708.948-2.942 2.085H90.9c.205-.54.732-.977 1.698-.977.95 0 1.668.51 1.668 1.531v.496h-1.961c-1.8 0-2.898.86-2.898 2.275 0 1.4 1.112 2.26 2.547 2.26.936 0 1.814-.35 2.37-1.035v.875h1.186v-4.87c0-1.648-1.156-2.64-2.883-2.64zm-.512 6.577c-.82 0-1.435-.408-1.435-1.181 0-.788.688-1.196 1.698-1.196h1.888v.54c0 1.122-.98 1.837-2.151 1.837z"/></g><defs><clipPath id="hclip0_121_651"><path fill="#fff" d="M0 0h96v14H0z"/></clipPath></defs></svg><svg fill="none" viewBox="0 0 25 25" id="icon-close" xmlns="http://www.w3.org/2000/svg"><rect y="3.537" width="5" height="30" rx="2.5" transform="rotate(-45 0 3.537)" fill="#fff"/><rect x="3.537" y="24.749" width="5" height="30" rx="2.5" transform="rotate(-135 3.537 24.749)" fill="#fff"/></svg><svg fill="none" viewBox="0 0 17 17" id="icon-close-sm" xmlns="http://www.w3.org/2000/svg"><path fill="#fff" d="M0 2.121L2.12 0l14.142 14.142-2.121 2.121z"/><path fill="#fff" d="M2.122 16.264L0 14.142 14.143 0l2.12 2.122z"/></svg><svg fill="none" viewBox="0 0 17 12" id="icon-mail" xmlns="http://www.w3.org/2000/svg"><path fill-rule="evenodd" clip-rule="evenodd" d="M6.096 7.067l2.406 1.548L10.82 7.11l5.198 4.826a1.494 1.494 0 01-.435.064H1.417c-.187 0-.366-.034-.53-.096l5.21-4.837zM17 3.101v7.565c0 .198-.046.385-.128.554l-5.094-4.731L17 3.1zM0 3.143L5.136 6.45.09 11.135c-.06-.15-.09-.309-.09-.469V3.143zM15.583 0C16.365 0 17 .597 17 1.334v.468L8.498 7.318 0 1.848v-.514C0 .598.634 0 1.417 0h14.166z" fill="#4091DB"/></svg><svg fill="none" viewBox="0 0 38 37" id="icon-modules-dropdowns" xmlns="http://www.w3.org/2000/svg"><path fill-rule="evenodd" clip-rule="evenodd" d="M18.67 0h1.525v.128l.508.128v.129l.762.64v.257c.187.18.414 1.174.254 1.667h-.127l-.127.64-.762.642v.128c-.445.293-1.291.26-2.032.256-.227-.252-.25-.107-.508-.256v-.128h-.254l-.255-.385h-.127V3.59l-.254-.128v-.385h-.127L17.02 2.05h.128v-.64h.127c.074-.308.421-.874.635-1.026h.254l.127-.257h.38V0zm-8.128.897c.393-.105.66-.401 1.016-.512.561-.175 1 .175 1.397.256l.381.513h.127c.147.215-.002.294.254.513.035.519.194.944-.127 1.282-.134.657-.547.742-.889 1.154-.562.043-1.142.243-1.524-.129-.41-.096-.79-.487-.89-.897-.252-.243-.003-.066-.126-.385-.32-.827.2-1.148.38-1.795zm-4.827 0l1.144.129.38.512c.25.243.26.647.255 1.154-.27.241-.305.57-.635.77-.24.256-.066.003-.381.128-.605.238-.73.002-1.27-.128-.297-.547-.5-.63-.509-1.539h.127v-.385l.254-.128v-.128h.127l.127-.256h.381V.897zM.508 1.41h.89c.276.468.503.448.507 1.282-.464.28-.443.51-1.27.513v-.128H.381L.254 2.82H.127c-.299-.628.24-1.17.381-1.41zm23.751 3.846h.89c.281.094.535.303.888.385l.508.641h.127c.146.22.54 1.427.381 1.923-.09.284-.301.54-.38.898l-.509.384v.128c-.535.376-1.227.389-2.159.385-.225-.254-.25-.108-.508-.256v-.129h-.254l-.254-.384h-.127v-.257l-.254-.128c-.255-.42-.26-1.11-.254-1.795h.127v-.384l.635-.898h.254l.127-.256.762-.128v-.129zm-7.62.513c.751-.011 1.113.143 1.65.257l.382.512h.127c.136.21.433 1.318.254 1.795h-.127l-.127.513h-.127l-.254.385c-.42.283-1.513.512-1.906.128-.37-.09-.296-.176-.508-.385-.61-.602-.668-.675-.635-1.923.23-.198.296-.554.508-.769.213-.214.566-.282.762-.513zm-5.843.513a6.749 6.749 0 011.397.128c.317.554.614.612.635 1.539h-.127l-.127.64c-.228.331-.94.508-1.524.514-.34-.382-.725-.268-.89-.898-.188-.204-.138-.755-.126-1.154.31-.198.078-.152.254-.384.102-.135.382-.226.508-.385zm-4.7.385l.636.128c.24.417.473.466.508 1.154-.528.457-.189.645-1.27.64-.399-.475-.624-.334-.636-1.281h.127V7.05l.254-.128v-.128h.382v-.128zm23.37 3.974h1.017c.282.093.536.303.889.385.311.51 1.359 1.332 1.016 2.435h-.127v.513h-.127c-.161.718-1.475 1.808-2.667 1.41-.282-.093-.537-.3-.89-.384l-.38-.513h-.128c-.369-.558-.383-1.236-.38-2.18.23-.2.108-.255.253-.512h.127v-.256l.509-.385v-.128h.253v-.129l.636-.128v-.128zm-5.588 3.846l-.381.128v.129h-.254v.128c-.346.127-1.244.012-1.397-.128-.72-.177-.699-.645-1.143-1.026-.015-.44-.085-1.178.127-1.41.217-.96 1.064-1.188 2.286-1.154.196.231.55.298.762.513.213.214.28.57.508.769l-.127 1.538h-.127c-.143.205-.173.22-.254.513zm-7.748-2.82c.395-.014.942-.06 1.143.128.393.09.54.25.636.64.36.352.167.723.127 1.283-.583.348-.549.723-1.525.77v-.129l-.635-.128c-.099-.184-.351-.514-.508-.641a6.941 6.941 0 01.127-1.41c.182-.1.51-.356.635-.513zm-4.826.384l.762.129c.442.73.66.555.254 1.538-.74.373-1.157.386-1.524-.385h-.127v-.64c.105-.279.454-.43.635-.642zm23.497 3.975h1.016c.282.093.536.303.89.384.172.313.485.424.634.641.147.214-.002.294.254.513l.127 1.026-.38 1.154-.636.512v.129c-.218.146-1.414.544-1.905.384-.282-.091-.536-.304-.89-.384l-.38-.513h-.127v-.257l-.254-.128c-.29-.561-.057-1.603 0-2.18.311-.198.078-.146.254-.384l.508-.384v-.129h.254v-.128l.635-.128v-.128zm-7.62.512c1.166-.042 2.067.134 2.286 1.026.266.261.264.736.254 1.282h-.127v.385l-.255.128c-.238.36-.15.513-.634.641-.265.311-.809.272-1.398.256v-.128h-.38l-.128-.256h-.254c-.145-.115-.296-.592-.508-.77-.039-.647-.172-1.102.127-1.666h.127v-.256l.89-.642zm-5.335.385c.45.037.62.173 1.016.257.1.183.352.514.508.64a6.935 6.935 0 01-.127 1.41c-.182.1-.51.356-.635.514a6.746 6.746 0 01-1.397-.129c-.19-.322-.783-.814-.635-1.41h.127l.127-.64.38-.257v-.128l.636-.129v-.128zm-5.208.513l.762.128c.285.494.387.403.382 1.282l-.381.257v.128h-.255v.128c-.608.198-1.389-.63-1.143-1.282.105-.278.454-.43.635-.641zM29.34 21.41c1.24-.023 1.667.022 2.287.641l.254.129v.256h.127c.12.157.095.247.254.384l.127 1.41h-.127v.385h-.127v.257l-.762.897-.508.128v.129c-1.056.455-2.594-.218-2.795-1.026-.414-.36-.395-1.127-.38-1.923l.634-1.026 1.017-.64zm-5.46.898c.08.293.11.308.253.512h.127v.385h.127c.208.649-.166 1.232-.254 1.667-.485.296-1.073 1.136-2.16.769v-.128h-.38v-.128c-.203-.145-.218-.175-.508-.257l-.127-.384h-.127v-.257h-.127c-.126-.349-.012-1.255.127-1.41.174-.727.638-.705 1.016-1.154h1.397v.128h.254v.129l.381.128zm-6.098.384v.257l.255.128v.513h.127c.087.384-.188.694-.254 1.025-.182.1-.51.356-.636.513A6.744 6.744 0 0115.876 25c-.099-.184-.351-.514-.508-.641a6.942 6.942 0 01.127-1.41c.527-.306.662-.6 1.525-.641v.128h.38v.128l.382.128zm-6.477.128c.559-.008.805.052 1.016.385.61.548-.228 1.831-1.016 1.539v-.129h-.254c-.146-.098-.533-.76-.381-1.153h.127v-.257h.127l.127-.256h.254v-.129zm11.685 8.077c-.08-.288-.107-.316-.254-.512h-.127l-.127-.641h-.127c-.267-.848.262-1.512.381-2.052l.508-.384v-.128h.254v-.129c.254-.147.31-.022.508-.256 1.298-.044 2.426.176 2.667 1.154.397.335.526 1.431.254 2.051-.41.936-1.275 1.572-2.667 1.538v-.128h-.38c-.308-.15-.497-.413-.89-.513zm-5.97-3.717c.58.044.911.272 1.398.384l.254.385h.127c.281.434.258 1.07.254 1.795-.398.36-.394.86-1.016 1.025-.276.287-.823.269-1.398.257-.196-.232-.55-.299-.762-.513-.212-.215-.279-.57-.508-.77-.016-.834.075-1.706.508-2.05h.254v-.129c.155-.123.245-.096.381-.256h.509v-.128zm-5.969.512c.78-.025 1.375.164 1.524.77.23.223.254.563.254 1.025-.378.344-.265.732-.889.898-.404.388-1.171-.042-1.524-.129l-.127-.384h-.127v-.257h-.127c-.229-.655.244-1.482.508-1.666.21-.148.287-.006.508-.257zm-5.08.513h.762l.254.385h.127v.256h.127c.226.707-.612 1.24-1.143 1.282-.286-.32-.488-.123-.636-.64-.509-.547.298-1.037.509-1.283zm12.7 3.974h1.398v.129l.635.128.508.64h.127l.254.77h.127c.225.638-.19 1.775-.381 2.051l-.508.385-.127.257c-.214.148-.287.003-.508.256-.715.007-1.346-.072-1.905-.128-.2-.318-.696-.488-.89-.77-.146-.213.001-.293-.253-.512-.045-.591-.17-.783 0-1.282v-.513h.127c.073-.3.425-.882.635-1.026h.254v-.128c.258-.149.284-.002.508-.257zm-6.985.385c.58.044.91.273 1.397.385l.254.384h.127c.282.435.258 1.07.254 1.795-.397.36-.394.861-1.016 1.026-.567.604-1.462.01-2.032-.128-.083-.153-.206-.182-.254-.257v-.256l-.254-.128-.127-1.41c.254-.221.107-.299.254-.514l.889-.769h.508v-.128zm-5.97.513c.643-.004.812.152 1.27.256.297.547.5.63.509 1.539h-.127v.256H7.24v.257c-.246.344-.889.513-1.525.512v-.128h-.38c-.128-.17-.255-.342-.382-.513-.253-.242-.003-.066-.127-.384-.247-.64-.027-1.045.381-1.41v-.129h.254v-.128h.254v-.128zm-5.08.513h.762c.287.495.491.432.508 1.282-.565.34-.381.517-1.397.513L.254 35H.127v-.385H0l.254-.769c.163-.075.272-.126.381-.256z" fill="#E24230"/></svg><svg viewBox="0 0 16 22" id="icon-pdf" xmlns="http://www.w3.org/2000/svg"><path fill-rule="evenodd" clip-rule="evenodd" d="M2.667 0h7.057c.354 0 .693.145.943.403L15.609 5.5c.25.258.39.607.391.972V19.25c0 .73-.281 1.429-.781 1.945-.5.515-1.178.805-1.886.805H2.667c-.708 0-1.386-.29-1.886-.805A2.794 2.794 0 010 19.25V2.75C0 2.02.281 1.321.781.805A2.626 2.626 0 012.667 0zM10 2.063v2.75c0 .364.14.714.39.972s.59.402.943.402H14l-4-4.125zm-7.113 16.73c.12.248.306.472.584.577.276.103.549.055.773-.042.424-.178.847-.6 1.235-1.08.444-.552.91-1.275 1.361-2.077.87-.266 1.761-.452 2.663-.558.4.527.813.98 1.213 1.306.373.303.804.555 1.245.574.24.012.479-.054.68-.19.207-.139.36-.34.472-.572.12-.249.194-.509.184-.774a1.181 1.181 0 00-.266-.712c-.302-.372-.795-.55-1.28-.64a7.45 7.45 0 00-1.78-.069 15.183 15.183 0 01-1.307-2.318c.333-.907.583-1.765.693-2.466.048-.3.074-.586.064-.845a1.746 1.746 0 00-.169-.74.956.956 0 00-.263-.324.92.92 0 00-.373-.177c-.27-.06-.547 0-.801.105-.503.207-.768.647-.868 1.132-.098.468-.054 1.012.061 1.562.117.558.317 1.166.573 1.78a27.467 27.467 0 01-1.416 3.063c-.687.223-1.35.52-1.976.887-.493.302-.932.66-1.196 1.082-.28.448-.366.982-.106 1.517z"/></svg><svg viewBox="0 0 38 37" id="icon-srv" xmlns="http://www.w3.org/2000/svg"><path fill-rule="evenodd" clip-rule="evenodd" d="M18.67 0h1.525v.128l.508.128v.129l.762.64v.257c.187.18.414 1.174.254 1.667h-.127l-.127.64-.762.642v.128c-.445.293-1.291.26-2.032.256-.227-.252-.25-.107-.508-.256v-.128h-.254l-.255-.385h-.127V3.59l-.254-.128v-.385h-.127L17.02 2.05h.128v-.64h.127c.074-.308.421-.874.635-1.026h.254l.127-.257h.38V0zm-8.128.897c.393-.105.66-.401 1.016-.512.561-.175 1 .175 1.397.256l.381.513h.127c.147.215-.002.294.254.513.035.519.194.944-.127 1.282-.134.657-.547.742-.889 1.154-.562.043-1.142.243-1.524-.129-.41-.096-.79-.487-.89-.897-.252-.243-.003-.066-.126-.385-.32-.827.2-1.148.38-1.795zm-4.827 0l1.144.129.38.512c.25.243.26.647.255 1.154-.27.241-.305.57-.635.77-.24.256-.066.003-.381.128-.605.238-.73.002-1.27-.128-.297-.547-.5-.63-.509-1.539h.127v-.385l.254-.128v-.128h.127l.127-.256h.381V.897zM.508 1.41h.89c.276.468.503.448.507 1.282-.464.28-.443.51-1.27.513v-.128H.381L.254 2.82H.127c-.299-.628.24-1.17.381-1.41zm23.751 3.846h.89c.281.094.535.303.888.385l.508.641h.127c.146.22.54 1.427.381 1.923-.09.284-.301.54-.38.898l-.509.384v.128c-.535.376-1.227.389-2.159.385-.225-.254-.25-.108-.508-.256v-.129h-.254l-.254-.384h-.127v-.257l-.254-.128c-.255-.42-.26-1.11-.254-1.795h.127v-.384l.635-.898h.254l.127-.256.762-.128v-.129zm-7.62.513c.751-.011 1.113.143 1.65.257l.382.512h.127c.136.21.433 1.318.254 1.795h-.127l-.127.513h-.127l-.254.385c-.42.283-1.513.512-1.906.128-.37-.09-.296-.176-.508-.385-.61-.602-.668-.675-.635-1.923.23-.198.296-.554.508-.769.213-.214.566-.282.762-.513zm-5.843.513a6.749 6.749 0 011.397.128c.317.554.614.612.635 1.539h-.127l-.127.64c-.228.331-.94.508-1.524.514-.34-.382-.725-.268-.89-.898-.188-.204-.138-.755-.126-1.154.31-.198.078-.152.254-.384.102-.135.382-.226.508-.385zm-4.7.385l.636.128c.24.417.473.466.508 1.154-.528.457-.189.645-1.27.64-.399-.475-.624-.334-.636-1.281h.127V7.05l.254-.128v-.128h.382v-.128zm23.37 3.974h1.017c.282.093.536.303.889.385.311.51 1.359 1.332 1.016 2.435h-.127v.513h-.127c-.161.718-1.475 1.808-2.667 1.41-.282-.093-.537-.3-.89-.384l-.38-.513h-.128c-.369-.558-.383-1.236-.38-2.18.23-.2.108-.255.253-.512h.127v-.256l.509-.385v-.128h.253v-.129l.636-.128v-.128zm-5.588 3.846l-.381.128v.129h-.254v.128c-.346.127-1.244.012-1.397-.128-.72-.177-.699-.645-1.143-1.026-.015-.44-.085-1.178.127-1.41.217-.96 1.064-1.188 2.286-1.154.196.231.55.298.762.513.213.214.28.57.508.769l-.127 1.538h-.127c-.143.205-.173.22-.254.513zm-7.748-2.82c.395-.014.942-.06 1.143.128.393.09.54.25.636.64.36.352.167.723.127 1.283-.583.348-.549.723-1.525.77v-.129l-.635-.128c-.099-.184-.351-.514-.508-.641a6.941 6.941 0 01.127-1.41c.182-.1.51-.356.635-.513zm-4.826.384l.762.129c.442.73.66.555.254 1.538-.74.373-1.157.386-1.524-.385h-.127v-.64c.105-.279.454-.43.635-.642zm23.497 3.975h1.016c.282.093.536.303.89.384.172.313.485.424.634.641.147.214-.002.294.254.513l.127 1.026-.38 1.154-.636.512v.129c-.218.146-1.414.544-1.905.384-.282-.091-.536-.304-.89-.384l-.38-.513h-.127v-.257l-.254-.128c-.29-.561-.057-1.603 0-2.18.311-.198.078-.146.254-.384l.508-.384v-.129h.254v-.128l.635-.128v-.128zm-7.62.512c1.166-.042 2.067.134 2.286 1.026.266.261.264.736.254 1.282h-.127v.385l-.255.128c-.238.36-.15.513-.634.641-.265.311-.809.272-1.398.256v-.128h-.38l-.128-.256h-.254c-.145-.115-.296-.592-.508-.77-.039-.647-.172-1.102.127-1.666h.127v-.256l.89-.642zm-5.335.385c.45.037.62.173 1.016.257.1.183.352.514.508.64a6.935 6.935 0 01-.127 1.41c-.182.1-.51.356-.635.514a6.746 6.746 0 01-1.397-.129c-.19-.322-.783-.814-.635-1.41h.127l.127-.64.38-.257v-.128l.636-.129v-.128zm-5.208.513l.762.128c.285.494.387.403.382 1.282l-.381.257v.128h-.255v.128c-.608.198-1.389-.63-1.143-1.282.105-.278.454-.43.635-.641zM29.34 21.41c1.24-.023 1.667.022 2.287.641l.254.129v.256h.127c.12.157.095.247.254.384l.127 1.41h-.127v.385h-.127v.257l-.762.897-.508.128v.129c-1.056.455-2.594-.218-2.795-1.026-.414-.36-.395-1.127-.38-1.923l.634-1.026 1.017-.64zm-5.46.898c.08.293.11.308.253.512h.127v.385h.127c.208.649-.166 1.232-.254 1.667-.485.296-1.073 1.136-2.16.769v-.128h-.38v-.128c-.203-.145-.218-.175-.508-.257l-.127-.384h-.127v-.257h-.127c-.126-.349-.012-1.255.127-1.41.174-.727.638-.705 1.016-1.154h1.397v.128h.254v.129l.381.128zm-6.098.384v.257l.255.128v.513h.127c.087.384-.188.694-.254 1.025-.182.1-.51.356-.636.513A6.744 6.744 0 0115.876 25c-.099-.184-.351-.514-.508-.641a6.942 6.942 0 01.127-1.41c.527-.306.662-.6 1.525-.641v.128h.38v.128l.382.128zm-6.477.128c.559-.008.805.052 1.016.385.61.548-.228 1.831-1.016 1.539v-.129h-.254c-.146-.098-.533-.76-.381-1.153h.127v-.257h.127l.127-.256h.254v-.129zm11.685 8.077c-.08-.288-.107-.316-.254-.512h-.127l-.127-.641h-.127c-.267-.848.262-1.512.381-2.052l.508-.384v-.128h.254v-.129c.254-.147.31-.022.508-.256 1.298-.044 2.426.176 2.667 1.154.397.335.526 1.431.254 2.051-.41.936-1.275 1.572-2.667 1.538v-.128h-.38c-.308-.15-.497-.413-.89-.513zm-5.97-3.717c.58.044.911.272 1.398.384l.254.385h.127c.281.434.258 1.07.254 1.795-.398.36-.394.86-1.016 1.025-.276.287-.823.269-1.398.257-.196-.232-.55-.299-.762-.513-.212-.215-.279-.57-.508-.77-.016-.834.075-1.706.508-2.05h.254v-.129c.155-.123.245-.096.381-.256h.509v-.128zm-5.969.512c.78-.025 1.375.164 1.524.77.23.223.254.563.254 1.025-.378.344-.265.732-.889.898-.404.388-1.171-.042-1.524-.129l-.127-.384h-.127v-.257h-.127c-.229-.655.244-1.482.508-1.666.21-.148.287-.006.508-.257zm-5.08.513h.762l.254.385h.127v.256h.127c.226.707-.612 1.24-1.143 1.282-.286-.32-.488-.123-.636-.64-.509-.547.298-1.037.509-1.283zm12.7 3.974h1.398v.129l.635.128.508.64h.127l.254.77h.127c.225.638-.19 1.775-.381 2.051l-.508.385-.127.257c-.214.148-.287.003-.508.256-.715.007-1.346-.072-1.905-.128-.2-.318-.696-.488-.89-.77-.146-.213.001-.293-.253-.512-.045-.591-.17-.783 0-1.282v-.513h.127c.073-.3.425-.882.635-1.026h.254v-.128c.258-.149.284-.002.508-.257zm-6.985.385c.58.044.91.273 1.397.385l.254.384h.127c.282.435.258 1.07.254 1.795-.397.36-.394.861-1.016 1.026-.567.604-1.462.01-2.032-.128-.083-.153-.206-.182-.254-.257v-.256l-.254-.128-.127-1.41c.254-.221.107-.299.254-.514l.889-.769h.508v-.128zm-5.97.513c.643-.004.812.152 1.27.256.297.547.5.63.509 1.539h-.127v.256H7.24v.257c-.246.344-.889.513-1.525.512v-.128h-.38c-.128-.17-.255-.342-.382-.513-.253-.242-.003-.066-.127-.384-.247-.64-.027-1.045.381-1.41v-.129h.254v-.128h.254v-.128zm-5.08.513h.762c.287.495.491.432.508 1.282-.565.34-.381.517-1.397.513L.254 35H.127v-.385H0l.254-.769c.163-.075.272-.126.381-.256z"/></svg><svg fill="none" viewBox="0 0 29 30" id="icon-up" xmlns="http://www.w3.org/2000/svg"><path fill-rule="evenodd" clip-rule="evenodd" d="M0 15.152v-1.213h.101l.101-.404h.101l.505-.606h.202c.143-.149.926-.329 1.314-.202v.101l.505.101.505.606h.102c.23.354.204 1.027.202 1.617-.2.18-.085.198-.202.404h-.102v.202l-.303.202v.1H2.83l-.1.203h-.304v.1l-.808.102v-.101H1.11v-.101c-.242-.06-.688-.336-.808-.505v-.202l-.202-.101v-.303H0zm.707 6.464c-.083-.312-.316-.525-.404-.808-.138-.446.138-.795.202-1.111l.404-.303v-.101c.17-.117.232.002.405-.202.408-.028.743-.155 1.01.1.518.107.585.436.91.708.033.447.192.909-.102 1.212-.075.326-.384.628-.707.707-.191.202-.052.003-.303.101-.652.255-.905-.16-1.415-.303zm0 3.838l.101-.909.405-.303c.19-.197.51-.206.909-.202.19.215.448.243.606.506.202.19.003.051.101.303.188.48.002.579-.1 1.01-.432.236-.497.397-1.213.404v-.101h-.303l-.102-.202h-.1v-.101l-.203-.101v-.303h-.1zm.404 4.142v-.707c.37-.22.353-.401 1.01-.404.221.369.402.352.405 1.01h-.1v.202l-.203.101v.101c-.494.238-.921-.192-1.112-.303zm3.032-18.889V10c.073-.224.238-.426.303-.707l.505-.404v-.101c.174-.116 1.125-.429 1.516-.303.224.072.426.24.707.303l.303.404h.101c.296.425.306.976.303 1.717-.2.18-.084.199-.202.404h-.1v.202l-.304.202v.101h-.202l-.101.202c-.33.203-.876.207-1.415.202v-.1h-.303c-.235-.17-.471-.338-.707-.506v-.202l-.202-.1-.101-.607h-.101zm.404 6.06c-.01-.597.113-.885.202-1.313l.404-.303v-.1c.165-.109 1.038-.345 1.415-.203v.101l.404.101v.101l.303.203c.224.334.404 1.202.101 1.515-.071.295-.138.235-.303.404-.475.486-.532.53-1.516.505-.156-.182-.437-.235-.606-.404-.169-.17-.222-.45-.404-.606zm.404 4.647a5.414 5.414 0 01.101-1.111c.436-.252.482-.488 1.213-.505v.101L6.77 20c.26.181.4.747.404 1.212-.3.27-.21.576-.707.707-.161.15-.596.11-.91.101-.156-.247-.12-.062-.303-.202-.106-.081-.177-.303-.303-.404zm.303 3.737l.101-.505c.33-.19.367-.376.91-.404.36.42.508.15.505 1.01-.375.317-.264.497-1.01.506v-.101h-.203l-.1-.203h-.102v-.303h-.1zM8.387 6.566v-.808c.073-.225.238-.427.303-.707.402-.248 1.05-1.081 1.92-.809v.101h.404v.101c.565.128 1.424 1.174 1.111 2.122-.074.224-.237.427-.303.707l-.404.303v.1c-.44.294-.974.306-1.718.304-.158-.183-.201-.087-.404-.202v-.101h-.202l-.303-.404H8.69V7.07h-.101l-.101-.505h-.101zm3.031 4.444l.101.303h.101v.202h.101c.1.275.01.99-.1 1.111-.14.573-.509.556-.81.91-.346.011-.927.067-1.11-.102-.757-.172-.937-.846-.91-1.818.182-.156.235-.437.404-.606.17-.169.45-.222.606-.404l1.213.101v.101c.161.114.173.138.404.202zm-2.223 6.162c-.011-.314-.047-.749.101-.91.071-.311.197-.43.505-.504.277-.287.57-.133 1.01-.101.275.463.57.436.607 1.212h-.101l-.101.505a2.21 2.21 0 00-.505.404 5.423 5.423 0 01-1.112-.101 2.211 2.211 0 00-.404-.505zm.303 3.838l.101-.606c.575-.352.438-.525 1.213-.202.294.588.304.92-.303 1.212v.101h-.506c-.219-.083-.338-.36-.505-.505zm3.133-18.687v-.808c.073-.224.238-.426.303-.707.246-.137.334-.386.505-.505.168-.117.232.002.404-.202L14.651 0l.91.303.404.505h.101c.116.174.429 1.125.303 1.515-.072.224-.24.426-.303.707l-.404.303v.101h-.202l-.101.202c-.443.23-1.264.046-1.718 0-.157-.247-.116-.062-.303-.202l-.303-.404h-.101v-.202h-.101l-.101-.505h-.101zm.404 6.06c-.034-.927.105-1.644.808-1.817.206-.212.58-.21 1.01-.202v.1h.304l.1.203c.284.19.405.12.506.505.245.21.214.642.202 1.11h-.101v.304l-.202.1v.203c-.09.115-.467.236-.606.404-.51.03-.87.137-1.314-.101V9.09h-.202l-.505-.707zm.303 4.243c.029-.357.136-.493.202-.808a2.21 2.21 0 00.505-.404c.437-.006.8.042 1.112.101.079.145.28.405.404.505.006.437-.042.799-.101 1.111-.254.151-.642.623-1.112.505v-.1l-.505-.102-.202-.303h-.101l-.101-.505h-.101zm.404 4.142l.101-.606c.39-.227.318-.307 1.01-.303l.203.303h.1v.202h.102c.156.484-.497 1.104-1.01.909-.22-.084-.34-.361-.506-.505zm3.132-10.101c-.018-.987.018-1.326.506-1.819l.1-.202h.203v-.1c.124-.097.195-.076.303-.203l1.111-.1v.1h.303v.101h.203l.707.607.1.404h.102c.36.839-.172 2.062-.808 2.222-.284.33-.889.315-1.516.303l-.808-.505-.506-.808zm.708 4.343c.23-.064.243-.088.404-.202v-.1h.303v-.102c.511-.165.971.132 1.314.202.233.386.895.853.606 1.717h-.101v.303h-.101c-.114.162-.138.173-.202.404l-.303.101v.101h-.203v.101c-.275.1-.989.01-1.111-.1-.573-.14-.556-.508-.91-.809v-1.11h.102v-.203h.1l.102-.303zm.303 4.849h.202l.1-.202h.405v-.101c.303-.07.547.149.809.202.078.144.28.405.404.505.006.436-.042.798-.101 1.11a2.21 2.21 0 00-.506.405 5.423 5.423 0 01-1.111-.101c-.241-.42-.472-.527-.505-1.212h.1v-.303h.102l.1-.303zm.1 5.151c-.006-.444.041-.64.304-.808.432-.485 1.443.181 1.212.808h-.1v.202c-.078.116-.6.424-.91.303v-.1h-.202v-.102l-.202-.1v-.203h-.101zm6.367-9.293c-.227.064-.25.085-.404.202v.101l-.506.101v.101c-.668.212-1.19-.208-1.616-.303l-.304-.404h-.1v-.202h-.102c-.116-.202-.017-.247-.202-.404-.035-1.032.14-1.93.91-2.121.264-.316 1.128-.418 1.616-.202.738.326 1.24 1.014 1.213 2.121h-.101v.303c-.119.245-.326.395-.404.707zm-2.93 4.748c.034-.462.214-.724.302-1.111l.304-.202v-.101c.342-.224.843-.206 1.414-.203.284.316.679.314.809.809.226.219.211.654.202 1.11-.183.157-.235.438-.404.607-.17.169-.45.222-.607.404-.658.012-1.345-.06-1.616-.404v-.202h-.102c-.096-.123-.075-.195-.202-.303v-.404h-.1zm.404 4.747c-.02-.62.129-1.094.606-1.212.176-.182.444-.201.808-.202.27.3.577.21.708.707.306.321-.033.932-.102 1.212l-.303.101v.101h-.202v.101c-.516.182-1.168-.194-1.313-.404-.116-.167-.005-.228-.202-.404zm.404 4.04v-.605l.303-.203v-.1h.202v-.102c.557-.18.977.487 1.01.91-.252.226-.097.387-.505.505-.43.404-.817-.237-1.01-.404zm3.132-10.1V14.04h.101l.101-.505.505-.404v-.1l.607-.203v-.1c.502-.18 1.399.15 1.616.302l.303.404.203.101c.116.17.003.229.202.404.005.569-.057 1.07-.101 1.515-.25.16-.385.554-.607.708-.168.116-.23-.001-.404.202-.465.035-.617.134-1.01 0h-.404v-.101c-.237-.059-.695-.339-.809-.505v-.202h-.1c-.118-.206-.002-.226-.203-.404zm.303 5.555c.035-.461.215-.724.303-1.111l.303-.202v-.101c.343-.224.844-.205 1.415-.202.284.316.679.313.808.808.477.451.009 1.163-.1 1.616-.121.066-.144.164-.203.202h-.202l-.1.202-1.112.101c-.174-.202-.235-.085-.405-.202l-.606-.707v-.404h-.1zm.404 4.747c-.002-.51.12-.645.203-1.01.43-.236.496-.397 1.212-.404v.101h.202v.101h.202c.272.195.405.707.404 1.212h-.1v.304l-.405.303c-.191.2-.052.003-.303.1-.504.197-.824.023-1.112-.302h-.1v-.202h-.102v-.203h-.1zm.405 4.04v-.605c.39-.228.34-.39 1.01-.404.268.45.408.303.404 1.111l-.303.202v.101h-.303V30l-.606-.202c-.06-.13-.1-.216-.202-.303z" fill="#fff"/></svg><svg viewBox="0 0 150 45" id="logo" xmlns="http://www.w3.org/2000/svg"><g clip-path="url(#pclip0_36_901)" fill-rule="evenodd" clip-rule="evenodd"><path d="M52.074.128v27.564h-7.366V.256c.581-.215 1.628-.128 2.413-.128h4.953zm3.684 0h28.45c.19.524.127 1.456.127 2.18v4.359c-.836.308-2.368.128-3.43.128h-7.239v20.897H66.3V6.795H55.758V.128zm52.963 7.18v6.154c-.783-.082-1.825-.426-2.54-.641l-2.667-.257v-.128h-1.397v-.128c-.623-.175-3.228-.002-3.684.128h-1.016v.128h-.508v.128l-.762.129v.128l-.508.128v.128h-.254l-.127.257-.635.512-.254.77h-.127l-.127 2.564c0 1.384-.048 2.758.508 3.59l.508.384.254.385h.254l.127.256h.381v.128h.254v.129h.381v.128l1.397.128v.128h1.906c1.663 0 3.387-.002 4.699-.384h.889v-.129h.635v-.128h.635v-.128l1.778-.385v6.154l-.889.128v.129h-.635v.128h-.762v.128h-.762v.128h-.889v.128h-1.143v.129h-1.778v.128c-.648.182-3.455.008-3.938-.128h-1.524v-.129h-.889v-.128h-.635v-.128h-.508v-.128h-.381v-.128h-.381v-.129h-.381v-.128h-.254v-.128h-.381v-.128l-.508-.128v-.129h-.254l-.127-.256-.508-.128-.254-.385h-.254l-.381-.513-1.016-.897v-.256l-.254-.129v-.256l-.254-.128-.127-.513h-.127v-.257H88.4v-.384h-.128v-.385h-.127v-.384h-.126v-.513h-.128v-.513h-.127v-.77h-.126v-4.486c0-1.78.362-3.03.889-4.231v-.385h.127v-.256l.254-.128.127-.513.38-.257v-.256l.509-.385.762-.897h.254l.127-.257.38-.128v-.128l.509-.128V7.82h.254l.127-.257h.38v-.128h.255v-.128l.635-.128V7.05h.381v-.128h.508v-.128h.508v-.128h.635v-.128h1.016V6.41h2.287v-.128h1.651v.128h2.794v.129h1.27v.128h.889v.128h.762v.128h.762c.5.152 1.017.35 1.651.385zm15.877-1.026l4.953.257v.128h.635v.128h.635v.128h.381v.128h.381v.129l.762.128v.128l.762.256v.129l.508.128v.128l.381.128.128.257h.254l.381.512h.254l.381.513h.127v.257l.508.384v.257l.254.128.127.513.254.128v.385h.127l.127.512h.127l.508 2.18v1.026h.127v1.281c0 1.028.102 2.39-.127 3.206v1.025h-.127v.641h-.127v.513h-.127v.513h-.127v.385h-.127v.256h-.127v.385h-.127v.256h-.127v.256l-.254.129v.256l-.254.128v.257l-.381.256v.256l-.762.642-.127.256h-.254l-.254.384h-.255l-.127.257-.508.128v.128h-.254v.129l-.762.256v.128h-.381v.128h-.254v.129h-.381v.128h-.508v.128h-.508c-.912.297-2.422.486-3.556.513-5.433.13-9.481-.7-11.685-3.846l-.381-.257-.127-.513-.254-.128v-.256h-.127v-.257h-.127l-.127-.769c-.678-1.753-.636-3.676-.635-6.154 0-1.702.167-2.922.635-4.102v-.385c1.292-2.974 3.493-4.253 6.731-5.256l2.541-.257c.451-.001 1.147.09 1.397-.128zm-.635 6.026c-.3.253-1.106.104-1.525.256v.128h-.381v.129h-.254v.128h-.254v.128h-.254l-.127.256h-.254l-.381.513h-.127v.257l-.254.128v.256h-.127v.385h-.127l-.127 2.308c0 1.387-.042 2.89.508 3.718l.381.256c1.063 1.088 2.426 1.41 4.573 1.41h1.905v-.128h.889v-.128h.508v-.128h.381v-.129l.508-.128v-.128h.254l.127-.257h.254c.264-.19.902-1.304 1.016-1.666v-1.41h.127V16.41h-.127c-.176-.627.094-1.286-.127-1.794h-.127l-.127-.513-.254-.129v-.256l-.254-.128v-.128h-.254l-.127-.257-.381-.128v-.128c-1.262-.68-3.496-.667-5.461-.641zM86.494 33.333h1.397v8.847h-1.397v-8.847zm13.591 0h1.397v3.59h.127c.377-.691.921-.92 2.032-.897.148.174.232.196.508.256.129.241.412.527.508.77.363.92.128 3.855.127 5.128h-1.397v-3.975h-.127l-.127-.769c-.394-.21-.228-.243-.889-.256-.117.147-.324.174-.381.256-.585.831-.388 3.315-.381 4.744h-1.397v-8.847zm30.101 0h1.524v8.847h-1.524v-8.847zm14.987 0h1.525v3.59h.127c.12-.517 1.146-1.242 2.032-.897v.128h.254v.128l.381.128.127.385h.127v.385h.127v.512H150v4.488h-1.397c.016-1.675-.007-3.406-.254-4.744l-.381-.128v-.128h-.508c-.133.166-.26.19-.381.384-.599.607-.392 3.35-.381 4.616h-1.525v-8.847zm-101.354.513h1.524v1.282h-1.524v-1.282zm17.527 0h1.524v1.282h-1.524v-1.282zM32.388 42.18v-8.077c.639-.24 1.818-.135 2.667-.129.257.221.798.119 1.143.257v.128h.381v.128l.508.128.127.257.762.64c.192.29.487 1.348.508 1.796.148 3.07-.819 4.207-3.048 4.872h-3.048zm37.722-7.82v1.794h1.27v1.026h-1.143c-.284.772-.133 2.21-.127 3.205h.127v.513c.338.18.536.26 1.143.256-.002.46.064.694.127 1.026-1.047.208-1.649.26-2.286-.385l-.254-.128c-.463-.718-.277-3.292-.254-4.487h-.89v-1.026h.89v-1.282l.38-.128c.182-.185.71-.327 1.017-.385zm68.84 0v1.794h1.27v1.026h-1.143c-.307.837-.134 2.396-.127 3.461.535.458.174.529 1.27.513v1.026c-.676.129-1.226.069-1.905 0-.268-.452-.592-.427-.635-1.154-.191-.216-.127-.747-.127-1.154V37.18h-1.016v-.898c.294-.112.559-.13 1.016-.128v-1.41l1.397-.385zM33.912 41.025l1.651-.129v-.128h.254v-.128c.195-.148.222-.175.508-.256.103-.397.388-.666.508-1.026v-.641h.127c.272-.957-.248-1.896-.38-2.564l-.636-.513v-.128c-.405-.272-1.245-.377-1.905-.385-.18.493-.127 1.362-.127 2.052v3.846zm20.449-4.36v-.512h1.397c.046 2.307.33 6.715-.635 7.949l-.381.128-.127.256-.635.128v.129h-.636v.128c-.497.142-2.097-.203-2.286-.385h-.127v-1.025c.145-.146.05 0 .127-.257h.127c.282.329 1.9.619 2.413.385l.127-.257h.255l.127-.384h.127l.127-1.539h-.127c-.377.691-.922.797-2.033.77-.386-.436-.96-.454-1.143-1.154h-.127l-.127-.77c-.544-1.562.195-3.607 1.143-4.102h.381v-.128c1.011-.325 1.454.471 2.033.64zm26.672 5.514h-1.27v-.642h-.254c-.073.258.015.111-.127.257-.419.555-1.857.726-2.54.256v-.128c-.415-.345-.279-.252-.508-.77h-.127c-.123-.349-.016-1.255.127-1.41l.126-.384h.128c.226-.329-.138-.245.38-.385.492-.58 1.584-.527 2.668-.512.008-.652-.114-.922-.508-1.154-.574-.605-1.718.039-2.413.128V36.41c.144-.108.018.017.126-.128.62-.064 1.748-.515 2.54-.256.283.092.536.305.89.384l.635 1.026v1.538c0 1.138.103 2.236.127 3.206zm33.912-2.565h-3.556c.036.454.171.627.254 1.026.411.23.501.474 1.143.513v.128c.217.126 1.451-.229 1.778-.256v1.025c-.144.109-.019-.016-.127.129l-1.651.256v-.128h-.762c-.283-.095-.535-.305-.889-.385l-.509-.64h-.127v-.257a59.886 59.886 0 00-.254-.129c-.356-.685-.315-2.762 0-3.461h.127v-.256h.127c.147-.197.175-.225.254-.513.286-.08.314-.108.509-.257v-.128l.635-.128v-.128c.747-.241 1.545.157 2.032.256l.508.641h.127c.378.585.382 1.72.381 2.692zm9.78 2.565h-1.143v-.642c-.333.09-.408.203-.635.385v.128l-.509.129v.128h-1.27v-.128h-.381l-.762-.898-.127-1.025c.076-.319.302-.668.381-1.026.154-.084.18-.207.254-.257h.254l.127-.256c.595-.317 1.64-.257 2.541-.256-.019-.534-.16-.606-.254-1.026l-.381-.128v-.128h-.254v-.129c-.598-.208-1.494.322-2.033.385V36.41h.127v-.128c.615-.064 1.714-.521 2.541-.256v.128l.635.128c.268.462.697.679.889 1.282v4.616zm-80.78-6.026h1.398v6.026h-1.397v-6.026zm17.401 0h1.524v6.026h-1.524v-6.026zm-8.764 1.154l-.254.769h-.127v.77c-.01.268-.032.13-.127.256v.128h.127c.177.923-.075 1.57.763 1.795v.128h.508c.252-.302.512-.301.635-.77.577-.561.133-2.199 0-2.82-.24-.143-.599-.605-1.017-.513v.129l-.508.128zm58.807 1.282h2.286c-.035-.242-.126-.252-.127-.257v-.64h-.127c-.136-.607-.506-.67-1.27-.642-.183.316-.399.358-.508.77h-.127l-.127.769zm-32.134 2.436l.127-.385h.127l.127-1.282-1.651.128c-.277.468-.505.448-.508 1.282h.127v.257h.127l.127.256h1.016c.143-.22.08-.174.38-.256zm44.2-1.667c-.877-.015-1.288.127-1.906.256-.169.383-.255.648-.254 1.282.518.304.477.395 1.398.385.182-.316.398-.357.508-.77.248-.242.26-.646.254-1.153z"/><path d="M18.67 4.103h1.525v.128l.508.128v.128l.762.641v.257c.187.18.414 1.174.254 1.666h-.127l-.127.641-.762.641v.129c-.445.292-1.291.259-2.032.256-.227-.252-.25-.108-.508-.256v-.129h-.254l-.255-.384h-.127v-.257l-.254-.128V7.18h-.127l-.127-1.025h.128v-.641h.127c.074-.308.421-.873.635-1.026h.254l.127-.256h.38v-.128zM10.543 5c.393-.105.66-.402 1.016-.513.561-.175 1 .175 1.397.257l.381.512h.127c.147.216-.002.294.254.513.035.519.194.944-.127 1.282-.134.657-.547.743-.889 1.154-.562.043-1.142.244-1.524-.128-.41-.096-.79-.487-.89-.898-.252-.242-.003-.066-.126-.384-.32-.827.2-1.148.38-1.795zM5.715 5l1.144.128.38.513c.25.243.26.647.255 1.154-.27.241-.305.569-.635.77-.24.255-.066.003-.381.127-.605.239-.73.003-1.27-.128-.297-.546-.5-.63-.509-1.538h.127V5.64l.254-.128v-.128h.127l.127-.257h.381V5zm-5.207.513h.89c.276.468.503.447.507 1.282-.464.28-.443.509-1.27.513v-.129H.381l-.127-.256H.127c-.299-.627.24-1.17.381-1.41zm23.751 3.846h.89c.281.093.535.303.888.385l.508.64h.127c.146.221.54 1.428.381 1.924-.09.284-.301.54-.38.897l-.509.385v.128c-.535.376-1.227.388-2.159.384-.225-.253-.25-.107-.508-.256v-.128h-.254l-.254-.385h-.127v-.256l-.254-.128c-.255-.42-.26-1.111-.254-1.795h.127v-.385l.635-.897h.254l.127-.257.762-.128V9.36zm-7.62.513c.751-.012 1.113.143 1.65.256l.382.513h.127c.136.209.433 1.317.254 1.795h-.127l-.127.513h-.127l-.254.384c-.42.284-1.513.513-1.906.128-.37-.09-.296-.175-.508-.384-.61-.602-.668-.676-.635-1.923.23-.198.296-.555.508-.77.213-.214.566-.282.762-.512zm-5.843.513a6.746 6.746 0 011.397.128c.317.553.614.611.635 1.538h-.127l-.127.641c-.228.33-.94.507-1.524.513-.34-.382-.725-.268-.89-.897-.188-.205-.138-.756-.126-1.154.31-.198.078-.153.254-.385.102-.135.382-.225.508-.384zm-4.7.384l.636.128c.24.418.473.466.508 1.154-.528.458-.189.645-1.27.641-.399-.475-.624-.335-.636-1.282h.127v-.256l.254-.128v-.129h.382v-.128zm23.37 3.975h1.017c.282.093.536.303.889.384.311.51 1.359 1.332 1.016 2.436h-.127v.513h-.127c-.161.717-1.475 1.807-2.667 1.41-.282-.094-.537-.3-.89-.384l-.38-.513h-.128c-.369-.558-.383-1.236-.38-2.18.23-.201.108-.255.253-.513h.127v-.256l.509-.385v-.128h.253V15l.636-.128v-.128zm-5.588 3.846l-.381.128v.128h-.254v.128c-.346.128-1.244.012-1.397-.128-.72-.176-.699-.644-1.143-1.026-.015-.44-.085-1.177.127-1.41.217-.96 1.064-1.187 2.286-1.154.196.232.55.299.762.513.213.215.28.57.508.77l-.127 1.538h-.127c-.143.205-.173.22-.254.513zm-7.748-2.82c.395-.015.942-.061 1.143.127.393.09.54.25.636.641.36.352.167.723.127 1.282-.583.349-.549.724-1.525.77v-.128l-.635-.129c-.099-.183-.351-.514-.508-.64a6.942 6.942 0 01.127-1.411c.182-.1.51-.355.635-.513zm-4.826.384l.762.128c.442.73.66.555.254 1.538-.74.374-1.157.386-1.524-.384h-.127v-.641c.105-.278.454-.43.635-.641zm23.497 3.974h1.016c.282.093.536.303.89.385.172.312.485.423.634.64.147.215-.002.295.254.514l.127 1.025-.38 1.154-.636.513v.128c-.218.147-1.414.545-1.905.385-.282-.092-.536-.305-.89-.385l-.38-.513h-.127v-.256l-.254-.128c-.29-.561-.057-1.604 0-2.18.311-.199.078-.147.254-.384l.508-.385v-.128h.254v-.128l.635-.129v-.128zm-7.62.513c1.166-.042 2.067.134 2.286 1.026.266.26.264.736.254 1.282h-.127v.384l-.255.129c-.238.359-.15.513-.634.64-.265.312-.809.273-1.398.257v-.128h-.38l-.128-.257h-.254c-.145-.114-.296-.591-.508-.769-.039-.647-.172-1.103.127-1.667h.127v-.256l.89-.641zm-5.335.385c.45.036.62.172 1.016.256.1.184.352.514.508.641a6.934 6.934 0 01-.127 1.41c-.182.1-.51.355-.635.513a6.746 6.746 0 01-1.397-.128c-.19-.322-.783-.814-.635-1.41h.127l.127-.641.38-.257v-.128l.636-.128v-.128zm-5.208.512l.762.129c.285.493.387.402.382 1.282-.128.085-.255.17-.381.256v.128h-.255v.129c-.608.197-1.389-.63-1.143-1.282.105-.279.454-.43.635-.642zm12.701 3.975c1.24-.023 1.667.022 2.287.64.084.044.169.086.254.129v.256h.127c.12.158.095.248.254.385l.127 1.41h-.127v.385h-.127v.256l-.762.898-.508.128v.128c-1.056.456-2.594-.218-2.795-1.026-.414-.36-.395-1.127-.38-1.922l.634-1.026 1.017-.641zm-5.46.897c.08.293.11.309.253.513h.127v.385h.127c.208.648-.166 1.232-.254 1.666-.485.297-1.073 1.136-2.16.77v-.129h-.38v-.128c-.203-.144-.218-.175-.508-.256l-.127-.385h-.127v-.256h-.127c-.126-.35-.012-1.256.127-1.41.174-.727.638-.706 1.016-1.154h1.397v.128h.254v.128l.381.128zm-6.098.385v.256l.255.129v.512h.127c.087.384-.188.694-.254 1.026-.182.1-.51.355-.636.513a6.744 6.744 0 01-1.397-.129c-.099-.183-.351-.514-.508-.64a6.941 6.941 0 01.127-1.41c.527-.306.662-.6 1.525-.642v.128h.38v.129l.382.128zm-6.477.128c.559-.009.805.052 1.016.385.61.548-.228 1.83-1.016 1.538v-.128h-.254c-.146-.099-.533-.76-.381-1.154h.127v-.256h.127l.127-.257h.254v-.128zM22.989 35c-.08-.288-.107-.317-.254-.513h-.127l-.127-.64h-.127c-.267-.849.262-1.512.381-2.052l.508-.385v-.128h.254v-.128c.254-.147.31-.022.508-.257 1.298-.044 2.426.177 2.667 1.154.397.336.526 1.432.254 2.051-.41.936-1.275 1.573-2.667 1.539v-.128h-.38c-.308-.151-.497-.413-.89-.513zm-5.97-3.718c.58.044.911.273 1.398.385l.254.384h.127c.281.435.258 1.07.254 1.795-.398.36-.394.861-1.016 1.026-.276.286-.823.268-1.398.256-.196-.231-.55-.298-.762-.513-.212-.214-.279-.57-.508-.769-.016-.835.075-1.706.508-2.051h.254v-.128c.155-.123.245-.096.381-.257h.509v-.128zm-5.969.513c.78-.025 1.375.164 1.524.77.23.222.254.562.254 1.025-.378.343-.265.731-.889.897-.404.389-1.171-.041-1.524-.128l-.127-.385h-.127v-.256h-.127c-.229-.656.244-1.482.508-1.667.21-.147.287-.005.508-.256zm-5.08.513h.762l.254.384h.127v.257h.127c.226.707-.612 1.24-1.143 1.282-.286-.32-.488-.123-.636-.641-.509-.546.298-1.037.509-1.282zm12.7 3.974h1.398v.128l.635.128.508.642h.127l.254.769h.127c.225.637-.19 1.775-.381 2.051l-.508.385-.127.256c-.214.148-.287.004-.508.256-.715.007-1.346-.072-1.905-.128-.2-.317-.696-.488-.89-.769-.146-.213.001-.293-.253-.513-.045-.59-.17-.783 0-1.282v-.513h.127c.073-.3.425-.881.635-1.025h.254v-.129c.258-.148.284-.001.508-.256zm-6.985.385c.58.044.91.272 1.397.384l.254.385h.127c.282.434.258 1.07.254 1.795-.397.36-.394.86-1.016 1.025-.567.605-1.462.011-2.032-.128-.083-.153-.206-.182-.254-.256v-.257l-.254-.128-.127-1.41c.254-.22.107-.298.254-.513l.889-.77h.508v-.127zm-5.97.512c.643-.003.812.152 1.27.257.297.546.5.63.509 1.538h-.127v.257H7.24v.256c-.246.344-.889.514-1.525.513v-.128h-.38l-.382-.513c-.253-.243-.003-.066-.127-.385-.247-.64-.027-1.045.381-1.41v-.128h.254v-.128h.254v-.129zm-5.08.513h.762c.287.496.491.433.508 1.282-.565.34-.381.518-1.397.513l-.254-.385H.127v-.384H0l.254-.77c.163-.075.272-.126.381-.256z" fill="#E24230"/></g><defs><clipPath id="pclip0_36_901"><path d="M0 0h150v45H0z"/></clipPath></defs></svg><svg viewBox="0 0 14 24" id="nav-left" xmlns="http://www.w3.org/2000/svg"><path d="M11.226 23.525L.355 12.887a1.101 1.101 0 01-.274-.412A1.368 1.368 0 010 12c0-.169.027-.327.081-.475.054-.148.145-.285.274-.412L11.225.444c.302-.295.678-.443 1.13-.443.451 0 .838.158 1.161.475.323.317.484.686.484 1.108 0 .422-.161.792-.484 1.108L4.032 12l9.484 9.309c.301.295.452.66.452 1.091 0 .434-.162.808-.484 1.125a1.562 1.562 0 01-1.13.475c-.43 0-.806-.158-1.128-.475z"/></svg><svg viewBox="0 0 14 24" id="nav-right" xmlns="http://www.w3.org/2000/svg"><path d="M2.774 23.525l10.871-10.638c.13-.127.22-.264.274-.412.054-.148.081-.306.081-.475 0-.169-.027-.327-.081-.475a1.101 1.101 0 00-.274-.412L2.775.444C2.472.148 2.096 0 1.644 0 1.194 0 .806.158.484.475.16.792 0 1.16 0 1.583c0 .422.161.792.484 1.108L9.968 12 .484 21.309A1.47 1.47 0 00.032 22.4c0 .434.162.808.484 1.125.323.317.699.475 1.13.475.43 0 .806-.158 1.128-.475z"/></svg><svg fill="none" viewBox="0 0 111 108" id="step-icon" xmlns="http://www.w3.org/2000/svg"><path fill-rule="evenodd" clip-rule="evenodd" d="M54.94 0h4.484v.376l1.495.377v.376l2.243 1.881v.753c.55.53 1.218 3.446.747 4.892h-.374l-.373 1.882-2.243 1.881v.376c-1.309.86-3.8.762-5.98.753-.667-.74-.734-.316-1.495-.753v-.376h-.747l-.748-1.129h-.373v-.752l-.748-.377V9.031h-.373l-.374-3.01h.373V4.139h.374c.22-.902 1.242-2.562 1.869-3.01h.747l.374-.753h1.121V0zM31.02 2.634c1.155-.308 1.942-1.18 2.99-1.505 1.652-.513 2.941.514 4.111.753l1.121 1.505h.374c.433.631-.007.862.748 1.505.103 1.523.571 2.77-.374 3.763-.394 1.928-1.609 2.179-2.616 3.387-1.653.126-3.362.715-4.485-.377-1.206-.282-2.322-1.43-2.616-2.634-.745-.712-.01-.194-.374-1.129-.943-2.428.592-3.37 1.121-5.268zm-14.202 0l3.364.376 1.121 1.506c.731.712.765 1.898.747 3.386-.794.708-.896 1.67-1.868 2.258-.706.753-.192.01-1.121.377-1.78.7-2.145.007-3.738-.377-.873-1.604-1.472-1.85-1.495-4.515h.374v-1.13l.748-.376v-.376h.373l.374-.753h1.121v-.376zM1.495 4.14H4.11c.815 1.375 1.484 1.314 1.495 3.763-1.365.821-1.305 1.495-3.737 1.506V9.03H1.12L.747 8.28H.374c-.88-1.84.708-3.432 1.121-4.14zm69.889 11.29H74c.83.273 1.578.888 2.616 1.128l1.495 1.882h.374c.428.647 1.587 4.19 1.121 5.644-.267.835-.888 1.587-1.121 2.635l-1.495 1.128v.377c-1.574 1.102-3.61 1.14-6.354 1.129-.663-.746-.735-.316-1.495-.753v-.376h-.747l-.748-1.13h-.373v-.752l-.748-.376c-.75-1.231-.765-3.26-.747-5.268h.373v-1.13l1.87-2.633h.747l.373-.753 2.243-.376v-.377zM48.96 16.933c2.212-.035 3.275.419 4.858.752l1.121 1.505h.374c.4.614 1.275 3.866.748 5.269h-.374l-.374 1.505h-.374l-.747 1.129c-1.236.832-4.45 1.504-5.606.376-1.091-.266-.872-.516-1.495-1.129-1.798-1.768-1.966-1.983-1.869-5.644.674-.582.87-1.629 1.495-2.258.625-.63 1.663-.828 2.243-1.505zm-17.192 1.505a19.903 19.903 0 014.11.376c.934 1.624 1.806 1.794 1.87 4.516h-.374L37 25.212c-.67.97-2.765 1.489-4.485 1.506-1.002-1.12-2.132-.786-2.616-2.635-.555-.6-.408-2.217-.374-3.386.914-.582.231-.449.748-1.13.3-.395 1.123-.661 1.495-1.128zm-13.829 1.129l1.87.376c.707 1.225 1.393 1.367 1.494 3.387-1.553 1.342-.555 1.893-3.737 1.881-1.172-1.395-1.836-.982-1.869-3.763h.374v-.752l.747-.377v-.376h1.121v-.376zm68.768 11.665h2.99c.83.274 1.577.89 2.616 1.129.916 1.497 3.999 3.91 2.99 7.15h-.374v1.505h-.373c-.474 2.105-4.341 5.305-7.849 4.14-.828-.276-1.58-.883-2.616-1.13l-1.121-1.505h-.374c-1.086-1.638-1.13-3.627-1.121-6.397.676-.59.32-.75.747-1.505h.374v-.753l1.495-1.129v-.376h.747v-.376l1.87-.377v-.376zm-16.444 11.29l-1.122.375v.377h-.747v.376c-1.018.373-3.66.035-4.111-.376-2.118-.518-2.056-1.892-3.364-3.01-.043-1.293-.25-3.457.374-4.14.639-2.818 3.132-3.485 6.727-3.387.578.679 1.617.876 2.243 1.505.625.63.822 1.675 1.495 2.258l-.374 4.516h-.374c-.42.6-.509.645-.747 1.505zm-22.798-8.28c1.16-.04 2.77-.176 3.363.377 1.154.265 1.59.733 1.869 1.881 1.061 1.031.492 2.12.374 3.763-1.714 1.022-1.614 2.123-4.485 2.258v-.376l-1.869-.376c-.292-.54-1.035-1.51-1.495-1.882a20.309 20.309 0 01.374-4.14c.535-.293 1.499-1.042 1.869-1.505zm-14.202 1.13l2.242.376c1.302 2.142 1.943 1.629.747 4.515-2.177 1.096-3.404 1.132-4.484-1.129h-.374v-1.881c.309-.816 1.335-1.262 1.869-1.882zm69.141 11.665h2.99c.829.273 1.577.889 2.616 1.129.508.916 1.43 1.243 1.869 1.881.432.628-.007.863.747 1.505l.374 3.01-1.121 3.387-1.869 1.506v.376c-.643.43-4.161 1.598-5.606 1.129-.829-.27-1.576-.894-2.616-1.129l-1.121-1.505h-.374v-.753l-.748-.376c-.852-1.647-.167-4.706 0-6.397.916-.584.23-.432.748-1.13l1.495-1.128v-.376h.747v-.377l1.869-.376v-.376zM79.98 48.543c3.432-.123 6.084.393 6.727 3.01.785.767.777 2.162.748 3.763h-.374v1.13l-.748.376c-.703 1.055-.444 1.506-1.868 1.881-.78.913-2.378.799-4.112.753v-.377h-1.12l-.374-.752h-.748c-.426-.337-.872-1.737-1.495-2.258-.115-1.9-.507-3.238.374-4.892h.374v-.752l2.616-1.882zm-15.697 1.129c1.322.108 1.825.507 2.99.753.292.538 1.035 1.509 1.495 1.881a20.309 20.309 0 01-.374 4.14c-.535.293-1.5 1.042-1.869 1.505a19.903 19.903 0 01-4.11-.377c-.56-.945-2.304-2.39-1.87-4.14h.374l.374-1.88 1.121-.753v-.377l1.869-.376v-.376zM48.96 51.177l2.242.376c.837 1.45 1.136 1.183 1.121 3.763l-1.121.753v.376h-.747v.377c-1.792.58-4.088-1.85-3.364-3.763.309-.817 1.336-1.261 1.869-1.882zm37.373 11.666c3.65-.068 4.904.063 6.728 1.881l.747.376v.753h.374c.356.462.28.726.747 1.129l.374 4.14h-.374v1.128h-.373v.753l-2.243 2.634-1.495.376v.376c-3.106 1.338-7.632-.64-8.222-3.01-1.22-1.057-1.165-3.31-1.121-5.645l1.868-3.01 2.99-1.882zm-16.07 2.634c.238.86.327.905.747 1.505h.374v1.129h.374c.61 1.903-.49 3.617-.748 4.892-1.428.87-3.157 3.334-6.353 2.257v-.376h-1.122v-.376c-.596-.423-.64-.513-1.495-.753l-.373-1.129h-.374v-.752h-.374c-.37-1.025-.034-3.685.374-4.14.514-2.132 1.878-2.07 2.99-3.386h4.11v.376h.748v.376l1.122.377zm-17.94 1.129v.752l.748.376v1.506h.373c.256 1.127-.55 2.036-.747 3.01-.535.294-1.5 1.042-1.869 1.505a19.901 19.901 0 01-4.11-.376c-.293-.539-1.036-1.51-1.496-1.882a20.309 20.309 0 01.374-4.139c1.551-.897 1.948-1.758 4.485-1.881v.376h1.121v.376l1.121.377zm-19.06.376c1.644-.026 2.368.151 2.99 1.129 1.792 1.608-.671 5.374-2.99 4.515v-.376h-.748c-.428-.29-1.567-2.23-1.121-3.387h.374v-.752h.373l.374-.753h.748v-.376zm34.384 23.707c-.235-.846-.315-.93-.748-1.505h-.374l-.374-1.882h-.373c-.785-2.489.772-4.436 1.121-6.02l1.495-1.13v-.376h.747V79.4c.747-.431.913-.065 1.495-.753 3.82-.13 7.14.518 7.849 3.387 1.167.985 1.547 4.202.747 6.02-1.208 2.747-3.752 4.615-7.848 4.516v-.376h-1.121c-.905-.443-1.46-1.212-2.617-1.505zM50.08 79.776c1.706.13 2.68.8 4.11 1.129l.748 1.129h.374c.828 1.275.76 3.14.748 5.268-1.17 1.057-1.159 2.527-2.99 3.01-.812.842-2.42.789-4.111.753-.578-.678-1.618-.876-2.243-1.505-.625-.63-.822-1.675-1.495-2.258-.047-2.45.221-5.009 1.495-6.02h.748v-.377c.454-.36.72-.282 1.12-.753h1.496v-.376zm-17.566 1.505c2.294-.073 4.047.482 4.485 2.258.674.655.746 1.654.748 3.01-1.113 1.009-.78 2.148-2.617 2.635-1.188 1.14-3.447-.122-4.485-.377l-.373-1.129h-.374v-.752h-.374c-.673-1.924.72-4.35 1.495-4.892.62-.433.845-.017 1.495-.753zm-14.95 1.505h2.243l.748 1.13h.373v.752h.374c.668 2.075-1.801 3.638-3.364 3.763-.84-.941-1.433-.361-1.868-1.882-1.498-1.602.874-3.042 1.495-3.763zM54.94 94.453h4.111v.376l1.87.376 1.494 1.882h.374l.747 2.258h.374c.663 1.872-.556 5.21-1.121 6.021l-1.495 1.129-.374.752c-.628.435-.844.011-1.495.753-2.102.02-3.96-.212-5.606-.377-.587-.931-2.046-1.432-2.616-2.257-.432-.626.003-.861-.747-1.506-.132-1.733-.5-2.298 0-3.763v-1.505h.373c.216-.882 1.252-2.587 1.869-3.01h.747v-.377c.761-.435.836-.004 1.495-.752zM34.384 95.58c1.706.129 2.68.8 4.11 1.129.25.376.5.752.748 1.129h.374c.828 1.275.76 3.14.748 5.268-1.17 1.057-1.159 2.527-2.99 3.01-1.669 1.774-4.303.031-5.98-.376-.245-.449-.605-.534-.747-.753v-.752l-.748-.377-.374-4.139c.747-.648.316-.875.748-1.505l2.616-2.258h1.495v-.376zm-17.566 1.505c1.89-.01 2.39.445 3.738.753.873 1.604 1.472 1.85 1.494 4.515h-.373v.753h-.374v.752c-.722 1.011-2.614 1.508-4.485 1.506v-.377h-1.121l-1.121-1.505c-.745-.712-.011-.193-.374-1.129-.728-1.877-.082-3.067 1.121-4.14v-.375h.748v-.377h.747v-.376zm-14.95 1.505h2.243c.843 1.455 1.445 1.27 1.495 3.763-1.662.999-1.122 1.519-4.111 1.505l-.748-1.128H.374v-1.129H0l.747-2.258c.48-.222.8-.371 1.122-.753z" fill="#fff"/></svg><svg fill="none" viewBox="0 0 111 108" id="step-icon-red" xmlns="http://www.w3.org/2000/svg"><path fill-rule="evenodd" clip-rule="evenodd" d="M54.94 0h4.484v.376l1.495.377v.376l2.243 1.881v.753c.55.53 1.218 3.446.747 4.892h-.374l-.373 1.882-2.243 1.881v.376c-1.309.86-3.8.762-5.98.753-.667-.74-.734-.316-1.495-.753v-.376h-.747l-.748-1.129h-.373v-.752l-.748-.377V9.031h-.373l-.374-3.01h.373V4.139h.374c.22-.902 1.242-2.562 1.869-3.01h.747l.374-.753h1.121V0zM31.02 2.634c1.155-.308 1.942-1.18 2.99-1.505 1.652-.513 2.941.514 4.111.753l1.121 1.505h.374c.433.631-.007.862.748 1.505.103 1.523.571 2.77-.374 3.763-.394 1.928-1.609 2.179-2.616 3.387-1.653.126-3.362.715-4.485-.377-1.206-.282-2.322-1.43-2.616-2.634-.745-.712-.01-.194-.374-1.129-.943-2.428.592-3.37 1.121-5.268zm-14.202 0l3.364.376 1.121 1.506c.731.712.765 1.898.747 3.386-.794.708-.896 1.67-1.868 2.258-.706.753-.192.01-1.121.377-1.78.7-2.145.007-3.738-.377-.873-1.604-1.472-1.85-1.495-4.515h.374v-1.13l.748-.376v-.376h.373l.374-.753h1.121v-.376zM1.495 4.14H4.11c.815 1.375 1.484 1.314 1.495 3.763-1.365.821-1.305 1.495-3.737 1.506V9.03H1.12L.747 8.28H.374c-.88-1.84.708-3.432 1.121-4.14zm69.889 11.29H74c.83.273 1.578.888 2.616 1.128l1.495 1.882h.374c.428.647 1.587 4.19 1.121 5.644-.267.835-.888 1.587-1.121 2.635l-1.495 1.128v.377c-1.574 1.102-3.61 1.14-6.354 1.129-.663-.746-.735-.316-1.495-.753v-.376h-.747l-.748-1.13h-.373v-.752l-.748-.376c-.75-1.231-.765-3.26-.747-5.268h.373v-1.13l1.87-2.633h.747l.373-.753 2.243-.376v-.377zM48.96 16.933c2.212-.035 3.275.419 4.858.752l1.121 1.505h.374c.4.614 1.275 3.866.748 5.269h-.374l-.374 1.505h-.374l-.747 1.129c-1.236.832-4.45 1.504-5.606.376-1.091-.266-.872-.516-1.495-1.129-1.798-1.768-1.966-1.983-1.869-5.644.674-.582.87-1.629 1.495-2.258.625-.63 1.663-.828 2.243-1.505zm-17.192 1.505a19.903 19.903 0 014.11.376c.934 1.624 1.806 1.794 1.87 4.516h-.374L37 25.212c-.67.97-2.765 1.489-4.485 1.506-1.002-1.12-2.132-.786-2.616-2.635-.555-.6-.408-2.217-.374-3.386.914-.582.231-.449.748-1.13.3-.395 1.123-.661 1.495-1.128zm-13.829 1.129l1.87.376c.707 1.225 1.393 1.367 1.494 3.387-1.553 1.342-.555 1.893-3.737 1.881-1.172-1.395-1.836-.982-1.869-3.763h.374v-.752l.747-.377v-.376h1.121v-.376zm68.768 11.665h2.99c.83.274 1.577.89 2.616 1.129.916 1.497 3.999 3.91 2.99 7.15h-.374v1.505h-.373c-.474 2.105-4.341 5.305-7.849 4.14-.828-.276-1.58-.883-2.616-1.13l-1.121-1.505h-.374c-1.086-1.638-1.13-3.627-1.121-6.397.676-.59.32-.75.747-1.505h.374v-.753l1.495-1.129v-.376h.747v-.376l1.87-.377v-.376zm-16.444 11.29l-1.122.375v.377h-.747v.376c-1.018.373-3.66.035-4.111-.376-2.118-.518-2.056-1.892-3.364-3.01-.043-1.293-.25-3.457.374-4.14.639-2.818 3.132-3.485 6.727-3.387.578.679 1.617.876 2.243 1.505.625.63.822 1.675 1.495 2.258l-.374 4.516h-.374c-.42.6-.509.645-.747 1.505zm-22.798-8.28c1.16-.04 2.77-.176 3.363.377 1.154.265 1.59.733 1.869 1.881 1.061 1.031.492 2.12.374 3.763-1.714 1.022-1.614 2.123-4.485 2.258v-.376l-1.869-.376c-.292-.54-1.035-1.51-1.495-1.882a20.309 20.309 0 01.374-4.14c.535-.293 1.499-1.042 1.869-1.505zm-14.202 1.13l2.242.376c1.302 2.142 1.943 1.629.747 4.515-2.177 1.096-3.404 1.132-4.484-1.129h-.374v-1.881c.309-.816 1.335-1.262 1.869-1.882zm69.141 11.665h2.99c.829.273 1.577.889 2.616 1.129.508.916 1.43 1.243 1.869 1.881.432.628-.007.863.747 1.505l.374 3.01-1.121 3.387-1.869 1.506v.376c-.643.43-4.161 1.598-5.606 1.129-.829-.27-1.576-.894-2.616-1.129l-1.121-1.505h-.374v-.753l-.748-.376c-.852-1.647-.167-4.706 0-6.397.916-.584.23-.432.748-1.13l1.495-1.128v-.376h.747v-.377l1.869-.376v-.376zM79.98 48.543c3.432-.123 6.084.393 6.727 3.01.785.767.777 2.162.748 3.763h-.374v1.13l-.748.376c-.703 1.055-.444 1.506-1.868 1.881-.78.913-2.378.799-4.112.753v-.377h-1.12l-.374-.752h-.748c-.426-.337-.872-1.737-1.495-2.258-.115-1.9-.507-3.238.374-4.892h.374v-.752l2.616-1.882zm-15.697 1.129c1.322.108 1.825.507 2.99.753.292.538 1.035 1.509 1.495 1.881a20.309 20.309 0 01-.374 4.14c-.535.293-1.5 1.042-1.869 1.505a19.903 19.903 0 01-4.11-.377c-.56-.945-2.304-2.39-1.87-4.14h.374l.374-1.88 1.121-.753v-.377l1.869-.376v-.376zM48.96 51.177l2.242.376c.837 1.45 1.136 1.183 1.121 3.763l-1.121.753v.376h-.747v.377c-1.792.58-4.088-1.85-3.364-3.763.309-.817 1.336-1.261 1.869-1.882zm37.373 11.666c3.65-.068 4.904.063 6.728 1.881l.747.376v.753h.374c.356.462.28.726.747 1.129l.374 4.14h-.374v1.128h-.373v.753l-2.243 2.634-1.495.376v.376c-3.106 1.338-7.632-.64-8.222-3.01-1.22-1.057-1.165-3.31-1.121-5.645l1.868-3.01 2.99-1.882zm-16.07 2.634c.238.86.327.905.747 1.505h.374v1.129h.374c.61 1.903-.49 3.617-.748 4.892-1.428.87-3.157 3.334-6.353 2.257v-.376h-1.122v-.376c-.596-.423-.64-.513-1.495-.753l-.373-1.129h-.374v-.752h-.374c-.37-1.025-.034-3.685.374-4.14.514-2.132 1.878-2.07 2.99-3.386h4.11v.376h.748v.376l1.122.377zm-17.94 1.129v.752l.748.376v1.506h.373c.256 1.127-.55 2.036-.747 3.01-.535.294-1.5 1.042-1.869 1.505a19.901 19.901 0 01-4.11-.376c-.293-.539-1.036-1.51-1.496-1.882a20.309 20.309 0 01.374-4.139c1.551-.897 1.948-1.758 4.485-1.881v.376h1.121v.376l1.121.377zm-19.06.376c1.644-.026 2.368.151 2.99 1.129 1.792 1.608-.671 5.374-2.99 4.515v-.376h-.748c-.428-.29-1.567-2.23-1.121-3.387h.374v-.752h.373l.374-.753h.748v-.376zm34.384 23.707c-.235-.846-.315-.93-.748-1.505h-.374l-.374-1.882h-.373c-.785-2.489.772-4.436 1.121-6.02l1.495-1.13v-.376h.747V79.4c.747-.431.913-.065 1.495-.753 3.82-.13 7.14.518 7.849 3.387 1.167.985 1.547 4.202.747 6.02-1.208 2.747-3.752 4.615-7.848 4.516v-.376h-1.121c-.905-.443-1.46-1.212-2.617-1.505zM50.08 79.776c1.706.13 2.68.8 4.11 1.129l.748 1.129h.374c.828 1.275.76 3.14.748 5.268-1.17 1.057-1.159 2.527-2.99 3.01-.812.842-2.42.789-4.111.753-.578-.678-1.618-.876-2.243-1.505-.625-.63-.822-1.675-1.495-2.258-.047-2.45.221-5.009 1.495-6.02h.748v-.377c.454-.36.72-.282 1.12-.753h1.496v-.376zm-17.566 1.505c2.294-.073 4.047.482 4.485 2.258.674.655.746 1.654.748 3.01-1.113 1.009-.78 2.148-2.617 2.635-1.188 1.14-3.447-.122-4.485-.377l-.373-1.129h-.374v-.752h-.374c-.673-1.924.72-4.35 1.495-4.892.62-.433.845-.017 1.495-.753zm-14.95 1.505h2.243l.748 1.13h.373v.752h.374c.668 2.075-1.801 3.638-3.364 3.763-.84-.941-1.433-.361-1.868-1.882-1.498-1.602.874-3.042 1.495-3.763zM54.94 94.453h4.111v.376l1.87.376 1.494 1.882h.374l.747 2.258h.374c.663 1.872-.556 5.21-1.121 6.021l-1.495 1.129-.374.752c-.628.435-.844.011-1.495.753-2.102.02-3.96-.212-5.606-.377-.587-.931-2.046-1.432-2.616-2.257-.432-.626.003-.861-.747-1.506-.132-1.733-.5-2.298 0-3.763v-1.505h.373c.216-.882 1.252-2.587 1.869-3.01h.747v-.377c.761-.435.836-.004 1.495-.752zM34.384 95.58c1.706.129 2.68.8 4.11 1.129.25.376.5.752.748 1.129h.374c.828 1.275.76 3.14.748 5.268-1.17 1.057-1.159 2.527-2.99 3.01-1.669 1.774-4.303.031-5.98-.376-.245-.449-.605-.534-.747-.753v-.752l-.748-.377-.374-4.139c.747-.648.316-.875.748-1.505l2.616-2.258h1.495v-.376zm-17.566 1.505c1.89-.01 2.39.445 3.738.753.873 1.604 1.472 1.85 1.494 4.515h-.373v.753h-.374v.752c-.722 1.011-2.614 1.508-4.485 1.506v-.377h-1.121l-1.121-1.505c-.745-.712-.011-.193-.374-1.129-.728-1.877-.082-3.067 1.121-4.14v-.375h.748v-.377h.747v-.376zm-14.95 1.505h2.243c.843 1.455 1.445 1.27 1.495 3.763-1.662.999-1.122 1.519-4.111 1.505l-.748-1.128H.374v-1.129H0l.747-2.258c.48-.222.8-.371 1.122-.753z" fill="#E24230"/></svg></svg>