<svg width="108" height="108" fill="none" xmlns="http://www.w3.org/2000/svg"><g clip-path="url(#clip0_68_311)"><path d="M105.796 35.265c1.469 0 2.204-.808 2.204-2.424 0-1.617-.735-2.425-2.204-2.425h-9.478v-4.628c0-3.968-1.359-7.31-4.077-10.029-2.719-2.718-6.061-4.077-10.029-4.077h-4.628V2.204C77.584.734 76.775 0 75.159 0c-1.616 0-2.424.735-2.424 2.204v9.478h-9.257V2.204C63.478.734 62.669 0 61.053 0c-1.616 0-2.424.735-2.424 2.204v9.478H49.37V2.204C49.371.734 48.563 0 46.947 0s-2.425.735-2.425 2.204v9.478h-9.257V2.204C35.265.734 34.457 0 32.841 0c-1.617 0-2.425.735-2.425 2.204v9.478h-4.628c-3.968 0-7.31 1.359-10.029 4.077-2.718 2.719-4.077 6.061-4.077 10.029v4.628H2.204c-1.47 0-2.204.808-2.204 2.425 0 1.616.735 2.424 2.204 2.424h9.478v9.257H2.204c-1.47 0-2.204.809-2.204 2.425 0 1.616.735 2.424 2.204 2.424h9.478v9.258H2.204c-1.47 0-2.204.808-2.204 2.424 0 1.616.735 2.425 2.204 2.425h9.478v9.257H2.204c-1.47 0-2.204.808-2.204 2.424 0 1.616.735 2.425 2.204 2.425h9.478v4.628c0 3.968 1.359 7.31 4.077 10.029 2.719 2.718 6.061 4.077 10.029 4.077h4.628v9.478c0 1.469.808 2.204 2.425 2.204 1.616 0 2.424-.735 2.424-2.204v-9.478h9.257v9.478c0 1.469.809 2.204 2.425 2.204 1.616 0 2.424-.735 2.424-2.204v-9.478h9.258v9.478c0 1.469.808 2.204 2.424 2.204 1.616 0 2.425-.735 2.425-2.204v-9.478h9.257v9.478c0 1.469.808 2.204 2.424 2.204 1.616 0 2.425-.735 2.425-2.204v-9.478h4.628c3.968 0 7.31-1.359 10.029-4.077 2.718-2.719 4.077-6.061 4.077-10.029v-4.628h9.478c1.469 0 2.204-.809 2.204-2.425 0-1.616-.735-2.424-2.204-2.424h-9.478v-9.257h9.478c1.469 0 2.204-.809 2.204-2.425 0-1.616-.735-2.424-2.204-2.424h-9.478V49.37h9.478c1.469 0 2.204-.808 2.204-2.424 0-1.616-.735-2.425-2.204-2.425h-9.478v-9.257h9.478zM88.841 82.212c0 3.086-3.543 6.629-6.629 6.629H25.788c-3.086 0-6.629-3.543-6.629-6.629V25.788c0-3.086 3.543-6.629 6.629-6.629h56.424c3.086 0 6.629 3.543 6.629 6.629v56.424zM72.735 30.416h-37.47c-3.232 0-4.849 1.617-4.849 4.85v37.469c0 3.232 1.617 4.849 4.85 4.849h37.469c3.232 0 4.849-1.617 4.849-4.85V35.266c0-3.232-1.617-4.849-4.85-4.849zm-2.629 39.69H37.894V37.894h32.212v32.212z" fill="url(#paint0_linear_68_311)"/></g><defs><linearGradient id="paint0_linear_68_311" x1="0" y1="0" x2="99.12" y2="115.613" gradientUnits="userSpaceOnUse"><stop stop-color="#4091DB"/><stop offset="1" stop-color="#35D0FA"/></linearGradient><clipPath id="clip0_68_311"><path fill="#fff" d="M0 0h108v108H0z"/></clipPath></defs></svg>19.1592 25.7878 19.1592H82.2122C85.298 19.1592 88.8408 22.702 88.8408 25.7878V82.2122ZM72.7347 30.4163H35.2653C32.0326 30.4163 30.4163 32.0326 30.4163 35.2653V72.7347C30.4163 75.9673 32.0326 77.5837 35.2653 77.5837H72.7347C75.9673 77.5837 77.5837 75.9673 77.5837 72.7347V35.2653C77.5837 32.0326 75.9673 30.4163 72.7347 30.4163ZM70.1061 70.1061H37.8939V37.8939H70.1061V70.1061Z" fill="url(#paint0_linear_68_311)"/>
</g>
<defs>
<linearGradient id="paint0_linear_68_311" x1="0" y1="0" x2="99.1198" y2="115.613" gradientUnits="userSpaceOnUse">
<stop stop-color="#4091DB"/>
<stop offset="1" stop-color="#35D0FA"/>
</linearGradient>
<clipPath id="clip0_68_311">
<rect width="108" height="108" fill="white"/>
</clipPath>
</defs>
</svg>
