<svg width="108" height="108" viewBox="0 0 108 108" fill="none" xmlns="http://www.w3.org/2000/svg">
<g clip-path="url(#clip0_68_315)">
<path d="M92.4615 15H100.154C101.174 15 102.152 15.4077 102.873 16.1334C103.595 16.8591 104 17.8433 104 18.8696V80.7826C104 81.8089 103.595 82.7931 102.873 83.5188C102.152 84.2445 101.174 84.6522 100.154 84.6522H7.84615C6.82609 84.6522 5.84781 84.2445 5.12651 83.5188C4.40522 82.7931 4 81.8089 4 80.7826V18.8696C4 17.8433 4.40522 16.8591 5.12651 16.1334C5.84781 15.4077 6.82609 15 7.84615 15H15.5385M46.3077 84.6522L38.6154 104M61.6923 84.6522L69.3846 104M30.9231 104H77.0769" stroke="url(#paint0_linear_68_315)" stroke-width="7" stroke-linecap="round" stroke-linejoin="round"/>
<mask id="path-2-inside-1_68_315" fill="white">
<path d="M51.3333 29.4832C51.3333 27.1157 50.487 25.0943 48.7943 23.4191C47.1016 21.7439 45.059 20.9063 42.6667 20.9063C40.2743 20.9063 38.2318 21.7439 36.5391 23.4191C34.8464 25.0943 34 27.1157 34 29.4832C34 31.8508 34.8464 33.8722 36.5391 35.5474C38.2318 37.2226 40.2743 38.0602 42.6667 38.0602C45.059 38.0602 47.1016 37.2226 48.7943 35.5474C50.487 33.8722 51.3333 31.8508 51.3333 29.4832ZM77.3333 46.6371C77.3333 45.4757 76.9045 44.4706 76.0469 43.6218C75.1892 42.773 74.1736 42.3487 73 42.3487C71.8264 42.3487 70.8108 42.773 69.9531 43.6218C69.0955 44.4706 68.6667 45.4757 68.6667 46.6371C68.6667 47.8209 69.0898 48.8316 69.9362 49.6692C70.7826 50.5068 71.8038 50.9256 73 50.9256C74.1962 50.9256 75.2174 50.5068 76.0638 49.6692C76.9102 48.8316 77.3333 47.8209 77.3333 46.6371ZM77.3333 12.3294C77.3333 11.1679 76.9045 10.1628 76.0469 9.31403C75.1892 8.46527 74.1736 8.04089 73 8.04089C71.8264 8.04089 70.8108 8.46527 69.9531 9.31403C69.0955 10.1628 68.6667 11.1679 68.6667 12.3294C68.6667 13.5132 69.0898 14.5239 69.9362 15.3614C70.7826 16.199 71.8038 16.6178 73 16.6178C74.1962 16.6178 75.2174 16.199 76.0638 15.3614C76.9102 14.5239 77.3333 13.5132 77.3333 12.3294ZM64.3333 26.4344V32.6326C64.3333 32.856 64.2543 33.0737 64.0964 33.2859C63.9384 33.4981 63.7578 33.6154 63.5547 33.6377L58.3073 34.4418C58.059 35.2235 57.6979 36.0723 57.224 36.9881C57.9913 38.0602 59.0069 39.3445 60.2708 40.841C60.4288 41.0867 60.5078 41.3101 60.5078 41.5111C60.5078 41.7791 60.4288 41.9913 60.2708 42.1476C59.7517 42.8177 58.8207 43.8172 57.4779 45.1462C56.135 46.4752 55.2491 47.1397 54.8203 47.1397C54.572 47.1397 54.3351 47.0615 54.1094 46.9052L50.2161 43.8898C49.3811 44.3142 48.5122 44.6604 47.6094 44.9285C47.3611 47.3407 47.1016 49.0717 46.8307 50.1215C46.6727 50.6576 46.3342 50.9256 45.8151 50.9256H39.5182C39.27 50.9256 39.0443 50.8419 38.8411 50.6743C38.638 50.5068 38.5252 50.3114 38.5026 50.088L37.724 44.962C36.9566 44.7386 36.1102 44.3924 35.1849 43.9233L31.1901 46.9052C31.0321 47.0615 30.8064 47.1397 30.513 47.1397C30.2648 47.1397 30.0278 47.0504 29.8021 46.8717C26.5521 43.901 24.9271 42.1141 24.9271 41.5111C24.9271 41.3101 25.0061 41.0979 25.1641 40.8745C25.3898 40.5618 25.8524 39.9699 26.5521 39.0988C27.2517 38.2277 27.7821 37.5465 28.1432 37.0551C27.6241 36.0723 27.2292 35.1565 26.9583 34.3078L21.8125 33.5037C21.5868 33.4814 21.395 33.3753 21.237 33.1854C21.079 32.9956 21 32.7778 21 32.5321V26.3339C21 26.1105 21.079 25.8928 21.237 25.6806C21.395 25.4684 21.5755 25.3511 21.7786 25.3288L27.026 24.5247C27.2743 23.743 27.6354 22.8942 28.1094 21.9784C27.342 20.9063 26.3264 19.622 25.0625 18.1255C24.9045 17.8798 24.8255 17.6564 24.8255 17.4554C24.8255 17.1874 24.9045 16.964 25.0625 16.7854C25.559 16.1153 26.4844 15.1213 27.8385 13.8035C29.1927 12.4857 30.0842 11.8268 30.513 11.8268C30.7613 11.8268 30.9983 11.905 31.224 12.0613L35.1172 15.0767C35.8845 14.6746 36.7535 14.3172 37.724 14.0045C37.9722 11.5923 38.2318 9.87242 38.5026 8.84497C38.6606 8.30892 38.9991 8.04089 39.5182 8.04089H45.8151C46.0634 8.04089 46.2891 8.12465 46.4922 8.29216C46.6953 8.45968 46.8082 8.65512 46.8307 8.87848L47.6094 14.0045C48.3767 14.2279 49.2231 14.5741 50.1484 15.0432L54.1432 12.0613C54.3238 11.905 54.5495 11.8268 54.8203 11.8268C55.0686 11.8268 55.3056 11.9161 55.5312 12.0948C58.7812 15.0655 60.4062 16.8524 60.4062 17.4554C60.4062 17.6341 60.3273 17.8463 60.1693 18.092C59.8984 18.4494 59.4245 19.0524 58.7474 19.9012C58.0703 20.75 57.5625 21.42 57.224 21.9114C57.7431 22.9835 58.1267 23.8993 58.375 24.6587L63.5208 25.4293C63.7465 25.474 63.9384 25.5912 64.0964 25.7811C64.2543 25.9709 64.3333 26.1887 64.3333 26.4344ZM86 44.2919V48.9824C86 49.3398 84.3186 49.686 80.9557 50.021C80.6849 50.6241 80.3464 51.2048 79.9401 51.7632C81.0911 54.2872 81.6667 55.8283 81.6667 56.3867C81.6667 56.4761 81.6215 56.5542 81.5313 56.6212C78.7778 58.2071 77.3785 59 77.3333 59C77.1528 59 76.6337 58.4751 75.776 57.4253C74.9184 56.3755 74.3316 55.6161 74.0156 55.1471C73.5642 55.1917 73.2257 55.2141 73 55.2141C72.7743 55.2141 72.4358 55.1917 71.9844 55.1471C71.6684 55.6161 71.0816 56.3755 70.224 57.4253C69.3663 58.4751 68.8472 59 68.6667 59C68.6215 59 67.2222 58.2071 64.4688 56.6212C64.3785 56.5542 64.3333 56.4761 64.3333 56.3867C64.3333 55.8283 64.9089 54.2872 66.0599 51.7632C65.6536 51.2048 65.3151 50.6241 65.0443 50.021C61.6814 49.686 60 49.3398 60 48.9824V44.2919C60 43.9345 61.6814 43.5883 65.0443 43.2533C65.3377 42.6055 65.6762 42.0248 66.0599 41.5111C64.9089 38.9871 64.3333 37.446 64.3333 36.8876C64.3333 36.7982 64.3785 36.72 64.4688 36.653C64.559 36.6084 64.954 36.385 65.6536 35.983C66.3533 35.5809 67.0191 35.2012 67.651 34.8438C68.283 34.4865 68.6215 34.3078 68.6667 34.3078C68.8472 34.3078 69.3663 34.8271 70.224 35.8657C71.0816 36.9043 71.6684 37.6581 71.9844 38.1272C72.4358 38.0825 72.7743 38.0602 73 38.0602C73.2257 38.0602 73.5642 38.0825 74.0156 38.1272C75.1667 36.5414 76.2049 35.2906 77.1302 34.3748L77.3333 34.3078C77.4236 34.3078 78.8229 35.0895 81.5313 36.653C81.6215 36.72 81.6667 36.7982 81.6667 36.8876C81.6667 37.446 81.0911 38.9871 79.9401 41.5111C80.3238 42.0248 80.6623 42.6055 80.9557 43.2533C84.3186 43.5883 86 43.9345 86 44.2919ZM86 9.9841V14.6746C86 15.032 84.3186 15.3782 80.9557 15.7132C80.6849 16.3163 80.3464 16.897 79.9401 17.4554C81.0911 19.9794 81.6667 21.5205 81.6667 22.0789C81.6667 22.1683 81.6215 22.2465 81.5313 22.3135C78.7778 23.8993 77.3785 24.6922 77.3333 24.6922C77.1528 24.6922 76.6337 24.1673 75.776 23.1175C74.9184 22.0678 74.3316 21.3083 74.0156 20.8393C73.5642 20.884 73.2257 20.9063 73 20.9063C72.7743 20.9063 72.4358 20.884 71.9844 20.8393C71.6684 21.3083 71.0816 22.0678 70.224 23.1175C69.3663 24.1673 68.8472 24.6922 68.6667 24.6922C68.6215 24.6922 67.2222 23.8993 64.4688 22.3135C64.3785 22.2465 64.3333 22.1683 64.3333 22.0789C64.3333 21.5205 64.9089 19.9794 66.0599 17.4554C65.6536 16.897 65.3151 16.3163 65.0443 15.7132C61.6814 15.3782 60 15.032 60 14.6746V9.9841C60 9.62673 61.6814 9.28052 65.0443 8.94549C65.3377 8.29775 65.6762 7.71702 66.0599 7.20329C64.9089 4.67935 64.3333 3.13818 64.3333 2.57978C64.3333 2.49044 64.3785 2.41227 64.4688 2.34526C64.559 2.30059 64.954 2.07723 65.6536 1.67518C66.3533 1.27314 67.0191 0.893432 67.651 0.536059C68.283 0.178686 68.6215 0 68.6667 0C68.8472 0 69.3663 0.519307 70.224 1.55792C71.0816 2.59654 71.6684 3.35037 71.9844 3.81942C72.4358 3.77475 72.7743 3.75241 73 3.75241C73.2257 3.75241 73.5642 3.77475 74.0156 3.81942C75.1667 2.23358 76.2049 0.982775 77.1302 0.0670074L77.3333 0C77.4236 0 78.8229 0.781753 81.5313 2.34526C81.6215 2.41227 81.6667 2.49044 81.6667 2.57978C81.6667 3.13818 81.0911 4.67935 79.9401 7.20329C80.3238 7.71702 80.6623 8.29775 80.9557 8.94549C84.3186 9.28052 86 9.62673 86 9.9841Z"/>
</mask>
<path d="M51.3333 29.4832C51.3333 27.1157 50.487 25.0943 48.7943 23.4191C47.1016 21.7439 45.059 20.9063 42.6667 20.9063C40.2743 20.9063 38.2318 21.7439 36.5391 23.4191C34.8464 25.0943 34 27.1157 34 29.4832C34 31.8508 34.8464 33.8722 36.5391 35.5474C38.2318 37.2226 40.2743 38.0602 42.6667 38.0602C45.059 38.0602 47.1016 37.2226 48.7943 35.5474C50.487 33.8722 51.3333 31.8508 51.3333 29.4832ZM77.3333 46.6371C77.3333 45.4757 76.9045 44.4706 76.0469 43.6218C75.1892 42.773 74.1736 42.3487 73 42.3487C71.8264 42.3487 70.8108 42.773 69.9531 43.6218C69.0955 44.4706 68.6667 45.4757 68.6667 46.6371C68.6667 47.8209 69.0898 48.8316 69.9362 49.6692C70.7826 50.5068 71.8038 50.9256 73 50.9256C74.1962 50.9256 75.2174 50.5068 76.0638 49.6692C76.9102 48.8316 77.3333 47.8209 77.3333 46.6371ZM77.3333 12.3294C77.3333 11.1679 76.9045 10.1628 76.0469 9.31403C75.1892 8.46527 74.1736 8.04089 73 8.04089C71.8264 8.04089 70.8108 8.46527 69.9531 9.31403C69.0955 10.1628 68.6667 11.1679 68.6667 12.3294C68.6667 13.5132 69.0898 14.5239 69.9362 15.3614C70.7826 16.199 71.8038 16.6178 73 16.6178C74.1962 16.6178 75.2174 16.199 76.0638 15.3614C76.9102 14.5239 77.3333 13.5132 77.3333 12.3294ZM64.3333 26.4344V32.6326C64.3333 32.856 64.2543 33.0737 64.0964 33.2859C63.9384 33.4981 63.7578 33.6154 63.5547 33.6377L58.3073 34.4418C58.059 35.2235 57.6979 36.0723 57.224 36.9881C57.9913 38.0602 59.0069 39.3445 60.2708 40.841C60.4288 41.0867 60.5078 41.3101 60.5078 41.5111C60.5078 41.7791 60.4288 41.9913 60.2708 42.1476C59.7517 42.8177 58.8207 43.8172 57.4779 45.1462C56.135 46.4752 55.2491 47.1397 54.8203 47.1397C54.572 47.1397 54.3351 47.0615 54.1094 46.9052L50.2161 43.8898C49.3811 44.3142 48.5122 44.6604 47.6094 44.9285C47.3611 47.3407 47.1016 49.0717 46.8307 50.1215C46.6727 50.6576 46.3342 50.9256 45.8151 50.9256H39.5182C39.27 50.9256 39.0443 50.8419 38.8411 50.6743C38.638 50.5068 38.5252 50.3114 38.5026 50.088L37.724 44.962C36.9566 44.7386 36.1102 44.3924 35.1849 43.9233L31.1901 46.9052C31.0321 47.0615 30.8064 47.1397 30.513 47.1397C30.2648 47.1397 30.0278 47.0504 29.8021 46.8717C26.5521 43.901 24.9271 42.1141 24.9271 41.5111C24.9271 41.3101 25.0061 41.0979 25.1641 40.8745C25.3898 40.5618 25.8524 39.9699 26.5521 39.0988C27.2517 38.2277 27.7821 37.5465 28.1432 37.0551C27.6241 36.0723 27.2292 35.1565 26.9583 34.3078L21.8125 33.5037C21.5868 33.4814 21.395 33.3753 21.237 33.1854C21.079 32.9956 21 32.7778 21 32.5321V26.3339C21 26.1105 21.079 25.8928 21.237 25.6806C21.395 25.4684 21.5755 25.3511 21.7786 25.3288L27.026 24.5247C27.2743 23.743 27.6354 22.8942 28.1094 21.9784C27.342 20.9063 26.3264 19.622 25.0625 18.1255C24.9045 17.8798 24.8255 17.6564 24.8255 17.4554C24.8255 17.1874 24.9045 16.964 25.0625 16.7854C25.559 16.1153 26.4844 15.1213 27.8385 13.8035C29.1927 12.4857 30.0842 11.8268 30.513 11.8268C30.7613 11.8268 30.9983 11.905 31.224 12.0613L35.1172 15.0767C35.8845 14.6746 36.7535 14.3172 37.724 14.0045C37.9722 11.5923 38.2318 9.87242 38.5026 8.84497C38.6606 8.30892 38.9991 8.04089 39.5182 8.04089H45.8151C46.0634 8.04089 46.2891 8.12465 46.4922 8.29216C46.6953 8.45968 46.8082 8.65512 46.8307 8.87848L47.6094 14.0045C48.3767 14.2279 49.2231 14.5741 50.1484 15.0432L54.1432 12.0613C54.3238 11.905 54.5495 11.8268 54.8203 11.8268C55.0686 11.8268 55.3056 11.9161 55.5312 12.0948C58.7812 15.0655 60.4062 16.8524 60.4062 17.4554C60.4062 17.6341 60.3273 17.8463 60.1693 18.092C59.8984 18.4494 59.4245 19.0524 58.7474 19.9012C58.0703 20.75 57.5625 21.42 57.224 21.9114C57.7431 22.9835 58.1267 23.8993 58.375 24.6587L63.5208 25.4293C63.7465 25.474 63.9384 25.5912 64.0964 25.7811C64.2543 25.9709 64.3333 26.1887 64.3333 26.4344ZM86 44.2919V48.9824C86 49.3398 84.3186 49.686 80.9557 50.021C80.6849 50.6241 80.3464 51.2048 79.9401 51.7632C81.0911 54.2872 81.6667 55.8283 81.6667 56.3867C81.6667 56.4761 81.6215 56.5542 81.5313 56.6212C78.7778 58.2071 77.3785 59 77.3333 59C77.1528 59 76.6337 58.4751 75.776 57.4253C74.9184 56.3755 74.3316 55.6161 74.0156 55.1471C73.5642 55.1917 73.2257 55.2141 73 55.2141C72.7743 55.2141 72.4358 55.1917 71.9844 55.1471C71.6684 55.6161 71.0816 56.3755 70.224 57.4253C69.3663 58.4751 68.8472 59 68.6667 59C68.6215 59 67.2222 58.2071 64.4688 56.6212C64.3785 56.5542 64.3333 56.4761 64.3333 56.3867C64.3333 55.8283 64.9089 54.2872 66.0599 51.7632C65.6536 51.2048 65.3151 50.6241 65.0443 50.021C61.6814 49.686 60 49.3398 60 48.9824V44.2919C60 43.9345 61.6814 43.5883 65.0443 43.2533C65.3377 42.6055 65.6762 42.0248 66.0599 41.5111C64.9089 38.9871 64.3333 37.446 64.3333 36.8876C64.3333 36.7982 64.3785 36.72 64.4688 36.653C64.559 36.6084 64.954 36.385 65.6536 35.983C66.3533 35.5809 67.0191 35.2012 67.651 34.8438C68.283 34.4865 68.6215 34.3078 68.6667 34.3078C68.8472 34.3078 69.3663 34.8271 70.224 35.8657C71.0816 36.9043 71.6684 37.6581 71.9844 38.1272C72.4358 38.0825 72.7743 38.0602 73 38.0602C73.2257 38.0602 73.5642 38.0825 74.0156 38.1272C75.1667 36.5414 76.2049 35.2906 77.1302 34.3748L77.3333 34.3078C77.4236 34.3078 78.8229 35.0895 81.5313 36.653C81.6215 36.72 81.6667 36.7982 81.6667 36.8876C81.6667 37.446 81.0911 38.9871 79.9401 41.5111C80.3238 42.0248 80.6623 42.6055 80.9557 43.2533C84.3186 43.5883 86 43.9345 86 44.2919ZM86 9.9841V14.6746C86 15.032 84.3186 15.3782 80.9557 15.7132C80.6849 16.3163 80.3464 16.897 79.9401 17.4554C81.0911 19.9794 81.6667 21.5205 81.6667 22.0789C81.6667 22.1683 81.6215 22.2465 81.5313 22.3135C78.7778 23.8993 77.3785 24.6922 77.3333 24.6922C77.1528 24.6922 76.6337 24.1673 75.776 23.1175C74.9184 22.0678 74.3316 21.3083 74.0156 20.8393C73.5642 20.884 73.2257 20.9063 73 20.9063C72.7743 20.9063 72.4358 20.884 71.9844 20.8393C71.6684 21.3083 71.0816 22.0678 70.224 23.1175C69.3663 24.1673 68.8472 24.6922 68.6667 24.6922C68.6215 24.6922 67.2222 23.8993 64.4688 22.3135C64.3785 22.2465 64.3333 22.1683 64.3333 22.0789C64.3333 21.5205 64.9089 19.9794 66.0599 17.4554C65.6536 16.897 65.3151 16.3163 65.0443 15.7132C61.6814 15.3782 60 15.032 60 14.6746V9.9841C60 9.62673 61.6814 9.28052 65.0443 8.94549C65.3377 8.29775 65.6762 7.71702 66.0599 7.20329C64.9089 4.67935 64.3333 3.13818 64.3333 2.57978C64.3333 2.49044 64.3785 2.41227 64.4688 2.34526C64.559 2.30059 64.954 2.07723 65.6536 1.67518C66.3533 1.27314 67.0191 0.893432 67.651 0.536059C68.283 0.178686 68.6215 0 68.6667 0C68.8472 0 69.3663 0.519307 70.224 1.55792C71.0816 2.59654 71.6684 3.35037 71.9844 3.81942C72.4358 3.77475 72.7743 3.75241 73 3.75241C73.2257 3.75241 73.5642 3.77475 74.0156 3.81942C75.1667 2.23358 76.2049 0.982775 77.1302 0.0670074L77.3333 0C77.4236 0 78.8229 0.781753 81.5313 2.34526C81.6215 2.41227 81.6667 2.49044 81.6667 2.57978C81.6667 3.13818 81.0911 4.67935 79.9401 7.20329C80.3238 7.71702 80.6623 8.29775 80.9557 8.94549C84.3186 9.28052 86 9.62673 86 9.9841Z" stroke="url(#paint1_linear_68_315)" stroke-width="7" stroke-linecap="round" stroke-linejoin="round" mask="url(#path-2-inside-1_68_315)"/>
</g>
<defs>
<linearGradient id="paint0_linear_68_315" x1="4" y1="15" x2="104" y2="104" gradientUnits="userSpaceOnUse">
<stop stop-color="#4091DB"/>
<stop offset="1" stop-color="#35D0FA"/>
</linearGradient>
<linearGradient id="paint1_linear_68_315" x1="21" y1="0" x2="87.1283" y2="57.707" gradientUnits="userSpaceOnUse">
<stop stop-color="#4091DB"/>
<stop offset="1" stop-color="#35D0FA"/>
</linearGradient>
<clipPath id="clip0_68_315">
<rect width="108" height="108" fill="white"/>
</clipPath>
</defs>
</svg>
