<svg width="96" height="98" fill="none" xmlns="http://www.w3.org/2000/svg"><path d="M14.4 85.5c2.65 0 4.8-2.127 4.8-4.75S17.05 76 14.4 76c-2.651 0-4.8 2.127-4.8 4.75s2.149 4.75 4.8 4.75z" fill="url(#paint0_linear_520_105)"/><path d="M9.6 9.5h9.6v42.75H9.6V9.5z" fill="url(#paint1_linear_520_105)"/><path d="M24 0H4.8C3.527 0 2.306.5 1.406 1.391A4.725 4.725 0 000 4.75v88.5c0 1.26.506 2.468 1.406 3.359.9.89 2.121 1.391 3.394 1.391H24c1.273 0 2.494-.5 3.394-1.391A4.725 4.725 0 0028.8 93.25V4.75c0-1.26-.506-2.468-1.406-3.359A4.826 4.826 0 0024 0zm0 93.25H4.8V4.75H24v88.5z" fill="url(#paint2_linear_520_105)"/><path d="M48 85.5c2.651 0 4.8-2.127 4.8-4.75S50.651 76 48 76c-2.65 0-4.8 2.127-4.8 4.75s2.15 4.75 4.8 4.75z" fill="url(#paint3_linear_520_105)"/><path d="M43.2 9.5h9.6v42.75h-9.6V9.5z" fill="url(#paint4_linear_520_105)"/><path d="M57.6 0H38.4c-1.273 0-2.494.5-3.395 1.391A4.725 4.725 0 0033.6 4.75v88.5c0 1.26.505 2.468 1.405 3.359A4.83 4.83 0 0038.4 98h19.2c1.273 0 2.493-.5 3.394-1.391A4.725 4.725 0 0062.4 93.25V4.75c0-1.26-.506-2.468-1.406-3.359A4.826 4.826 0 0057.6 0zm0 93.25H38.4V4.75h19.2v88.5z" fill="url(#paint5_linear_520_105)"/><path d="M81.6 85.5c2.65 0 4.8-2.127 4.8-4.75S84.25 76 81.6 76c-2.651 0-4.8 2.127-4.8 4.75s2.149 4.75 4.8 4.75z" fill="url(#paint6_linear_520_105)"/><path d="M76.8 9.5h9.6v42.75h-9.6V9.5z" fill="url(#paint7_linear_520_105)"/><path d="M91.2 0H72c-1.273 0-2.494.5-3.394 1.391A4.725 4.725 0 0067.2 4.75v88.5c0 1.26.506 2.468 1.406 3.359.9.89 2.121 1.391 3.394 1.391h19.2c1.273 0 2.494-.5 3.394-1.391A4.725 4.725 0 0096 93.25V4.75c0-1.26-.505-2.468-1.406-3.359A4.826 4.826 0 0091.2 0zm0 93.25H72V4.75h19.2v88.5z" fill="url(#paint8_linear_520_105)"/><defs><linearGradient id="paint0_linear_520_105" x1="9.6" y1="76" x2="18.304" y2="86.26" gradientUnits="userSpaceOnUse"><stop stop-color="#4091DB"/><stop offset="1" stop-color="#35D0FA"/></linearGradient><linearGradient id="paint1_linear_520_105" x1="9.6" y1="9.5" x2="29.062" y2="14.598" gradientUnits="userSpaceOnUse"><stop stop-color="#4091DB"/><stop offset="1" stop-color="#35D0FA"/></linearGradient><linearGradient id="paint2_linear_520_105" x1="0" y1="0" x2="56.889" y2="17.695" gradientUnits="userSpaceOnUse"><stop stop-color="#4091DB"/><stop offset="1" stop-color="#35D0FA"/></linearGradient><linearGradient id="paint3_linear_520_105" x1="43.2" y1="76" x2="51.905" y2="86.26" gradientUnits="userSpaceOnUse"><stop stop-color="#4091DB"/><stop offset="1" stop-color="#35D0FA"/></linearGradient><linearGradient id="paint4_linear_520_105" x1="43.2" y1="9.5" x2="62.662" y2="14.598" gradientUnits="userSpaceOnUse"><stop stop-color="#4091DB"/><stop offset="1" stop-color="#35D0FA"/></linearGradient><linearGradient id="paint5_linear_520_105" x1="33.6" y1="0" x2="90.488" y2="17.695" gradientUnits="userSpaceOnUse"><stop stop-color="#4091DB"/><stop offset="1" stop-color="#35D0FA"/></linearGradient><linearGradient id="paint6_linear_520_105" x1="76.8" y1="76" x2="85.504" y2="86.26" gradientUnits="userSpaceOnUse"><stop stop-color="#4091DB"/><stop offset="1" stop-color="#35D0FA"/></linearGradient><linearGradient id="paint7_linear_520_105" x1="76.8" y1="9.5" x2="96.262" y2="14.598" gradientUnits="userSpaceOnUse"><stop stop-color="#4091DB"/><stop offset="1" stop-color="#35D0FA"/></linearGradient><linearGradient id="paint8_linear_520_105" x1="67.2" y1="0" x2="124.089" y2="17.695" gradientUnits="userSpaceOnUse"><stop stop-color="#4091DB"/><stop offset="1" stop-color="#35D0FA"/></linearGradient></defs></svg>90.4882" y2="17.6946" gradientUnits="userSpaceOnUse">
<stop stop-color="#4091DB"/>
<stop offset="1" stop-color="#35D0FA"/>
</linearGradient>
<linearGradient id="paint6_linear_520_105" x1="76.7998" y1="76" x2="85.5043" y2="86.2598" gradientUnits="userSpaceOnUse">
<stop stop-color="#4091DB"/>
<stop offset="1" stop-color="#35D0FA"/>
</linearGradient>
<linearGradient id="paint7_linear_520_105" x1="76.7998" y1="9.5" x2="96.262" y2="14.5977" gradientUnits="userSpaceOnUse">
<stop stop-color="#4091DB"/>
<stop offset="1" stop-color="#35D0FA"/>
</linearGradient>
<linearGradient id="paint8_linear_520_105" x1="67.2002" y1="0" x2="124.089" y2="17.6946" gradientUnits="userSpaceOnUse">
<stop stop-color="#4091DB"/>
<stop offset="1" stop-color="#35D0FA"/>
</linearGradient>
</defs>
</svg>
