<svg width="108" height="108" fill="none" xmlns="http://www.w3.org/2000/svg"><path d="M57.6 106v-1.545c0-7.674-6.171-13.905-13.886-13.905-7.714 0-13.885 6.231-13.885 13.905V106H10.286a10.277 10.277 0 01-7.273-3.017A10.306 10.306 0 010 95.7V76.13h1.543a13.87 13.87 0 0013.886-13.905A13.87 13.87 0 001.543 48.32H0V28.75c0-5.665 4.629-10.3 10.286-10.3H25.92C27.154 9.695 34.663 3 43.714 3c9.052 0 16.56 6.695 17.795 15.45h15.634c2.728 0 5.344 1.085 7.273 3.017a10.307 10.307 0 013.013 7.283v15.656c7.457 1.081 13.422 6.695 14.965 14.008-4.571-2.567-9.725-6.914-14.965-6.914h-7.286V25.75H54.429v-5.725c0-4.274-6.446-9.725-10.715-9.725C39.446 10.3 33 15.75 33 20.025v5.725H7.286v16.918c9.051 3.502 14.428 9.257 14.428 19.557 0 10.3-5.428 16.055-14.428 19.557V98.7h16.903c1.762-4.549 4.856-9.458 8.875-12.215 4.02-2.757 5.778-3.233 10.65-3.235 4.783 0 9.206 1.442 12.857 3.811V88.4c0 7.931 2.983 12.141 7.92 17.6H57.6zm29.829-9.837l-12.858 7.674 3.498-14.472-11.212-9.681 14.76-1.288L87.43 64.8l5.708 13.596L108 79.683l-11.314 9.682 3.343 14.472-12.6-7.674z" fill="url(#paint0_linear_68_319)"/><defs><linearGradient id="paint0_linear_68_319" x1="0" y1="3" x2="93.747" y2="117.654" gradientUnits="userSpaceOnUse"><stop stop-color="#4091DB"/><stop offset="1" stop-color="#35D0FA"/></linearGradient></defs></svg>ll="url(#paint0_linear_68_319)"/>
<defs>
<linearGradient id="paint0_linear_68_319" x1="0" y1="3" x2="93.7467" y2="117.654" gradientUnits="userSpaceOnUse">
<stop stop-color="#4091DB"/>
<stop offset="1" stop-color="#35D0FA"/>
</linearGradient>
</defs>
</svg>
