<svg width="24" height="14" viewBox="0 0 24 14" xmlns="http://www.w3.org/2000/svg">
<path d="M23.5251 2.77419L12.8865 13.6452C12.7599 13.7742 12.6227 13.8654 12.4749 13.9187C12.3272 13.9729 12.1689 14 12 14C11.8311 14 11.6728 13.9729 11.5251 13.9187C11.3773 13.8654 11.2401 13.7742 11.1135 13.6452L0.443271 2.77419C0.147757 2.47312 -5.20307e-07 2.09677 -5.40047e-07 1.64516C-5.59788e-07 1.19355 0.158311 0.806452 0.474933 0.48387C0.791556 0.16129 1.16095 -5.07467e-08 1.58311 -6.92001e-08C2.00528 -8.76534e-08 2.37467 0.16129 2.69129 0.48387L12 9.96774L21.3087 0.48387C21.6042 0.182795 21.9681 0.0322561 22.4004 0.0322561C22.8336 0.0322561 23.2084 0.193547 23.5251 0.516128C23.8417 0.838708 24 1.21505 24 1.64516C24 2.07527 23.8417 2.45161 23.5251 2.77419Z" />
</svg>
