<svg width="16" height="22" viewBox="0 0 16 22"  xmlns="http://www.w3.org/2000/svg">
<path fill-rule="evenodd" clip-rule="evenodd" d="M2.66667 0H9.724C10.0776 7.78764e-05 10.4167 0.144995 10.6667 0.402875L15.6093 5.5C15.8594 5.7578 15.9999 6.10748 16 6.47212V19.25C16 19.9793 15.719 20.6788 15.219 21.1945C14.7189 21.7103 14.0406 22 13.3333 22H2.66667C1.95942 22 1.28115 21.7103 0.781048 21.1945C0.280951 20.6788 0 19.9793 0 19.25V2.75C0 2.02065 0.280951 1.32118 0.781048 0.805456C1.28115 0.289731 1.95942 0 2.66667 0ZM10 2.0625V4.8125C10 5.17717 10.1405 5.52691 10.3905 5.78477C10.6406 6.04263 10.9797 6.1875 11.3333 6.1875H14L10 2.0625ZM2.88667 18.7935C3.00667 19.041 3.19333 19.2651 3.47067 19.3696C3.74667 19.4727 4.02 19.4246 4.244 19.3284C4.668 19.1496 5.09067 18.7289 5.47867 18.2476C5.92267 17.6962 6.38933 16.973 6.84 16.1714C7.71004 15.9054 8.601 15.7187 9.50267 15.6131C9.90267 16.1397 10.316 16.5935 10.716 16.9194C11.0893 17.2219 11.52 17.4735 11.9613 17.4928C12.2017 17.505 12.4397 17.4386 12.6413 17.303C12.848 17.1641 13.0013 16.9634 13.1133 16.731C13.2333 16.4821 13.3067 16.2222 13.2973 15.9569C13.2889 15.6952 13.1949 15.4442 13.0307 15.2446C12.7293 14.8734 12.236 14.6946 11.7507 14.6052C11.1619 14.5112 10.5646 14.4881 9.97067 14.5365C9.46914 13.8053 9.03186 13.0295 8.664 12.2182C8.99733 11.3107 9.24667 10.4528 9.35733 9.7515C9.40533 9.45175 9.43067 9.16575 9.42133 8.90725C9.41968 8.65066 9.36179 8.39777 9.252 8.1675C9.18875 8.04042 9.09886 7.92945 8.98885 7.84264C8.87884 7.75584 8.75148 7.69537 8.616 7.66562C8.34667 7.6065 8.06933 7.66563 7.81467 7.7715C7.312 7.97775 7.04667 8.41775 6.94667 8.90312C6.84933 9.37062 6.89333 9.91512 7.008 10.4651C7.12533 11.0234 7.32533 11.6311 7.58133 12.2458C7.17185 13.296 6.69892 14.3187 6.16533 15.3079C5.47819 15.5308 4.81584 15.8281 4.18933 16.1947C3.696 16.4972 3.25733 16.8547 2.99333 17.2769C2.71333 17.7251 2.62667 18.2586 2.88667 18.7935Z" />
</svg>
