<svg width="38" height="37" fill="none" xmlns="http://www.w3.org/2000/svg"><path fill-rule="evenodd" clip-rule="evenodd" d="M18.67 0h1.525v.128l.508.128v.129l.762.64v.257c.187.18.414 1.174.254 1.667h-.127l-.127.64-.762.642v.128c-.445.293-1.291.26-2.032.256-.227-.252-.25-.107-.508-.256v-.128h-.254l-.255-.385h-.127V3.59l-.254-.128v-.385h-.127L17.02 2.05h.128v-.64h.127c.074-.308.421-.874.635-1.026h.254l.127-.257h.38V0zm-8.128.897c.393-.105.66-.401 1.016-.512.561-.175 1 .175 1.397.256l.381.513h.127c.147.215-.002.294.254.513.035.519.194.944-.127 1.282-.134.657-.547.742-.889 1.154-.562.043-1.142.243-1.524-.129-.41-.096-.79-.487-.89-.897-.252-.243-.003-.066-.126-.385-.32-.827.2-1.148.38-1.795zm-4.827 0l1.144.129.38.512c.25.243.26.647.255 1.154-.27.241-.305.57-.635.77-.24.256-.066.003-.381.128-.605.238-.73.002-1.27-.128-.297-.547-.5-.63-.509-1.539h.127v-.385l.254-.128v-.128h.127l.127-.256h.381V.897zM.508 1.41h.89c.276.468.503.448.507 1.282-.464.28-.443.51-1.27.513v-.128H.381L.254 2.82H.127c-.299-.628.24-1.17.381-1.41zm23.751 3.846h.89c.281.094.535.303.888.385l.508.641h.127c.146.22.54 1.427.381 1.923-.09.284-.301.54-.38.898l-.509.384v.128c-.535.376-1.227.389-2.159.385-.225-.254-.25-.108-.508-.256v-.129h-.254l-.254-.384h-.127v-.257l-.254-.128c-.255-.42-.26-1.11-.254-1.795h.127v-.384l.635-.898h.254l.127-.256.762-.128v-.129zm-7.62.513c.751-.011 1.113.143 1.65.257l.382.512h.127c.136.21.433 1.318.254 1.795h-.127l-.127.513h-.127l-.254.385c-.42.283-1.513.512-1.906.128-.37-.09-.296-.176-.508-.385-.61-.602-.668-.675-.635-1.923.23-.198.296-.554.508-.769.213-.214.566-.282.762-.513zm-5.843.513a6.749 6.749 0 011.397.128c.317.554.614.612.635 1.539h-.127l-.127.64c-.228.331-.94.508-1.524.514-.34-.382-.725-.268-.89-.898-.188-.204-.138-.755-.126-1.154.31-.198.078-.152.254-.384.102-.135.382-.226.508-.385zm-4.7.385l.636.128c.24.417.473.466.508 1.154-.528.457-.189.645-1.27.64-.399-.475-.624-.334-.636-1.281h.127V7.05l.254-.128v-.128h.382v-.128zm23.37 3.974h1.017c.282.093.536.303.889.385.311.51 1.359 1.332 1.016 2.435h-.127v.513h-.127c-.161.718-1.475 1.808-2.667 1.41-.282-.093-.537-.3-.89-.384l-.38-.513h-.128c-.369-.558-.383-1.236-.38-2.18.23-.2.108-.255.253-.512h.127v-.256l.509-.385v-.128h.253v-.129l.636-.128v-.128zm-5.588 3.846l-.381.128v.129h-.254v.128c-.346.127-1.244.012-1.397-.128-.72-.177-.699-.645-1.143-1.026-.015-.44-.085-1.178.127-1.41.217-.96 1.064-1.188 2.286-1.154.196.231.55.298.762.513.213.214.28.57.508.769l-.127 1.538h-.127c-.143.205-.173.22-.254.513zm-7.748-2.82c.395-.014.942-.06 1.143.128.393.09.54.25.636.64.36.352.167.723.127 1.283-.583.348-.549.723-1.525.77v-.129l-.635-.128c-.099-.184-.351-.514-.508-.641a6.941 6.941 0 01.127-1.41c.182-.1.51-.356.635-.513zm-4.826.384l.762.129c.442.73.66.555.254 1.538-.74.373-1.157.386-1.524-.385h-.127v-.64c.105-.279.454-.43.635-.642zm23.497 3.975h1.016c.282.093.536.303.89.384.172.313.485.424.634.641.147.214-.002.294.254.513l.127 1.026-.38 1.154-.636.512v.129c-.218.146-1.414.544-1.905.384-.282-.091-.536-.304-.89-.384l-.38-.513h-.127v-.257l-.254-.128c-.29-.561-.057-1.603 0-2.18.311-.198.078-.146.254-.384l.508-.384v-.129h.254v-.128l.635-.128v-.128zm-7.62.512c1.166-.042 2.067.134 2.286 1.026.266.261.264.736.254 1.282h-.127v.385l-.255.128c-.238.36-.15.513-.634.641-.265.311-.809.272-1.398.256v-.128h-.38l-.128-.256h-.254c-.145-.115-.296-.592-.508-.77-.039-.647-.172-1.102.127-1.666h.127v-.256l.89-.642zm-5.335.385c.45.037.62.173 1.016.257.1.183.352.514.508.64a6.935 6.935 0 01-.127 1.41c-.182.1-.51.356-.635.514a6.746 6.746 0 01-1.397-.129c-.19-.322-.783-.814-.635-1.41h.127l.127-.64.38-.257v-.128l.636-.129v-.128zm-5.208.513l.762.128c.285.494.387.403.382 1.282l-.381.257v.128h-.255v.128c-.608.198-1.389-.63-1.143-1.282.105-.278.454-.43.635-.641zM29.34 21.41c1.24-.023 1.667.022 2.287.641l.254.129v.256h.127c.12.157.095.247.254.384l.127 1.41h-.127v.385h-.127v.257l-.762.897-.508.128v.129c-1.056.455-2.594-.218-2.795-1.026-.414-.36-.395-1.127-.38-1.923l.634-1.026 1.017-.64zm-5.46.898c.08.293.11.308.253.512h.127v.385h.127c.208.649-.166 1.232-.254 1.667-.485.296-1.073 1.136-2.16.769v-.128h-.38v-.128c-.203-.145-.218-.175-.508-.257l-.127-.384h-.127v-.257h-.127c-.126-.349-.012-1.255.127-1.41.174-.727.638-.705 1.016-1.154h1.397v.128h.254v.129l.381.128zm-6.098.384v.257l.255.128v.513h.127c.087.384-.188.694-.254 1.025-.182.1-.51.356-.636.513A6.744 6.744 0 0115.876 25c-.099-.184-.351-.514-.508-.641a6.942 6.942 0 01.127-1.41c.527-.306.662-.6 1.525-.641v.128h.38v.128l.382.128zm-6.477.128c.559-.008.805.052 1.016.385.61.548-.228 1.831-1.016 1.539v-.129h-.254c-.146-.098-.533-.76-.381-1.153h.127v-.257h.127l.127-.256h.254v-.129zm11.685 8.077c-.08-.288-.107-.316-.254-.512h-.127l-.127-.641h-.127c-.267-.848.262-1.512.381-2.052l.508-.384v-.128h.254v-.129c.254-.147.31-.022.508-.256 1.298-.044 2.426.176 2.667 1.154.397.335.526 1.431.254 2.051-.41.936-1.275 1.572-2.667 1.538v-.128h-.38c-.308-.15-.497-.413-.89-.513zm-5.97-3.717c.58.044.911.272 1.398.384l.254.385h.127c.281.434.258 1.07.254 1.795-.398.36-.394.86-1.016 1.025-.276.287-.823.269-1.398.257-.196-.232-.55-.299-.762-.513-.212-.215-.279-.57-.508-.77-.016-.834.075-1.706.508-2.05h.254v-.129c.155-.123.245-.096.381-.256h.509v-.128zm-5.969.512c.78-.025 1.375.164 1.524.77.23.223.254.563.254 1.025-.378.344-.265.732-.889.898-.404.388-1.171-.042-1.524-.129l-.127-.384h-.127v-.257h-.127c-.229-.655.244-1.482.508-1.666.21-.148.287-.006.508-.257zm-5.08.513h.762l.254.385h.127v.256h.127c.226.707-.612 1.24-1.143 1.282-.286-.32-.488-.123-.636-.64-.509-.547.298-1.037.509-1.283zm12.7 3.974h1.398v.129l.635.128.508.64h.127l.254.77h.127c.225.638-.19 1.775-.381 2.051l-.508.385-.127.257c-.214.148-.287.003-.508.256-.715.007-1.346-.072-1.905-.128-.2-.318-.696-.488-.89-.77-.146-.213.001-.293-.253-.512-.045-.591-.17-.783 0-1.282v-.513h.127c.073-.3.425-.882.635-1.026h.254v-.128c.258-.149.284-.002.508-.257zm-6.985.385c.58.044.91.273 1.397.385l.254.384h.127c.282.435.258 1.07.254 1.795-.397.36-.394.861-1.016 1.026-.567.604-1.462.01-2.032-.128-.083-.153-.206-.182-.254-.257v-.256l-.254-.128-.127-1.41c.254-.221.107-.299.254-.514l.889-.769h.508v-.128zm-5.97.513c.643-.004.812.152 1.27.256.297.547.5.63.509 1.539h-.127v.256H7.24v.257c-.246.344-.889.513-1.525.512v-.128h-.38c-.128-.17-.255-.342-.382-.513-.253-.242-.003-.066-.127-.384-.247-.64-.027-1.045.381-1.41v-.129h.254v-.128h.254v-.128zm-5.08.513h.762c.287.495.491.432.508 1.282-.565.34-.381.517-1.397.513L.254 35H.127v-.385H0l.254-.769c.163-.075.272-.126.381-.256z" fill="#E24230"/></svg>14.4872 28.1117 14.4872 28.0694 14.4872C27.7003 13.9291 27.6855 13.2514 27.6884 12.3077C27.9183 12.1064 27.7971 12.0522 27.9424 11.7949C27.9847 11.7949 28.0271 11.7949 28.0694 11.7949C28.0694 11.7094 28.0694 11.624 28.0694 11.5385C28.2387 11.4103 28.4082 11.2821 28.5775 11.1538C28.5775 11.1112 28.5775 11.0683 28.5775 11.0256C28.6622 11.0256 28.7468 11.0256 28.8315 11.0256C28.8315 10.9829 28.8315 10.9401 28.8315 10.8974C29.0432 10.8547 29.255 10.8119 29.4666 10.7692C29.4666 10.7265 29.4666 10.6837 29.4666 10.641ZM23.8781 14.4872C23.7511 14.5299 23.624 14.5727 23.497 14.6154C23.497 14.6581 23.497 14.7009 23.497 14.7436C23.4123 14.7436 23.3277 14.7436 23.243 14.7436C23.243 14.7863 23.243 14.8291 23.243 14.8718C22.897 14.999 21.9993 14.8836 21.8459 14.7436C21.1262 14.5673 21.1473 14.0992 20.7028 13.7179C20.6879 13.2776 20.6178 12.5404 20.8298 12.3077C21.0469 11.3476 21.8943 11.1204 23.116 11.1538C23.3124 11.385 23.6656 11.4522 23.8781 11.6667C24.0906 11.8812 24.1575 12.2372 24.3861 12.4359C24.3438 12.9487 24.3014 13.4615 24.2591 13.9744C24.2168 13.9744 24.1744 13.9744 24.1321 13.9744C23.9893 14.1791 23.9592 14.1941 23.8781 14.4872ZM16.1304 11.6667C16.5246 11.6526 17.0717 11.6064 17.2735 11.7949C17.6656 11.8853 17.8138 12.0447 17.9086 12.4359C18.2693 12.7872 18.0757 13.1581 18.0356 13.7179C17.4532 14.066 17.4873 14.4412 16.5114 14.4872C16.5114 14.4445 16.5114 14.4017 16.5114 14.359C16.2998 14.3163 16.0881 14.2735 15.8764 14.2308C15.7772 14.0472 15.5246 13.7165 15.3683 13.5897C15.3608 13.0354 15.4207 12.576 15.4953 12.1795C15.6772 12.0794 16.0048 11.8244 16.1304 11.6667ZM11.304 12.0513C11.558 12.094 11.812 12.1368 12.066 12.1795C12.5084 12.9095 12.7264 12.7345 12.3201 13.7179C11.5801 14.0914 11.1633 14.1035 10.7959 13.3333C10.7536 13.3333 10.7112 13.3333 10.6689 13.3333C10.6689 13.1196 10.6689 12.906 10.6689 12.6923C10.774 12.4142 11.1226 12.2624 11.304 12.0513ZM34.801 16.0256C35.1396 16.0256 35.4785 16.0256 35.8171 16.0256C36.0989 16.1188 36.3531 16.3286 36.7062 16.4103C36.8787 16.7226 37.192 16.8338 37.3412 17.0513C37.4882 17.2653 37.3391 17.3451 37.5953 17.5641C37.6376 17.9059 37.68 18.2479 37.7223 18.5897C37.5953 18.9744 37.4683 19.359 37.3412 19.7436C37.1295 19.9145 36.9179 20.0855 36.7062 20.2564C36.7062 20.2991 36.7062 20.3419 36.7062 20.3846C36.4876 20.5314 35.292 20.929 34.801 20.7692C34.5193 20.6776 34.2654 20.4646 33.9119 20.3846C33.7849 20.2137 33.6579 20.0427 33.5309 19.8718C33.4886 19.8718 33.4462 19.8718 33.4039 19.8718C33.4039 19.7863 33.4039 19.7009 33.4039 19.6154C33.3192 19.5727 33.2346 19.5299 33.1499 19.4872C32.86 18.926 33.093 17.8837 33.1499 17.3077C33.4611 17.1088 33.2279 17.1605 33.4039 16.9231C33.5732 16.7949 33.7426 16.6667 33.9119 16.5385C33.9119 16.4958 33.9119 16.4529 33.9119 16.4103C33.9967 16.4103 34.0812 16.4103 34.166 16.4103C34.166 16.3676 34.166 16.3247 34.166 16.2821C34.3776 16.2394 34.5894 16.1965 34.801 16.1538C34.801 16.1112 34.801 16.0683 34.801 16.0256ZM27.1804 16.5385C28.3468 16.4964 29.2481 16.6724 29.4666 17.5641C29.7333 17.8251 29.7305 18.3005 29.7206 18.8462C29.6783 18.8462 29.6359 18.8462 29.5936 18.8462C29.5936 18.9744 29.5936 19.1026 29.5936 19.2308C29.5088 19.2735 29.4243 19.3163 29.3395 19.359C29.1005 19.7185 29.1885 19.8722 28.7045 20C28.4395 20.3112 27.8963 20.2722 27.3074 20.2564C27.3074 20.2137 27.3074 20.1709 27.3074 20.1282C27.1804 20.1282 27.0533 20.1282 26.9263 20.1282C26.884 20.0427 26.8416 19.9573 26.7993 19.8718C26.7146 19.8718 26.63 19.8718 26.5453 19.8718C26.4004 19.7571 26.2489 19.2801 26.0373 19.1026C25.9983 18.455 25.8649 17.9995 26.1643 17.4359C26.2066 17.4359 26.249 17.4359 26.2913 17.4359C26.2913 17.3504 26.2913 17.265 26.2913 17.1795C26.5876 16.9659 26.884 16.7521 27.1804 16.5385ZM21.8459 16.9231C22.2951 16.9597 22.4662 17.0959 22.862 17.1795C22.9612 17.3631 23.2138 17.6937 23.37 17.8205C23.3775 18.3749 23.3177 18.8342 23.243 19.2308C23.0611 19.3309 22.7336 19.5859 22.608 19.7436C22.0588 19.7512 21.6037 19.6908 21.2108 19.6154C21.0211 19.2933 20.4282 18.8013 20.5758 18.2051C20.6181 18.2051 20.6605 18.2051 20.7028 18.2051C20.7451 17.9915 20.7875 17.7777 20.8298 17.5641C20.9568 17.4786 21.0838 17.3932 21.2108 17.3077C21.2108 17.265 21.2108 17.2222 21.2108 17.1795C21.4226 17.1368 21.6343 17.094 21.8459 17.0513C21.8459 17.0086 21.8459 16.9658 21.8459 16.9231ZM16.6384 17.4359C16.8925 17.4786 17.1465 17.5214 17.4005 17.5641C17.685 18.0578 17.7865 17.9669 17.7815 18.8462C17.6545 18.9317 17.5275 19.0171 17.4005 19.1026C17.4005 19.1453 17.4005 19.1881 17.4005 19.2308C17.3158 19.2308 17.2312 19.2308 17.1465 19.2308C17.1465 19.2735 17.1465 19.3163 17.1465 19.359C16.5376 19.5567 15.7575 18.7291 16.0034 18.0769C16.1083 17.7987 16.4573 17.6473 16.6384 17.4359ZM29.3395 21.4103C30.5798 21.3873 31.0059 21.4321 31.6257 22.0513C31.7105 22.094 31.795 22.1368 31.8798 22.1795C31.8798 22.265 31.8798 22.3504 31.8798 22.4359C31.9221 22.4359 31.9645 22.4359 32.0068 22.4359C32.1278 22.5935 32.1018 22.6833 32.2608 22.8205C32.3031 23.2905 32.3455 23.7608 32.3878 24.2308C32.3455 24.2308 32.3031 24.2308 32.2608 24.2308C32.2608 24.359 32.2608 24.4872 32.2608 24.6154C32.2185 24.6154 32.1761 24.6154 32.1338 24.6154C32.1338 24.7009 32.1338 24.7863 32.1338 24.8718C31.8798 25.1709 31.6257 25.4701 31.3717 25.7692C31.2024 25.8119 31.033 25.8547 30.8637 25.8974C30.8637 25.9401 30.8637 25.983 30.8637 26.0256C29.8081 26.4813 28.2699 25.8076 28.0694 25C27.655 24.6399 27.6737 23.8726 27.6884 23.0769C27.9001 22.7351 28.1117 22.3931 28.3235 22.0513C28.6621 21.8377 29.0009 21.6238 29.3395 21.4103ZM23.8781 22.3077C23.9591 22.6008 23.9892 22.616 24.1321 22.8205C24.1744 22.8205 24.2168 22.8205 24.2591 22.8205C24.2591 22.9487 24.2591 23.0769 24.2591 23.2051C24.3014 23.2051 24.3438 23.2051 24.3861 23.2051C24.5937 23.8535 24.2199 24.4374 24.1321 24.8718C23.6468 25.1682 23.0592 26.008 21.9729 25.641C21.9729 25.5983 21.9729 25.5555 21.9729 25.5128C21.8459 25.5128 21.7189 25.5128 21.5919 25.5128C21.5919 25.4701 21.5919 25.4273 21.5919 25.3846C21.389 25.2405 21.3743 25.2099 21.0838 25.1282C21.0415 25 20.9991 24.8718 20.9568 24.7436C20.9145 24.7436 20.8721 24.7436 20.8298 24.7436C20.8298 24.6581 20.8298 24.5727 20.8298 24.4872C20.7875 24.4872 20.7451 24.4872 20.7028 24.4872C20.5768 24.138 20.6911 23.2318 20.8298 23.0769C21.0044 22.3505 21.4682 22.3718 21.8459 21.9231C22.3115 21.9231 22.7774 21.9231 23.243 21.9231C23.243 21.9658 23.243 22.0086 23.243 22.0513C23.3277 22.0513 23.4123 22.0513 23.497 22.0513C23.497 22.094 23.497 22.1368 23.497 22.1795C23.624 22.2222 23.7511 22.265 23.8781 22.3077ZM17.7815 22.6923C17.7815 22.7778 17.7815 22.8632 17.7815 22.9487C17.8663 22.9914 17.9508 23.0342 18.0356 23.0769C18.0356 23.2478 18.0356 23.4188 18.0356 23.5897C18.0779 23.5897 18.1203 23.5897 18.1626 23.5897C18.2496 23.974 17.9752 24.2835 17.9086 24.6154C17.7267 24.7155 17.3991 24.9705 17.2735 25.1282C16.7243 25.1358 16.2692 25.0754 15.8764 25C15.7772 24.8164 15.5246 24.4858 15.3683 24.359C15.3608 23.8046 15.4207 23.3453 15.4953 22.9487C16.0224 22.643 16.1575 22.3496 17.0195 22.3077C17.0195 22.3504 17.0195 22.3932 17.0195 22.4359C17.1465 22.4359 17.2735 22.4359 17.4005 22.4359C17.4005 22.4786 17.4005 22.5214 17.4005 22.5641C17.5275 22.6068 17.6545 22.6496 17.7815 22.6923ZM11.304 22.8205C11.8627 22.8118 12.1088 22.8721 12.3201 23.2051C12.9293 23.7531 12.0921 25.036 11.304 24.7436C11.304 24.7009 11.304 24.6581 11.304 24.6154C11.2193 24.6154 11.1347 24.6154 11.05 24.6154C10.9044 24.5168 10.5175 23.8558 10.6689 23.4615C10.7112 23.4615 10.7536 23.4615 10.7959 23.4615C10.7959 23.376 10.7959 23.2906 10.7959 23.2051C10.8382 23.2051 10.8807 23.2051 10.9229 23.2051C10.9652 23.1196 11.0077 23.0342 11.05 22.9487C11.1347 22.9487 11.2193 22.9487 11.304 22.9487C11.304 22.906 11.304 22.8632 11.304 22.8205ZM22.989 30.8974C22.9092 30.6094 22.882 30.5808 22.735 30.3846C22.6927 30.3846 22.6503 30.3846 22.608 30.3846C22.5657 30.171 22.5232 29.9572 22.4809 29.7436C22.4387 29.7436 22.3962 29.7436 22.3539 29.7436C22.0871 28.8956 22.6163 28.2323 22.735 27.6923C22.9043 27.5641 23.0737 27.4359 23.243 27.3077C23.243 27.265 23.243 27.2222 23.243 27.1795C23.3277 27.1795 23.4123 27.1795 23.497 27.1795C23.497 27.1368 23.497 27.094 23.497 27.0513C23.7509 26.9044 23.8073 27.0291 24.0051 26.7949C25.3034 26.7506 26.4311 26.9712 26.6723 27.9487C27.069 28.2842 27.1981 29.3805 26.9263 30C26.5158 30.9355 25.6513 31.5719 24.2591 31.5385C24.2591 31.4958 24.2591 31.453 24.2591 31.4103C24.1321 31.4103 24.0051 31.4103 23.8781 31.4103C23.5707 31.2595 23.3817 30.9972 22.989 30.8974ZM17.0195 27.1795C17.5994 27.2235 17.93 27.4522 18.4166 27.5641C18.5013 27.6923 18.5859 27.8205 18.6706 27.9487C18.7129 27.9487 18.7553 27.9487 18.7976 27.9487C19.079 28.3832 19.0557 29.0186 19.0517 29.7436C18.6544 30.1037 18.6579 30.6045 18.0356 30.7692C17.7597 31.0559 17.213 31.0378 16.6384 31.0256C16.4421 30.7945 16.0889 30.7273 15.8764 30.5128C15.6639 30.2983 15.597 29.9423 15.3683 29.7436C15.3525 28.9086 15.4435 28.0372 15.8764 27.6923C15.9611 27.6923 16.0457 27.6923 16.1304 27.6923C16.1304 27.6496 16.1304 27.6068 16.1304 27.5641C16.2848 27.4413 16.3754 27.4681 16.5114 27.3077C16.6807 27.3077 16.8502 27.3077 17.0195 27.3077C17.0195 27.265 17.0195 27.2222 17.0195 27.1795ZM11.05 27.6923C11.8296 27.6674 12.4252 27.8564 12.5741 28.4615C12.8031 28.6847 12.8275 29.0249 12.8281 29.4872C12.45 29.8308 12.563 30.2187 11.939 30.3846C11.5351 30.7731 10.7675 30.3432 10.4149 30.2564C10.3726 30.1282 10.3302 30 10.2879 29.8718C10.2456 29.8718 10.2032 29.8718 10.1609 29.8718C10.1609 29.7863 10.1609 29.7009 10.1609 29.6154C10.1186 29.6154 10.0762 29.6154 10.0339 29.6154C9.80512 28.96 10.2784 28.1333 10.5419 27.9487C10.7522 27.8014 10.829 27.9431 11.05 27.6923ZM5.96952 28.2051C6.22354 28.2051 6.47756 28.2051 6.73158 28.2051C6.8163 28.3333 6.90089 28.4615 6.98561 28.5897C7.0279 28.5897 7.07032 28.5897 7.11262 28.5897C7.11262 28.6753 7.11262 28.7606 7.11262 28.8462C7.15491 28.8462 7.19733 28.8462 7.23963 28.8462C7.46647 29.5531 6.62756 30.0858 6.09653 30.1282C5.81113 29.8076 5.60931 30.0051 5.46147 29.4872C4.95241 28.9413 5.75868 28.4506 5.96952 28.2051ZM18.6706 32.1795C19.1362 32.1795 19.6021 32.1795 20.0677 32.1795C20.0677 32.2222 20.0677 32.265 20.0677 32.3077C20.2795 32.3504 20.4911 32.3932 20.7028 32.4359C20.8721 32.6495 21.0415 32.8632 21.2108 33.0769C21.2531 33.0769 21.2956 33.0769 21.3379 33.0769C21.4226 33.3333 21.5072 33.5897 21.5919 33.8462C21.6342 33.8462 21.6766 33.8462 21.7189 33.8462C21.9441 34.4838 21.5299 35.6214 21.3379 35.8974C21.1685 36.0256 20.9991 36.1539 20.8298 36.2821C20.7875 36.3676 20.7451 36.453 20.7028 36.5385C20.4892 36.6865 20.4158 36.5423 20.1948 36.7949C19.4802 36.8018 18.8491 36.7228 18.2896 36.6667C18.0901 36.3495 17.5941 36.1786 17.4005 35.8974C17.2538 35.6844 17.4014 35.6042 17.1465 35.3846C17.1019 34.794 16.9769 34.6015 17.1465 34.1026C17.1465 33.9317 17.1465 33.7606 17.1465 33.5897C17.1888 33.5897 17.2312 33.5897 17.2735 33.5897C17.3468 33.2891 17.6987 32.7083 17.9086 32.5641C17.9933 32.5641 18.0779 32.5641 18.1626 32.5641C18.1626 32.5214 18.1626 32.4786 18.1626 32.4359C18.4212 32.2874 18.4466 32.4344 18.6706 32.1795ZM11.685 32.5641C12.2649 32.6081 12.5956 32.8368 13.0821 32.9487C13.1669 33.0769 13.2514 33.2051 13.3362 33.3333C13.3785 33.3333 13.4209 33.3333 13.4632 33.3333C13.7445 33.7678 13.7213 34.4032 13.7172 35.1282C13.3199 35.4883 13.3235 35.9891 12.7011 36.1539C12.134 36.7582 11.2387 36.1645 10.6689 36.0256C10.5856 35.8727 10.4634 35.8436 10.4149 35.7692C10.4149 35.6837 10.4149 35.5983 10.4149 35.5128C10.3302 35.4701 10.2456 35.4273 10.1609 35.3846C10.1186 34.9146 10.0762 34.4444 10.0339 33.9744C10.2878 33.7536 10.1411 33.6763 10.2879 33.4615C10.5842 33.2051 10.8807 32.9487 11.177 32.6923C11.3463 32.6923 11.5157 32.6923 11.685 32.6923C11.685 32.6496 11.685 32.6068 11.685 32.5641ZM5.7155 33.0769C6.35766 33.0732 6.52748 33.2287 6.98561 33.3333C7.28243 33.8799 7.4859 33.9635 7.49365 34.8718C7.45136 34.8718 7.40893 34.8718 7.36664 34.8718C7.36664 34.9573 7.36664 35.0427 7.36664 35.1282C7.32434 35.1282 7.28192 35.1282 7.23963 35.1282C7.23963 35.2137 7.23963 35.2991 7.23963 35.3846C6.99437 35.729 6.35119 35.8981 5.7155 35.8974C5.7155 35.8547 5.7155 35.8119 5.7155 35.7692C5.58848 35.7692 5.46147 35.7692 5.33446 35.7692C5.20745 35.5983 5.08044 35.4273 4.95343 35.2564C4.7003 35.0139 4.94975 35.1905 4.82642 34.8718C4.57887 34.2323 4.79873 33.8268 5.20745 33.4615C5.20745 33.4188 5.20745 33.376 5.20745 33.3333C5.29217 33.3333 5.37676 33.3333 5.46147 33.3333C5.46147 33.2906 5.46147 33.2478 5.46147 33.2051C5.54619 33.2051 5.63078 33.2051 5.7155 33.2051C5.7155 33.1624 5.7155 33.1196 5.7155 33.0769ZM0.635055 33.5897C0.889077 33.5897 1.1431 33.5897 1.39712 33.5897C1.68353 34.0853 1.88815 34.0224 1.90517 34.8718C1.34022 35.2122 1.52388 35.3894 0.508044 35.3846C0.423328 35.2564 0.338738 35.1282 0.254022 35C0.211727 35 0.169306 35 0.127011 35C0.127011 34.8718 0.127011 34.7436 0.127011 34.6154C0.0847163 34.6154 0.0422947 34.6154 0 34.6154C0.0847163 34.359 0.169306 34.1026 0.254022 33.8462C0.416723 33.7705 0.525953 33.7197 0.635055 33.5897Z" fill="#E24230"/>
</svg>
