<svg width="111" height="108" fill="none" xmlns="http://www.w3.org/2000/svg"><path fill-rule="evenodd" clip-rule="evenodd" d="M54.94 0h4.484v.376l1.495.377v.376l2.243 1.881v.753c.55.53 1.218 3.446.747 4.892h-.374l-.373 1.882-2.243 1.881v.376c-1.309.86-3.8.762-5.98.753-.667-.74-.734-.316-1.495-.753v-.376h-.747l-.748-1.129h-.373v-.752l-.748-.377V9.031h-.373l-.374-3.01h.373V4.139h.374c.22-.902 1.242-2.562 1.869-3.01h.747l.374-.753h1.121V0zM31.02 2.634c1.155-.308 1.942-1.18 2.99-1.505 1.652-.513 2.941.514 4.111.753l1.121 1.505h.374c.433.631-.007.862.748 1.505.103 1.523.571 2.77-.374 3.763-.394 1.928-1.609 2.179-2.616 3.387-1.653.126-3.362.715-4.485-.377-1.206-.282-2.322-1.43-2.616-2.634-.745-.712-.01-.194-.374-1.129-.943-2.428.592-3.37 1.121-5.268zm-14.202 0l3.364.376 1.121 1.506c.731.712.765 1.898.747 3.386-.794.708-.896 1.67-1.868 2.258-.706.753-.192.01-1.121.377-1.78.7-2.145.007-3.738-.377-.873-1.604-1.472-1.85-1.495-4.515h.374v-1.13l.748-.376v-.376h.373l.374-.753h1.121v-.376zM1.495 4.14H4.11c.815 1.375 1.484 1.314 1.495 3.763C4.24 8.724 4.3 9.398 1.868 9.409V9.03H1.12l-.373-.75H.374c-.88-1.84.708-3.432 1.121-4.14zm69.889 11.29H74c.83.273 1.578.888 2.616 1.128l1.495 1.882h.374c.428.647 1.587 4.19 1.121 5.644-.267.835-.888 1.587-1.121 2.635l-1.495 1.128v.377c-1.574 1.102-3.61 1.14-6.354 1.129-.663-.746-.735-.316-1.495-.753v-.376h-.747l-.748-1.13h-.373v-.752l-.748-.376c-.75-1.231-.765-3.26-.747-5.268h.373v-1.13l1.87-2.633h.747l.373-.753 2.243-.376v-.377zM48.96 16.933c2.212-.035 3.275.419 4.858.752l1.121 1.505h.374c.4.614 1.275 3.866.748 5.269h-.374l-.374 1.505h-.374l-.747 1.129c-1.236.832-4.45 1.504-5.606.376-1.091-.266-.872-.516-1.495-1.129-1.798-1.768-1.966-1.983-1.869-5.644.674-.582.87-1.629 1.495-2.258.625-.63 1.663-.828 2.243-1.505zm-17.192 1.505a19.903 19.903 0 014.11.376c.934 1.624 1.806 1.794 1.87 4.516h-.374L37 25.212c-.67.97-2.765 1.489-4.485 1.506-1.002-1.12-2.132-.786-2.616-2.635-.555-.6-.408-2.217-.374-3.386.914-.582.231-.449.748-1.13.3-.395 1.123-.661 1.495-1.128zm-13.829 1.129l1.87.376c.707 1.225 1.393 1.367 1.494 3.387-1.553 1.342-.555 1.893-3.737 1.881-1.172-1.395-1.836-.982-1.869-3.763h.374v-.752l.747-.377v-.376h1.121v-.376zm68.768 11.665h2.99c.83.274 1.577.89 2.616 1.129.916 1.497 3.999 3.91 2.99 7.15h-.374v1.505h-.373c-.474 2.105-4.341 5.305-7.849 4.14-.828-.276-1.58-.883-2.616-1.13l-1.121-1.505h-.374c-1.086-1.638-1.13-3.627-1.121-6.397.676-.59.32-.75.747-1.505h.374v-.753l1.495-1.129v-.376h.747v-.376l1.87-.377v-.376zm-16.444 11.29l-1.122.375v.377h-.747v.376c-1.018.373-3.66.035-4.111-.376-2.118-.518-2.056-1.892-3.364-3.01-.043-1.293-.25-3.457.374-4.14.639-2.818 3.132-3.485 6.727-3.387.578.679 1.617.876 2.243 1.505.625.63.822 1.675 1.495 2.258l-.374 4.516h-.374c-.42.6-.509.645-.747 1.505zm-22.798-8.28c1.16-.04 2.77-.176 3.363.377 1.154.265 1.59.733 1.869 1.881 1.061 1.031.492 2.12.374 3.763-1.714 1.022-1.614 2.123-4.485 2.258v-.376l-1.869-.376c-.292-.54-1.035-1.51-1.495-1.882a20.309 20.309 0 01.374-4.14c.535-.293 1.499-1.042 1.869-1.505zm-14.202 1.13l2.242.376c1.302 2.142 1.943 1.629.747 4.515-2.177 1.096-3.404 1.132-4.484-1.129h-.374v-1.881c.309-.816 1.335-1.262 1.869-1.882zm69.141 11.665h2.99c.829.273 1.577.889 2.616 1.129.508.916 1.43 1.243 1.869 1.881.432.628-.007.863.747 1.505l.374 3.01-1.121 3.387-1.869 1.506v.376c-.643.43-4.161 1.598-5.606 1.129-.829-.27-1.576-.894-2.616-1.129l-1.121-1.505h-.374v-.753l-.748-.376c-.852-1.647-.167-4.706 0-6.397.916-.584.23-.432.748-1.13l1.495-1.128v-.376h.747v-.377l1.869-.376v-.376zM79.98 48.543c3.432-.123 6.084.393 6.727 3.01.785.767.777 2.162.748 3.763h-.374v1.13l-.748.376c-.703 1.055-.444 1.506-1.868 1.881-.78.913-2.378.799-4.112.753v-.377h-1.12l-.374-.752h-.748c-.426-.337-.872-1.737-1.495-2.258-.115-1.9-.507-3.238.374-4.892h.374v-.752l2.616-1.882zm-15.697 1.129c1.322.108 1.825.507 2.99.753.292.538 1.035 1.509 1.495 1.881a20.309 20.309 0 01-.374 4.14c-.535.293-1.5 1.042-1.869 1.505a19.903 19.903 0 01-4.11-.377c-.56-.945-2.304-2.39-1.87-4.14h.374l.374-1.88 1.121-.753v-.377l1.869-.376v-.376zM48.96 51.177l2.242.376c.837 1.45 1.136 1.183 1.121 3.763l-1.121.753v.376h-.747v.377c-1.792.58-4.088-1.85-3.364-3.763.309-.817 1.336-1.261 1.869-1.882zm37.373 11.666c3.65-.068 4.904.063 6.728 1.881l.747.376v.753h.374c.356.462.28.726.747 1.129l.374 4.14h-.374v1.128h-.373v.753l-2.243 2.634-1.495.376v.376c-3.106 1.338-7.632-.64-8.222-3.01-1.22-1.057-1.165-3.31-1.121-5.645l1.868-3.01 2.99-1.882zm-16.07 2.634c.238.86.327.905.747 1.505h.374v1.129h.374c.61 1.903-.49 3.617-.748 4.892-1.428.87-3.157 3.334-6.353 2.257v-.376h-1.122v-.376c-.596-.423-.64-.513-1.495-.753l-.373-1.129h-.374v-.752h-.374c-.37-1.025-.034-3.685.374-4.14.514-2.132 1.878-2.07 2.99-3.386h4.11v.376h.748v.376l1.122.377zm-17.94 1.129v.752l.748.376v1.506h.373c.256 1.127-.55 2.036-.747 3.01-.535.294-1.5 1.042-1.869 1.505a19.901 19.901 0 01-4.11-.376c-.293-.539-1.036-1.51-1.496-1.882a20.309 20.309 0 01.374-4.139c1.551-.897 1.948-1.758 4.485-1.881v.376h1.121v.376l1.121.377zm-19.06.376c1.644-.026 2.368.151 2.99 1.129 1.792 1.608-.671 5.374-2.99 4.515v-.376h-.748c-.428-.29-1.567-2.23-1.121-3.387h.374v-.752h.373l.374-.753h.748v-.376zm34.384 23.707c-.235-.846-.315-.93-.748-1.505h-.374l-.374-1.882h-.373c-.785-2.489.772-4.436 1.121-6.02l1.495-1.13v-.376h.747V79.4c.747-.431.913-.065 1.495-.753 3.82-.13 7.14.518 7.849 3.387 1.167.985 1.547 4.202.747 6.02-1.208 2.747-3.752 4.615-7.848 4.516v-.376h-1.121c-.905-.443-1.46-1.212-2.617-1.505zM50.08 79.776c1.706.13 2.68.8 4.11 1.129l.748 1.129h.374c.828 1.275.76 3.14.748 5.268-1.17 1.057-1.159 2.527-2.99 3.01-.812.842-2.42.789-4.111.753-.578-.678-1.618-.876-2.243-1.505-.625-.63-.822-1.675-1.495-2.258-.047-2.45.221-5.009 1.495-6.02h.748v-.377c.454-.36.72-.282 1.12-.753h1.496v-.376zm-17.566 1.505c2.294-.073 4.047.482 4.485 2.258.674.655.746 1.654.748 3.01-1.113 1.009-.78 2.148-2.617 2.635-1.188 1.14-3.447-.122-4.485-.377l-.373-1.129h-.374v-.752h-.374c-.673-1.924.72-4.35 1.495-4.892.62-.433.845-.017 1.495-.753zm-14.95 1.505h2.243l.748 1.13h.373v.752h.374c.668 2.075-1.801 3.638-3.364 3.763-.84-.941-1.433-.361-1.868-1.882-1.498-1.602.874-3.042 1.495-3.763zM54.94 94.453h4.111v.376l1.87.376 1.494 1.882h.374l.747 2.258h.374c.663 1.872-.556 5.21-1.121 6.021l-1.495 1.129-.374.752c-.628.435-.844.011-1.495.753-2.102.02-3.96-.212-5.606-.377-.587-.931-2.046-1.432-2.616-2.257-.432-.626.003-.861-.747-1.506-.132-1.733-.5-2.298 0-3.763v-1.505h.373c.216-.882 1.252-2.587 1.869-3.01h.747v-.377c.761-.435.836-.004 1.495-.752zM34.384 95.58c1.706.129 2.68.8 4.11 1.129.25.376.5.752.748 1.129h.374c.828 1.275.76 3.14.748 5.268-1.17 1.057-1.159 2.527-2.99 3.01-1.669 1.774-4.303.031-5.98-.376-.245-.449-.605-.534-.747-.753v-.752l-.748-.377-.374-4.139c.747-.648.316-.875.748-1.505l2.616-2.258h1.495v-.376zm-17.566 1.505c1.89-.01 2.39.445 3.738.753.873 1.604 1.472 1.85 1.494 4.515h-.373v.753h-.374v.752c-.722 1.011-2.614 1.508-4.485 1.506v-.377h-1.121l-1.121-1.505c-.745-.712-.011-.193-.374-1.129-.728-1.877-.082-3.067 1.121-4.14v-.375h.748v-.377h.747v-.376zM1.868 98.59h2.243c.843 1.455 1.445 1.27 1.495 3.763-1.662.999-1.122 1.519-4.111 1.505l-.748-1.128H.374v-1.129H0l.747-2.258c.48-.222.8-.371 1.122-.753z" fill="#fff"/></svg> 43.6857 64.2828 43.2748C62.1652 42.7573 62.2273 41.3835 60.9192 40.2643C60.8755 38.9717 60.6692 36.808 61.2929 36.125C61.9316 33.3069 64.4252 32.6401 68.0202 32.7383C68.598 33.4168 69.6374 33.6139 70.2626 34.2435C70.8879 34.8731 71.0848 35.918 71.7576 36.5013C71.6331 38.0065 71.5083 39.5117 71.3838 41.0169C71.2594 41.0169 71.1346 41.0169 71.0101 41.0169C70.59 41.6179 70.5014 41.6619 70.2626 42.5222ZM47.4646 34.2435C48.6247 34.2021 50.2344 34.0666 50.8283 34.6198C51.982 34.8851 52.4182 35.3532 52.697 36.5013C53.7584 37.5324 53.1888 38.621 53.0707 40.2643C51.3571 41.286 51.4573 42.3871 48.5859 42.5222C48.5859 42.3968 48.5859 42.2712 48.5859 42.1459C47.9632 42.0205 47.3402 41.8949 46.7172 41.7696C46.4253 41.2307 45.6819 40.2602 45.2222 39.888C45.2002 38.2609 45.3762 36.9126 45.596 35.7487C46.1312 35.4548 47.095 34.7064 47.4646 34.2435ZM33.2626 35.3724C34.0101 35.4977 34.7576 35.6234 35.5051 35.7487C36.8068 37.8914 37.4481 37.3777 36.2525 40.2643C34.0751 41.3605 32.8485 41.3959 31.7677 39.1354C31.6432 39.1354 31.5184 39.1354 31.3939 39.1354C31.3939 38.5081 31.3939 37.8812 31.3939 37.2539C31.703 36.4377 32.7289 35.9922 33.2626 35.3724ZM102.404 47.0378C103.4 47.0378 104.398 47.0378 105.394 47.0378C106.223 47.3114 106.971 47.927 108.01 48.1667C108.518 49.0834 109.44 49.41 109.879 50.0482C110.311 50.6762 109.872 50.9107 110.626 51.5534C110.751 52.5566 110.876 53.5606 111 54.5638C110.626 55.6927 110.253 56.8216 109.879 57.9505C109.256 58.4522 108.633 58.9541 108.01 59.4558C108.01 59.5811 108.01 59.7067 108.01 59.8321C107.367 60.2629 103.849 61.4298 102.404 60.961C101.575 60.6919 100.828 60.0669 99.7879 59.8321C99.4141 59.3304 99.0404 58.8285 98.6667 58.3268C98.5422 58.3268 98.4174 58.3268 98.2929 58.3268C98.2929 58.0759 98.2929 57.8252 98.2929 57.5742C98.0436 57.4489 97.7947 57.3233 97.5455 57.1979C96.6926 55.5509 97.378 52.4915 97.5455 50.8008C98.4611 50.2172 97.7749 50.3688 98.2929 49.6719C98.7911 49.2956 99.2897 48.9193 99.7879 48.543C99.7879 48.4177 99.7879 48.292 99.7879 48.1667C100.037 48.1667 100.286 48.1667 100.535 48.1667C100.535 48.0414 100.535 47.9157 100.535 47.7904C101.158 47.6651 101.781 47.5394 102.404 47.4141C102.404 47.2888 102.404 47.1631 102.404 47.0378ZM79.9798 48.543C83.4122 48.4196 86.0642 48.9362 86.7071 51.5534C87.4919 52.3196 87.4837 53.7149 87.4545 55.3164C87.3301 55.3164 87.2053 55.3164 87.0808 55.3164C87.0808 55.6927 87.0808 56.069 87.0808 56.4453C86.8315 56.5706 86.5826 56.6963 86.3333 56.8216C85.63 57.8768 85.889 58.328 84.4646 58.7032C83.685 59.6164 82.0866 59.502 80.3535 59.4558C80.3535 59.3304 80.3535 59.2048 80.3535 59.0795C79.9798 59.0795 79.6061 59.0795 79.2323 59.0795C79.1079 58.8285 78.983 58.5778 78.8586 58.3268C78.6093 58.3268 78.3604 58.3268 78.1111 58.3268C77.6847 57.9901 77.2388 56.5902 76.6162 56.069C76.5014 54.1683 76.109 52.8313 76.9899 51.1771C77.1144 51.1771 77.2392 51.1771 77.3636 51.1771C77.3636 50.9261 77.3636 50.6755 77.3636 50.4245C78.2356 49.7976 79.1079 49.1699 79.9798 48.543ZM64.2828 49.6719C65.6047 49.7795 66.1082 50.1791 67.2727 50.4245C67.5646 50.9634 68.308 51.9338 68.7677 52.306C68.7897 53.9331 68.6137 55.2814 68.3939 56.4453C67.8587 56.7392 66.8949 57.4877 66.5253 57.9505C64.9092 57.9727 63.5701 57.7955 62.4141 57.5742C61.8558 56.629 60.1112 55.1847 60.5455 53.4349C60.6699 53.4349 60.7947 53.4349 60.9192 53.4349C61.0436 52.808 61.1685 52.1803 61.2929 51.5534C61.6667 51.3024 62.0404 51.0518 62.4141 50.8008C62.4141 50.6755 62.4141 50.5498 62.4141 50.4245C63.0372 50.2992 63.6602 50.1735 64.2828 50.0482C64.2828 49.9229 64.2828 49.7972 64.2828 49.6719ZM48.9596 51.1771C49.7071 51.3024 50.4545 51.4281 51.202 51.5534C52.0392 53.0025 52.3378 52.7357 52.3232 55.3164C51.9495 55.5674 51.5758 55.818 51.202 56.069C51.202 56.1943 51.202 56.32 51.202 56.4453C50.9527 56.4453 50.7038 56.4453 50.4545 56.4453C50.4545 56.5706 50.4545 56.6963 50.4545 56.8216C48.6628 57.4019 46.3674 54.9729 47.0909 53.0586C47.3996 52.242 48.4266 51.7976 48.9596 51.1771ZM86.3333 62.8425C89.9829 62.7751 91.2368 62.9064 93.0606 64.724C93.3099 64.8493 93.5588 64.975 93.8081 65.1003C93.8081 65.3513 93.8081 65.6019 93.8081 65.8529C93.9325 65.8529 94.0574 65.8529 94.1818 65.8529C94.538 66.3154 94.4614 66.5792 94.9293 66.9818C95.0537 68.3613 95.1786 69.7416 95.303 71.1211C95.1786 71.1211 95.0537 71.1211 94.9293 71.1211C94.9293 71.4974 94.9293 71.8737 94.9293 72.25C94.8048 72.25 94.68 72.25 94.5556 72.25C94.5556 72.501 94.5556 72.7516 94.5556 73.0026C93.8081 73.8806 93.0606 74.7588 92.3131 75.6368C91.8149 75.7621 91.3164 75.8877 90.8182 76.0131C90.8182 76.1384 90.8182 76.2641 90.8182 76.3894C87.7121 77.7267 83.1857 75.7493 82.596 73.3789C81.3764 72.3219 81.4314 70.0697 81.4747 67.7344C82.0978 66.7312 82.7204 65.7272 83.3434 64.724C84.3398 64.0971 85.337 63.4694 86.3333 62.8425ZM70.2626 65.4766C70.5011 66.3368 70.5897 66.3816 71.0101 66.9818C71.1346 66.9818 71.2594 66.9818 71.3838 66.9818C71.3838 67.3581 71.3838 67.7344 71.3838 68.1107C71.5083 68.1107 71.6331 68.1107 71.7576 68.1107C72.3683 70.0137 71.2684 71.7277 71.0101 73.0026C69.5821 73.8727 67.8531 76.3374 64.6566 75.2605C64.6566 75.1351 64.6566 75.0095 64.6566 74.8841C64.2828 74.8841 63.9091 74.8841 63.5354 74.8841C63.5354 74.7588 63.5354 74.6332 63.5354 74.5079C62.9385 74.0849 62.8951 73.9949 62.0404 73.7552C61.916 73.3789 61.7911 73.0026 61.6667 72.6263C61.5422 72.6263 61.4174 72.6263 61.2929 72.6263C61.2929 72.3753 61.2929 72.1247 61.2929 71.8737C61.1685 71.8737 61.0436 71.8737 60.9192 71.8737C60.5484 70.8487 60.8848 68.189 61.2929 67.7344C61.8068 65.6023 63.1713 65.6647 64.2828 64.3477C65.6529 64.3477 67.0238 64.3477 68.3939 64.3477C68.3939 64.473 68.3939 64.5987 68.3939 64.724C68.6432 64.724 68.8921 64.724 69.1414 64.724C69.1414 64.8493 69.1414 64.975 69.1414 65.1003C69.5152 65.2256 69.8889 65.3513 70.2626 65.4766ZM52.3232 66.6055C52.3232 66.8565 52.3232 67.1071 52.3232 67.3581C52.5725 67.4834 52.8214 67.6091 53.0707 67.7344C53.0707 68.236 53.0707 68.738 53.0707 69.2396C53.1952 69.2396 53.32 69.2396 53.4444 69.2396C53.7005 70.3674 52.8932 71.2758 52.697 72.25C52.1618 72.5439 51.1979 73.2924 50.8283 73.7552C49.2122 73.7774 47.8731 73.6002 46.7172 73.3789C46.4253 72.8401 45.6819 71.8696 45.2222 71.4974C45.2002 69.8703 45.3762 68.522 45.596 67.3581C47.147 66.4606 47.5443 65.5996 50.0808 65.4766C50.0808 65.6019 50.0808 65.7276 50.0808 65.8529C50.4545 65.8529 50.8283 65.8529 51.202 65.8529C51.202 65.9782 51.202 66.1039 51.202 66.2292C51.5758 66.3545 51.9495 66.4802 52.3232 66.6055ZM33.2626 66.9818C34.9067 66.9562 35.631 67.1331 36.2525 68.1107C38.0453 69.719 35.5817 73.4847 33.2626 72.6263C33.2626 72.501 33.2626 72.3753 33.2626 72.25C33.0133 72.25 32.7644 72.25 32.5152 72.25C32.0868 71.9607 30.9484 70.0204 31.3939 68.8633C31.5184 68.8633 31.6432 68.8633 31.7677 68.8633C31.7677 68.6123 31.7677 68.3617 31.7677 68.1107C31.8921 68.1107 32.017 68.1107 32.1414 68.1107C32.2659 67.8597 32.3907 67.6091 32.5152 67.3581C32.7644 67.3581 33.0133 67.3581 33.2626 67.3581C33.2626 67.2328 33.2626 67.1071 33.2626 66.9818ZM67.6465 90.6889C67.4118 89.8433 67.3318 89.7594 66.899 89.1836C66.7745 89.1836 66.6497 89.1836 66.5253 89.1836C66.4008 88.5567 66.276 87.9291 66.1515 87.3021C66.0271 87.3021 65.9022 87.3021 65.7778 87.3021C64.9926 84.8133 66.5499 82.8663 66.899 81.2813C67.3972 80.905 67.8957 80.5287 68.3939 80.1524C68.3939 80.0271 68.3939 79.9014 68.3939 79.7761C68.6432 79.7761 68.8921 79.7761 69.1414 79.7761C69.1414 79.6508 69.1414 79.5251 69.1414 79.3998C69.8885 78.9685 70.0545 79.3347 70.6364 78.6472C74.4567 78.5173 77.7751 79.1646 78.4848 82.0339C79.652 83.0187 80.0321 86.2364 79.2323 88.0547C78.0244 90.8006 75.4804 92.6686 71.3838 92.5704C71.3838 92.4451 71.3838 92.3194 71.3838 92.1941C71.0101 92.1941 70.6364 92.1941 70.2626 92.1941C69.3582 91.7515 68.8021 90.9816 67.6465 90.6889ZM50.0808 79.7761C51.7873 79.9052 52.7601 80.5765 54.1919 80.905C54.4412 81.2813 54.6901 81.6576 54.9394 82.0339C55.0639 82.0339 55.1887 82.0339 55.3131 82.0339C56.141 83.3092 56.0726 85.1741 56.0606 87.3021C54.8916 88.3592 54.902 89.829 53.0707 90.3125C52.2589 91.154 50.6504 91.1009 48.9596 91.0652C48.3818 90.3867 47.3424 90.1895 46.7172 89.5599C46.0919 88.9304 45.8949 87.8854 45.2222 87.3021C45.1755 84.8513 45.4435 82.2935 46.7172 81.2813C46.9665 81.2813 47.2154 81.2813 47.4646 81.2813C47.4646 81.156 47.4646 81.0303 47.4646 80.905C47.9191 80.5445 48.1856 80.6231 48.5859 80.1524C49.084 80.1524 49.5826 80.1524 50.0808 80.1524C50.0808 80.0271 50.0808 79.9014 50.0808 79.7761ZM32.5152 81.2813C34.8092 81.2083 36.562 81.763 37 83.5391C37.6739 84.1942 37.7456 85.1926 37.7475 86.5495C36.6349 87.558 36.9675 88.6967 35.1313 89.1836C33.9428 90.3238 31.684 89.0621 30.6465 88.8073C30.522 88.431 30.3972 88.0547 30.2727 87.6784C30.1483 87.6784 30.0234 87.6784 29.899 87.6784C29.899 87.4274 29.899 87.1768 29.899 86.9258C29.7745 86.9258 29.6497 86.9258 29.5253 86.9258C28.8522 85.0022 30.2447 82.5758 31.0202 82.0339C31.6391 81.6015 31.8649 82.0173 32.5152 81.2813ZM17.5657 82.7865C18.3131 82.7865 19.0606 82.7865 19.8081 82.7865C20.0574 83.1628 20.3063 83.5391 20.5556 83.9154C20.68 83.9154 20.8048 83.9154 20.9293 83.9154C20.9293 84.1664 20.9293 84.417 20.9293 84.668C21.0537 84.668 21.1786 84.668 21.303 84.668C21.9705 86.743 19.502 88.3065 17.9394 88.431C17.0996 87.4899 16.5057 88.0698 16.0707 86.5495C14.5728 84.9472 16.9453 83.5071 17.5657 82.7865ZM54.9394 94.4519C56.3095 94.4519 57.6804 94.4519 59.0505 94.4519C59.0505 94.5772 59.0505 94.7029 59.0505 94.8282C59.6735 94.9535 60.2962 95.0792 60.9192 95.2045C61.4174 95.8314 61.9159 96.4587 62.4141 97.086C62.5386 97.086 62.6634 97.086 62.7879 97.086C63.0372 97.8386 63.2861 98.5912 63.5354 99.3438C63.6598 99.3438 63.7846 99.3438 63.9091 99.3438C64.5717 101.216 63.353 104.554 62.7879 105.365C62.2897 105.741 61.7911 106.117 61.2929 106.494C61.1685 106.745 61.0436 106.995 60.9192 107.246C60.2906 107.681 60.0745 107.257 59.4242 107.999C57.3216 108.019 55.4645 107.787 53.8182 107.622C53.231 106.691 51.7716 106.19 51.202 105.365C50.7704 104.739 51.2046 104.504 50.4545 103.859C50.3234 102.126 49.9556 101.561 50.4545 100.096C50.4545 99.5948 50.4545 99.0928 50.4545 98.5912C50.579 98.5912 50.7038 98.5912 50.8283 98.5912C51.0439 97.7088 52.0796 96.0041 52.697 95.5808C52.9463 95.5808 53.1952 95.5808 53.4444 95.5808C53.4444 95.4555 53.4444 95.3298 53.4444 95.2045C54.2054 94.7687 54.2801 95.2 54.9394 94.4519ZM34.3838 95.5808C36.0903 95.7098 37.0632 96.3812 38.4949 96.7097C38.7442 97.086 38.9931 97.4623 39.2424 97.8386C39.3669 97.8386 39.4917 97.8386 39.6162 97.8386C40.444 99.1139 40.3756 100.979 40.3636 103.107C39.1946 104.164 39.2051 105.634 37.3737 106.117C35.705 107.891 33.0705 106.148 31.3939 105.741C31.1488 105.292 30.7892 105.207 30.6465 104.988C30.6465 104.737 30.6465 104.487 30.6465 104.236C30.3972 104.11 30.1483 103.985 29.899 103.859C29.7745 102.48 29.6497 101.1 29.5253 99.7201C30.2724 99.0721 29.8407 98.8452 30.2727 98.2149C31.1447 97.4623 32.017 96.7097 32.8889 95.9571C33.3871 95.9571 33.8856 95.9571 34.3838 95.9571C34.3838 95.8318 34.3838 95.7061 34.3838 95.5808ZM16.8182 97.086C18.7078 97.0751 19.2075 97.5315 20.5556 97.8386C21.429 99.4428 22.0277 99.6881 22.0505 102.354C21.9261 102.354 21.8012 102.354 21.6768 102.354C21.6768 102.605 21.6768 102.856 21.6768 103.107C21.5523 103.107 21.4275 103.107 21.303 103.107C21.303 103.358 21.303 103.608 21.303 103.859C20.5813 104.87 18.6887 105.367 16.8182 105.365C16.8182 105.239 16.8182 105.114 16.8182 104.988C16.4444 104.988 16.0707 104.988 15.697 104.988C15.3232 104.487 14.9495 103.985 14.5758 103.483C13.8309 102.771 14.5649 103.29 14.202 102.354C13.4736 100.477 14.1205 99.287 15.3232 98.2149C15.3232 98.0896 15.3232 97.9639 15.3232 97.8386C15.5725 97.8386 15.8214 97.8386 16.0707 97.8386C16.0707 97.7133 16.0707 97.5876 16.0707 97.4623C16.32 97.4623 16.5689 97.4623 16.8182 97.4623C16.8182 97.337 16.8182 97.2113 16.8182 97.086ZM1.86869 98.5912C2.61616 98.5912 3.36364 98.5912 4.11111 98.5912C4.95389 100.046 5.55598 99.8612 5.60606 102.354C3.94368 103.353 4.4841 103.873 1.49495 103.859C1.24567 103.483 0.996758 103.107 0.747475 102.731C0.62302 102.731 0.498192 102.731 0.373737 102.731C0.373737 102.354 0.373737 101.978 0.373737 101.602C0.249283 101.602 0.124455 101.602 0 101.602C0.249283 100.849 0.498192 100.096 0.747475 99.3438C1.22623 99.1218 1.54765 98.9728 1.86869 98.5912Z" fill="white"/>
</svg>
