<svg width="111" height="108" viewBox="0 0 111 108" fill="none" xmlns="http://www.w3.org/2000/svg">
<path fill-rule="evenodd" clip-rule="evenodd" d="M54.9394 0C56.4343 0 57.9293 0 59.4242 0C59.4242 0.125309 59.4242 0.250994 59.4242 0.376302C59.9224 0.501611 60.421 0.627296 60.9192 0.752604C60.9192 0.877913 60.9192 1.0036 60.9192 1.12891C61.6667 1.75583 62.4141 2.3835 63.1616 3.01042C63.1616 3.26141 63.1616 3.51203 63.1616 3.76302C63.7129 4.29323 64.3796 7.2092 63.9091 8.65495C63.7846 8.65495 63.6598 8.65495 63.5354 8.65495C63.4109 9.28225 63.2861 9.90954 63.1616 10.5365C62.4141 11.1638 61.6667 11.7911 60.9192 12.418C60.9192 12.5433 60.9192 12.669 60.9192 12.7943C59.6104 13.6534 57.1198 13.5559 54.9394 13.5469C54.2719 12.8063 54.2046 13.2315 53.4444 12.7943C53.4444 12.669 53.4444 12.5433 53.4444 12.418C53.1952 12.418 52.9463 12.418 52.697 12.418C52.4477 12.0417 52.1988 11.6654 51.9495 11.2891C51.825 11.2891 51.7002 11.2891 51.5758 11.2891C51.5758 11.0381 51.5758 10.7875 51.5758 10.5365C51.3265 10.4112 51.0776 10.2855 50.8283 10.1602C50.8283 9.78386 50.8283 9.40756 50.8283 9.03125C50.7038 9.03125 50.579 9.03125 50.4545 9.03125C50.3301 8.02803 50.2053 7.02406 50.0808 6.02084C50.2053 6.02084 50.3301 6.02084 50.4545 6.02084C50.4545 5.39392 50.4545 4.76624 50.4545 4.13932C50.579 4.13932 50.7038 4.13932 50.8283 4.13932C51.0473 3.23695 52.0698 1.57671 52.697 1.12891C52.9463 1.12891 53.1952 1.12891 53.4444 1.12891C53.5689 0.877913 53.6937 0.627296 53.8182 0.376302C54.1919 0.376302 54.5657 0.376302 54.9394 0.376302C54.9394 0.250994 54.9394 0.125309 54.9394 0ZM31.0202 2.63412C32.1754 2.32555 32.9618 1.45441 34.0101 1.12891C35.662 0.616007 36.951 1.64331 38.1212 1.88151C38.4949 2.38312 38.8687 2.88511 39.2424 3.38672C39.3669 3.38672 39.4917 3.38672 39.6162 3.38672C40.0489 4.01816 39.6087 4.2492 40.3636 4.89193C40.4672 6.41482 40.9351 7.66227 39.9899 8.65495C39.596 10.5831 38.381 10.8337 37.3737 12.0417C35.7207 12.1681 34.012 12.7574 32.8889 11.6654C31.6828 11.3831 30.5669 10.2354 30.2727 9.03125C29.5275 8.31929 30.2623 8.83746 29.899 7.90235C28.9557 5.47444 30.4906 4.53218 31.0202 2.63412ZM16.8182 2.63412C17.9394 2.75942 19.0606 2.88511 20.1818 3.01042C20.5556 3.51203 20.9293 4.01402 21.303 4.51563C22.0344 5.22759 22.0681 6.41445 22.0505 7.90235C21.2559 8.61017 21.1535 9.57275 20.1818 10.1602C19.4758 10.9128 19.9901 10.1707 19.0606 10.5365C17.2816 11.2364 16.9165 10.544 15.3232 10.1602C14.4498 8.55598 13.8511 8.31063 13.8283 5.64453C13.9527 5.64453 14.0776 5.64453 14.202 5.64453C14.202 5.26823 14.202 4.89193 14.202 4.51563C14.4513 4.39032 14.7002 4.26463 14.9495 4.13932C14.9495 4.01402 14.9495 3.88833 14.9495 3.76302C15.0739 3.76302 15.1988 3.76302 15.3232 3.76302C15.4477 3.51203 15.5725 3.26141 15.697 3.01042C16.0707 3.01042 16.4444 3.01042 16.8182 3.01042C16.8182 2.88511 16.8182 2.75942 16.8182 2.63412ZM1.49495 4.13932C2.36688 4.13932 3.23918 4.13932 4.11111 4.13932C4.92623 5.51358 5.59522 5.45299 5.60606 7.90235C4.24117 8.72306 4.30134 9.39664 1.86869 9.40756C1.86869 9.28225 1.86869 9.15656 1.86869 9.03125C1.6194 9.03125 1.37049 9.03125 1.12121 9.03125C0.996758 8.78026 0.871929 8.52964 0.747475 8.27865C0.62302 8.27865 0.498192 8.27865 0.373737 8.27865C-0.50604 6.43816 1.08234 4.84715 1.49495 4.13932ZM71.3838 15.4284C72.2558 15.4284 73.1281 15.4284 74 15.4284C74.8293 15.702 75.5775 16.3172 76.6162 16.5573C77.1144 17.1846 77.6129 17.8119 78.1111 18.4388C78.2356 18.4388 78.3604 18.4388 78.4848 18.4388C78.9128 19.0864 80.0717 22.6286 79.6061 24.0833C79.3388 24.918 78.7181 25.6702 78.4848 26.7175C77.9867 27.0938 77.4881 27.4701 76.9899 27.8464C76.9899 27.9717 76.9899 28.0974 76.9899 28.2227C75.4157 29.3252 73.3792 29.3625 70.6364 29.3516C69.9734 28.6061 69.9008 29.0359 69.1414 28.599C69.1414 28.4737 69.1414 28.348 69.1414 28.2227C68.8921 28.2227 68.6432 28.2227 68.3939 28.2227C68.1447 27.8464 67.8958 27.4701 67.6465 27.0938C67.522 27.0938 67.3972 27.0938 67.2727 27.0938C67.2727 26.8428 67.2727 26.5921 67.2727 26.3412C67.0234 26.2158 66.7745 26.0902 66.5253 25.9649C65.7759 24.7336 65.7598 22.7042 65.7778 20.6966C65.9022 20.6966 66.0271 20.6966 66.1515 20.6966C66.1515 20.3203 66.1515 19.944 66.1515 19.5677C66.7745 18.6898 67.3976 17.8115 68.0202 16.9336C68.2695 16.9336 68.5184 16.9336 68.7677 16.9336C68.8921 16.6826 69.017 16.432 69.1414 16.181C69.8889 16.0557 70.6364 15.93 71.3838 15.8047C71.3838 15.6794 71.3838 15.5537 71.3838 15.4284ZM48.9596 16.9336C51.1717 16.8994 52.2354 17.3528 53.8182 17.6862C54.1919 18.1878 54.5657 18.6898 54.9394 19.1914C55.0639 19.1914 55.1887 19.1914 55.3131 19.1914C55.713 19.8048 56.5883 23.0572 56.0606 24.4596C55.9362 24.4596 55.8113 24.4596 55.6869 24.4596C55.5624 24.9613 55.4376 25.4632 55.3131 25.9649C55.1887 25.9649 55.0639 25.9649 54.9394 25.9649C54.6901 26.3412 54.4412 26.7175 54.1919 27.0938C52.9563 27.9258 49.7426 28.5982 48.5859 27.4701C47.4945 27.2044 47.7136 26.9538 47.0909 26.3412C45.2932 24.5729 45.1254 24.358 45.2222 20.6966C45.8961 20.1149 46.0919 19.0684 46.7172 18.4388C47.3424 17.8093 48.3803 17.6109 48.9596 16.9336ZM31.7677 18.4388C33.3837 18.4166 34.7228 18.5938 35.8788 18.8151C36.8124 20.4392 37.6843 20.6093 37.7475 23.3307C37.623 23.3307 37.4982 23.3307 37.3737 23.3307C37.2493 23.9577 37.1245 24.5853 37 25.2122C36.3295 26.1827 34.2351 26.7005 32.5152 26.7175C31.5135 25.5972 30.3826 25.9321 29.899 24.0833C29.344 23.4839 29.4909 21.8662 29.5253 20.6966C30.4387 20.1152 29.7562 20.2484 30.2727 19.5677C30.5736 19.1715 31.3962 18.9058 31.7677 18.4388ZM17.9394 19.5677C18.562 19.693 19.1854 19.8187 19.8081 19.944C20.5163 21.1693 21.2025 21.3111 21.303 23.3307C19.7502 24.673 20.7484 25.2235 17.5657 25.2122C16.3936 23.8173 15.7302 24.2297 15.697 21.4492C15.8214 21.4492 15.9463 21.4492 16.0707 21.4492C16.0707 21.1982 16.0707 20.9476 16.0707 20.6966C16.32 20.5713 16.5689 20.4456 16.8182 20.3203C16.8182 20.195 16.8182 20.0693 16.8182 19.944C17.1919 19.944 17.5657 19.944 17.9394 19.944C17.9394 19.8187 17.9394 19.693 17.9394 19.5677ZM86.7071 31.2331C87.7035 31.2331 88.7006 31.2331 89.697 31.2331C90.5263 31.5067 91.2741 32.1223 92.3131 32.362C93.2295 33.8593 96.3117 36.2725 95.303 39.5117C95.1786 39.5117 95.0537 39.5117 94.9293 39.5117C94.9293 40.0133 94.9293 40.5153 94.9293 41.0169C94.8048 41.0169 94.68 41.0169 94.5556 41.0169C94.082 43.1224 90.215 46.3224 86.7071 45.1563C85.8785 44.8808 85.1269 44.2738 84.0909 44.0274C83.7172 43.5257 83.3434 43.0238 82.9697 42.5222C82.8452 42.5222 82.7204 42.5222 82.596 42.5222C81.5099 40.8841 81.4662 38.895 81.4747 36.125C82.1512 35.5342 81.7947 35.375 82.2222 34.6198C82.3467 34.6198 82.4715 34.6198 82.596 34.6198C82.596 34.3688 82.596 34.1182 82.596 33.8672C83.0941 33.4909 83.5927 33.1146 84.0909 32.7383C84.0909 32.613 84.0909 32.4873 84.0909 32.362C84.3402 32.362 84.5891 32.362 84.8384 32.362C84.8384 32.2367 84.8384 32.111 84.8384 31.9857C85.4614 31.8604 86.0844 31.7347 86.7071 31.6094C86.7071 31.4841 86.7071 31.3584 86.7071 31.2331ZM70.2626 42.5222C69.8889 42.6475 69.5152 42.7731 69.1414 42.8985C69.1414 43.0238 69.1414 43.1495 69.1414 43.2748C68.8921 43.2748 68.6432 43.2748 68.3939 43.2748C68.3939 43.4001 68.3939 43.5257 68.3939 43.6511C67.3759 44.0243 64.7343 43.6857 64.2828 43.2748C62.1652 42.7573 62.2273 41.3835 60.9192 40.2643C60.8755 38.9717 60.6692 36.808 61.2929 36.125C61.9316 33.3069 64.4252 32.6401 68.0202 32.7383C68.598 33.4168 69.6374 33.6139 70.2626 34.2435C70.8879 34.8731 71.0848 35.918 71.7576 36.5013C71.6331 38.0065 71.5083 39.5117 71.3838 41.0169C71.2594 41.0169 71.1346 41.0169 71.0101 41.0169C70.59 41.6179 70.5014 41.6619 70.2626 42.5222ZM47.4646 34.2435C48.6247 34.2021 50.2344 34.0666 50.8283 34.6198C51.982 34.8851 52.4182 35.3532 52.697 36.5013C53.7584 37.5324 53.1888 38.621 53.0707 40.2643C51.3571 41.286 51.4573 42.3871 48.5859 42.5222C48.5859 42.3968 48.5859 42.2712 48.5859 42.1459C47.9632 42.0205 47.3402 41.8949 46.7172 41.7696C46.4253 41.2307 45.6819 40.2602 45.2222 39.888C45.2002 38.2609 45.3762 36.9126 45.596 35.7487C46.1312 35.4548 47.095 34.7064 47.4646 34.2435ZM33.2626 35.3724C34.0101 35.4977 34.7576 35.6234 35.5051 35.7487C36.8068 37.8914 37.4481 37.3777 36.2525 40.2643C34.0751 41.3605 32.8485 41.3959 31.7677 39.1354C31.6432 39.1354 31.5184 39.1354 31.3939 39.1354C31.3939 38.5081 31.3939 37.8812 31.3939 37.2539C31.703 36.4377 32.7289 35.9922 33.2626 35.3724ZM102.404 47.0378C103.4 47.0378 104.398 47.0378 105.394 47.0378C106.223 47.3114 106.971 47.927 108.01 48.1667C108.518 49.0834 109.44 49.41 109.879 50.0482C110.311 50.6762 109.872 50.9107 110.626 51.5534C110.751 52.5566 110.876 53.5606 111 54.5638C110.626 55.6927 110.253 56.8216 109.879 57.9505C109.256 58.4522 108.633 58.9541 108.01 59.4558C108.01 59.5811 108.01 59.7067 108.01 59.8321C107.367 60.2629 103.849 61.4298 102.404 60.961C101.575 60.6919 100.828 60.0669 99.7879 59.8321C99.4141 59.3304 99.0404 58.8285 98.6667 58.3268C98.5422 58.3268 98.4174 58.3268 98.2929 58.3268C98.2929 58.0759 98.2929 57.8252 98.2929 57.5742C98.0436 57.4489 97.7947 57.3233 97.5455 57.1979C96.6926 55.5509 97.378 52.4915 97.5455 50.8008C98.4611 50.2172 97.7749 50.3688 98.2929 49.6719C98.7911 49.2956 99.2897 48.9193 99.7879 48.543C99.7879 48.4177 99.7879 48.292 99.7879 48.1667C100.037 48.1667 100.286 48.1667 100.535 48.1667C100.535 48.0414 100.535 47.9157 100.535 47.7904C101.158 47.6651 101.781 47.5394 102.404 47.4141C102.404 47.2888 102.404 47.1631 102.404 47.0378ZM79.9798 48.543C83.4122 48.4196 86.0642 48.9362 86.7071 51.5534C87.4919 52.3196 87.4837 53.7149 87.4545 55.3164C87.3301 55.3164 87.2053 55.3164 87.0808 55.3164C87.0808 55.6927 87.0808 56.069 87.0808 56.4453C86.8315 56.5706 86.5826 56.6963 86.3333 56.8216C85.63 57.8768 85.889 58.328 84.4646 58.7032C83.685 59.6164 82.0866 59.502 80.3535 59.4558C80.3535 59.3304 80.3535 59.2048 80.3535 59.0795C79.9798 59.0795 79.6061 59.0795 79.2323 59.0795C79.1079 58.8285 78.983 58.5778 78.8586 58.3268C78.6093 58.3268 78.3604 58.3268 78.1111 58.3268C77.6847 57.9901 77.2388 56.5902 76.6162 56.069C76.5014 54.1683 76.109 52.8313 76.9899 51.1771C77.1144 51.1771 77.2392 51.1771 77.3636 51.1771C77.3636 50.9261 77.3636 50.6755 77.3636 50.4245C78.2356 49.7976 79.1079 49.1699 79.9798 48.543ZM64.2828 49.6719C65.6047 49.7795 66.1082 50.1791 67.2727 50.4245C67.5646 50.9634 68.308 51.9338 68.7677 52.306C68.7897 53.9331 68.6137 55.2814 68.3939 56.4453C67.8587 56.7392 66.8949 57.4877 66.5253 57.9505C64.9092 57.9727 63.5701 57.7955 62.4141 57.5742C61.8558 56.629 60.1112 55.1847 60.5455 53.4349C60.6699 53.4349 60.7947 53.4349 60.9192 53.4349C61.0436 52.808 61.1685 52.1803 61.2929 51.5534C61.6667 51.3024 62.0404 51.0518 62.4141 50.8008C62.4141 50.6755 62.4141 50.5498 62.4141 50.4245C63.0372 50.2992 63.6602 50.1735 64.2828 50.0482C64.2828 49.9229 64.2828 49.7972 64.2828 49.6719ZM48.9596 51.1771C49.7071 51.3024 50.4545 51.4281 51.202 51.5534C52.0392 53.0025 52.3378 52.7357 52.3232 55.3164C51.9495 55.5674 51.5758 55.818 51.202 56.069C51.202 56.1943 51.202 56.32 51.202 56.4453C50.9527 56.4453 50.7038 56.4453 50.4545 56.4453C50.4545 56.5706 50.4545 56.6963 50.4545 56.8216C48.6628 57.4019 46.3674 54.9729 47.0909 53.0586C47.3996 52.242 48.4266 51.7976 48.9596 51.1771ZM86.3333 62.8425C89.9829 62.7751 91.2368 62.9064 93.0606 64.724C93.3099 64.8493 93.5588 64.975 93.8081 65.1003C93.8081 65.3513 93.8081 65.6019 93.8081 65.8529C93.9325 65.8529 94.0574 65.8529 94.1818 65.8529C94.538 66.3154 94.4614 66.5792 94.9293 66.9818C95.0537 68.3613 95.1786 69.7416 95.303 71.1211C95.1786 71.1211 95.0537 71.1211 94.9293 71.1211C94.9293 71.4974 94.9293 71.8737 94.9293 72.25C94.8048 72.25 94.68 72.25 94.5556 72.25C94.5556 72.501 94.5556 72.7516 94.5556 73.0026C93.8081 73.8806 93.0606 74.7588 92.3131 75.6368C91.8149 75.7621 91.3164 75.8877 90.8182 76.0131C90.8182 76.1384 90.8182 76.2641 90.8182 76.3894C87.7121 77.7267 83.1857 75.7493 82.596 73.3789C81.3764 72.3219 81.4314 70.0697 81.4747 67.7344C82.0978 66.7312 82.7204 65.7272 83.3434 64.724C84.3398 64.0971 85.337 63.4694 86.3333 62.8425ZM70.2626 65.4766C70.5011 66.3368 70.5897 66.3816 71.0101 66.9818C71.1346 66.9818 71.2594 66.9818 71.3838 66.9818C71.3838 67.3581 71.3838 67.7344 71.3838 68.1107C71.5083 68.1107 71.6331 68.1107 71.7576 68.1107C72.3683 70.0137 71.2684 71.7277 71.0101 73.0026C69.5821 73.8727 67.8531 76.3374 64.6566 75.2605C64.6566 75.1351 64.6566 75.0095 64.6566 74.8841C64.2828 74.8841 63.9091 74.8841 63.5354 74.8841C63.5354 74.7588 63.5354 74.6332 63.5354 74.5079C62.9385 74.0849 62.8951 73.9949 62.0404 73.7552C61.916 73.3789 61.7911 73.0026 61.6667 72.6263C61.5422 72.6263 61.4174 72.6263 61.2929 72.6263C61.2929 72.3753 61.2929 72.1247 61.2929 71.8737C61.1685 71.8737 61.0436 71.8737 60.9192 71.8737C60.5484 70.8487 60.8848 68.189 61.2929 67.7344C61.8068 65.6023 63.1713 65.6647 64.2828 64.3477C65.6529 64.3477 67.0238 64.3477 68.3939 64.3477C68.3939 64.473 68.3939 64.5987 68.3939 64.724C68.6432 64.724 68.8921 64.724 69.1414 64.724C69.1414 64.8493 69.1414 64.975 69.1414 65.1003C69.5152 65.2256 69.8889 65.3513 70.2626 65.4766ZM52.3232 66.6055C52.3232 66.8565 52.3232 67.1071 52.3232 67.3581C52.5725 67.4834 52.8214 67.6091 53.0707 67.7344C53.0707 68.236 53.0707 68.738 53.0707 69.2396C53.1952 69.2396 53.32 69.2396 53.4444 69.2396C53.7005 70.3674 52.8932 71.2758 52.697 72.25C52.1618 72.5439 51.1979 73.2924 50.8283 73.7552C49.2122 73.7774 47.8731 73.6002 46.7172 73.3789C46.4253 72.8401 45.6819 71.8696 45.2222 71.4974C45.2002 69.8703 45.3762 68.522 45.596 67.3581C47.147 66.4606 47.5443 65.5996 50.0808 65.4766C50.0808 65.6019 50.0808 65.7276 50.0808 65.8529C50.4545 65.8529 50.8283 65.8529 51.202 65.8529C51.202 65.9782 51.202 66.1039 51.202 66.2292C51.5758 66.3545 51.9495 66.4802 52.3232 66.6055ZM33.2626 66.9818C34.9067 66.9562 35.631 67.1331 36.2525 68.1107C38.0453 69.719 35.5817 73.4847 33.2626 72.6263C33.2626 72.501 33.2626 72.3753 33.2626 72.25C33.0133 72.25 32.7644 72.25 32.5152 72.25C32.0868 71.9607 30.9484 70.0204 31.3939 68.8633C31.5184 68.8633 31.6432 68.8633 31.7677 68.8633C31.7677 68.6123 31.7677 68.3617 31.7677 68.1107C31.8921 68.1107 32.017 68.1107 32.1414 68.1107C32.2659 67.8597 32.3907 67.6091 32.5152 67.3581C32.7644 67.3581 33.0133 67.3581 33.2626 67.3581C33.2626 67.2328 33.2626 67.1071 33.2626 66.9818ZM67.6465 90.6889C67.4118 89.8433 67.3318 89.7594 66.899 89.1836C66.7745 89.1836 66.6497 89.1836 66.5253 89.1836C66.4008 88.5567 66.276 87.9291 66.1515 87.3021C66.0271 87.3021 65.9022 87.3021 65.7778 87.3021C64.9926 84.8133 66.5499 82.8663 66.899 81.2813C67.3972 80.905 67.8957 80.5287 68.3939 80.1524C68.3939 80.0271 68.3939 79.9014 68.3939 79.7761C68.6432 79.7761 68.8921 79.7761 69.1414 79.7761C69.1414 79.6508 69.1414 79.5251 69.1414 79.3998C69.8885 78.9685 70.0545 79.3347 70.6364 78.6472C74.4567 78.5173 77.7751 79.1646 78.4848 82.0339C79.652 83.0187 80.0321 86.2364 79.2323 88.0547C78.0244 90.8006 75.4804 92.6686 71.3838 92.5704C71.3838 92.4451 71.3838 92.3194 71.3838 92.1941C71.0101 92.1941 70.6364 92.1941 70.2626 92.1941C69.3582 91.7515 68.8021 90.9816 67.6465 90.6889ZM50.0808 79.7761C51.7873 79.9052 52.7601 80.5765 54.1919 80.905C54.4412 81.2813 54.6901 81.6576 54.9394 82.0339C55.0639 82.0339 55.1887 82.0339 55.3131 82.0339C56.141 83.3092 56.0726 85.1741 56.0606 87.3021C54.8916 88.3592 54.902 89.829 53.0707 90.3125C52.2589 91.154 50.6504 91.1009 48.9596 91.0652C48.3818 90.3867 47.3424 90.1895 46.7172 89.5599C46.0919 88.9304 45.8949 87.8854 45.2222 87.3021C45.1755 84.8513 45.4435 82.2935 46.7172 81.2813C46.9665 81.2813 47.2154 81.2813 47.4646 81.2813C47.4646 81.156 47.4646 81.0303 47.4646 80.905C47.9191 80.5445 48.1856 80.6231 48.5859 80.1524C49.084 80.1524 49.5826 80.1524 50.0808 80.1524C50.0808 80.0271 50.0808 79.9014 50.0808 79.7761ZM32.5152 81.2813C34.8092 81.2083 36.562 81.763 37 83.5391C37.6739 84.1942 37.7456 85.1926 37.7475 86.5495C36.6349 87.558 36.9675 88.6967 35.1313 89.1836C33.9428 90.3238 31.684 89.0621 30.6465 88.8073C30.522 88.431 30.3972 88.0547 30.2727 87.6784C30.1483 87.6784 30.0234 87.6784 29.899 87.6784C29.899 87.4274 29.899 87.1768 29.899 86.9258C29.7745 86.9258 29.6497 86.9258 29.5253 86.9258C28.8522 85.0022 30.2447 82.5758 31.0202 82.0339C31.6391 81.6015 31.8649 82.0173 32.5152 81.2813ZM17.5657 82.7865C18.3131 82.7865 19.0606 82.7865 19.8081 82.7865C20.0574 83.1628 20.3063 83.5391 20.5556 83.9154C20.68 83.9154 20.8048 83.9154 20.9293 83.9154C20.9293 84.1664 20.9293 84.417 20.9293 84.668C21.0537 84.668 21.1786 84.668 21.303 84.668C21.9705 86.743 19.502 88.3065 17.9394 88.431C17.0996 87.4899 16.5057 88.0698 16.0707 86.5495C14.5728 84.9472 16.9453 83.5071 17.5657 82.7865ZM54.9394 94.4519C56.3095 94.4519 57.6804 94.4519 59.0505 94.4519C59.0505 94.5772 59.0505 94.7029 59.0505 94.8282C59.6735 94.9535 60.2962 95.0792 60.9192 95.2045C61.4174 95.8314 61.9159 96.4587 62.4141 97.086C62.5386 97.086 62.6634 97.086 62.7879 97.086C63.0372 97.8386 63.2861 98.5912 63.5354 99.3438C63.6598 99.3438 63.7846 99.3438 63.9091 99.3438C64.5717 101.216 63.353 104.554 62.7879 105.365C62.2897 105.741 61.7911 106.117 61.2929 106.494C61.1685 106.745 61.0436 106.995 60.9192 107.246C60.2906 107.681 60.0745 107.257 59.4242 107.999C57.3216 108.019 55.4645 107.787 53.8182 107.622C53.231 106.691 51.7716 106.19 51.202 105.365C50.7704 104.739 51.2046 104.504 50.4545 103.859C50.3234 102.126 49.9556 101.561 50.4545 100.096C50.4545 99.5948 50.4545 99.0928 50.4545 98.5912C50.579 98.5912 50.7038 98.5912 50.8283 98.5912C51.0439 97.7088 52.0796 96.0041 52.697 95.5808C52.9463 95.5808 53.1952 95.5808 53.4444 95.5808C53.4444 95.4555 53.4444 95.3298 53.4444 95.2045C54.2054 94.7687 54.2801 95.2 54.9394 94.4519ZM34.3838 95.5808C36.0903 95.7098 37.0632 96.3812 38.4949 96.7097C38.7442 97.086 38.9931 97.4623 39.2424 97.8386C39.3669 97.8386 39.4917 97.8386 39.6162 97.8386C40.444 99.1139 40.3756 100.979 40.3636 103.107C39.1946 104.164 39.2051 105.634 37.3737 106.117C35.705 107.891 33.0705 106.148 31.3939 105.741C31.1488 105.292 30.7892 105.207 30.6465 104.988C30.6465 104.737 30.6465 104.487 30.6465 104.236C30.3972 104.11 30.1483 103.985 29.899 103.859C29.7745 102.48 29.6497 101.1 29.5253 99.7201C30.2724 99.0721 29.8407 98.8452 30.2727 98.2149C31.1447 97.4623 32.017 96.7097 32.8889 95.9571C33.3871 95.9571 33.8856 95.9571 34.3838 95.9571C34.3838 95.8318 34.3838 95.7061 34.3838 95.5808ZM16.8182 97.086C18.7078 97.0751 19.2075 97.5315 20.5556 97.8386C21.429 99.4428 22.0277 99.6881 22.0505 102.354C21.9261 102.354 21.8012 102.354 21.6768 102.354C21.6768 102.605 21.6768 102.856 21.6768 103.107C21.5523 103.107 21.4275 103.107 21.303 103.107C21.303 103.358 21.303 103.608 21.303 103.859C20.5813 104.87 18.6887 105.367 16.8182 105.365C16.8182 105.239 16.8182 105.114 16.8182 104.988C16.4444 104.988 16.0707 104.988 15.697 104.988C15.3232 104.487 14.9495 103.985 14.5758 103.483C13.8309 102.771 14.5649 103.29 14.202 102.354C13.4736 100.477 14.1205 99.287 15.3232 98.2149C15.3232 98.0896 15.3232 97.9639 15.3232 97.8386C15.5725 97.8386 15.8214 97.8386 16.0707 97.8386C16.0707 97.7133 16.0707 97.5876 16.0707 97.4623C16.32 97.4623 16.5689 97.4623 16.8182 97.4623C16.8182 97.337 16.8182 97.2113 16.8182 97.086ZM1.86869 98.5912C2.61616 98.5912 3.36364 98.5912 4.11111 98.5912C4.95389 100.046 5.55598 99.8612 5.60606 102.354C3.94368 103.353 4.4841 103.873 1.49495 103.859C1.24567 103.483 0.996758 103.107 0.747475 102.731C0.62302 102.731 0.498192 102.731 0.373737 102.731C0.373737 102.354 0.373737 101.978 0.373737 101.602C0.249283 101.602 0.124455 101.602 0 101.602C0.249283 100.849 0.498192 100.096 0.747475 99.3438C1.22623 99.1218 1.54765 98.9728 1.86869 98.5912Z" fill="#E24230"/>
</svg>
